{
DisplayStrings = (
"?",
"\U00BF/questiondown.001",
0
);
copyright = "Copyright (c) 2016 ResearchGate";
customParameters = (
{
name = license;
value = "This Font Software is licensed under the SIL Open Font License, Version 1.1. This license is available with a FAQ at: http://scripts.sil.org/OFL";
},
{
name = licenseURL;
value = "http://scripts.sil.org/OFL";
},
{
name = vendorID;
value = "STC ";
},
{
name = glyphOrder;
value = (
    ".notdef",
    uni0000,
    uni000D,
    NULL,
    space,
    exclam,
    quotedbl,
    numbersign,
    dollar,
    percent,
    ampersand,
    quotesingle,
    parenleft,
    parenright,
    asterisk,
    plus,
    comma,
    hyphen,
    period,
    slash,
    zero,
    one,
    two,
    three,
    four,
    five,
    six,
    seven,
    eight,
    nine,
    colon,
    semicolon,
    less,
    equal,
    greater,
    question,
    at,
    A,
    B,
    C,
    D,
    E,
    F,
    G,
    H,
    I,
    J,
    K,
    L,
    M,
    N,
    O,
    P,
    Q,
    R,
    S,
    T,
    U,
    V,
    W,
    X,
    Y,
    Z,
    bracketleft,
    backslash,
    bracketright,
    asciicircum,
    underscore,
    grave,
    a,
    b,
    c,
    d,
    e,
    f,
    g,
    h,
    i,
    j,
    k,
    l,
    m,
    n,
    o,
    p,
    q,
    r,
    s,
    t,
    u,
    v,
    w,
    x,
    y,
    z,
    braceleft,
    bar,
    braceright,
    asciitilde,
    uni00A0,
    exclamdown,
    cent,
    sterling,
    currency,
    yen,
    brokenbar,
    section,
    dieresis,
    copyright,
    ordfeminine,
    guillemotleft,
    logicalnot,
    uni00AD,
    registered,
    macron,
    degree,
    plusminus,
    acute,
    uni00B5,
    paragraph,
    periodcentered,
    cedilla,
    ordmasculine,
    guillemotright,
    onequarter,
    onehalf,
    threequarters,
    questiondown,
    Agrave,
    Aacute,
    Acircumflex,
    Atilde,
    Adieresis,
    Aring,
    AE,
    Ccedilla,
    Egrave,
    Eacute,
    Ecircumflex,
    Edieresis,
    Igrave,

glyphs = (
{
glyphname = A;
layers = (
{
layerId = "73368993-97DB-45A8-8926-1DF7017D2006";
name = Light;
paths = (
{
closed = 1;
nodes = (
"96 94 LINE",
"545 1353 LINE",
"693 1353 LINE",
"1142 94 LINE",
"1260 77 LINE",
"1260 0 LINE",
"820 0 LINE",
"820 77 LINE",
"979 94 LINE",
"883 381 LINE",
"320 381 LINE",
"226 95 LINE",
"385 77 LINE",
"385 0 LINE",
"-20 0 LINE",
"-20 77 LINE"
);
},
{
closed = 1;
nodes = (
"851 474 LINE",
"649 1074 LINE",
"598 1245 LINE",
"549 1068 LINE",
"351 474 LINE"
);
}
);
width = 1236;
}
);
note = A;
unicode = 0041;
},
{
glyphname = Aacute;
layers = (
{
layerId = "73368993-97DB-45A8-8926-1DF7017D2006";
name = Light;
paths = (
{
closed = 1;
nodes = (
"96 94 LINE",
"545 1353 LINE",
"693 1353 LINE",
"1142 94 LINE",
"1260 77 LINE",
"1260 0 LINE",
"820 0 LINE",
"820 77 LINE",
"979 94 LINE",
"883 381 LINE",
"320 381 LINE",
"226 95 LINE",
"385 77 LINE",
"385 0 LINE",
"-20 0 LINE",
"-20 77 LINE"
);
},
{
closed = 1;
nodes = (
"851 474 LINE",
"649 1074 LINE",
"598 1245 LINE",
"549 1068 LINE",
"351 474 LINE"
);
},
{
closed = 1;
nodes = (
"797 1767 LINE",
"798 1767 LINE",
"898 1674 LINE",
"861 1626 OFFCURVE",
"764 1560 OFFCURVE",
"667 1508 CURVE SMOOTH",
"618 1481 OFFCURVE",
"579 1461 OFFCURVE",
"549 1448 CURVE",
"548 1448 LINE",
"498 1495 LINE"
);
}
);
width = 1236;
}
);
note = Aacute;
unicode = 00C1;
},
{
glyphname = Abreve;
layers = (
{
layerId = "73368993-97DB-45A8-8926-1DF7017D2006";
name = Light;
paths = (
{
closed = 1;
nodes = (
"96 94 LINE",
"545 1353 LINE",
"693 1353 LINE",
"1142 94 LINE",
"1260 77 LINE",
"1260 0 LINE",
"820 0 LINE",
"820 77 LINE",
"979 94 LINE",
"883 381 LINE",
"320 381 LINE",
"226 95 LINE",
"385 77 LINE",
"385 0 LINE",
"-20 0 LINE",
"-20 77 LINE"
);
},
{
closed = 1;
nodes = (
"851 474 LINE",
"649 1074 LINE",
"598 1245 LINE",
"549 1068 LINE",
"351 474 LINE"
);
},
{
closed = 1;
nodes = (
"329 1735 OFFCURVE",
"330 1747 OFFCURVE",
"331 1756 CURVE",
"413 1756 LINE",
"413 1747 OFFCURVE",
"414 1738 OFFCURVE",
"416 1731 CURVE",
"421 1682 OFFCURVE",
"447 1631 OFFCURVE",
"507 1599 CURVE SMOOTH",
"537 1583 OFFCURVE",
"575 1575 OFFCURVE",
"621 1575 CURVE SMOOTH",
"714 1575 OFFCURVE",
"772 1612 OFFCURVE",
"799 1659 CURVE SMOOTH",
"812 1682 OFFCURVE",
"820 1707 OFFCURVE",
"822 1732 CURVE",
"823 1739 OFFCURVE",
"824 1747 OFFCURVE",
"824 1756 CURVE",
"903 1756 LINE",
"904 1747 OFFCURVE",
"905 1735 OFFCURVE",
"905 1720 CURVE SMOOTH",
"905 1621 OFFCURVE",
"858 1538 OFFCURVE",
"772 1491 CURVE SMOOTH",
"729 1468 OFFCURVE",
"678 1456 OFFCURVE",
"620 1456 CURVE SMOOTH",
"499 1456 OFFCURVE",
"410 1505 OFFCURVE",
"364 1585 CURVE SMOOTH",
"341 1625 OFFCURVE",
"329 1670 OFFCURVE",
"329 1720 CURVE SMOOTH"
);
}
);
width = 1236;
}
);
note = Abreve;
unicode = 0102;
},
{
glyphname = Acircumflex;
layers = (
{
layerId = "73368993-97DB-45A8-8926-1DF7017D2006";
name = Light;
paths = (
{
closed = 1;
nodes = (
"96 94 LINE",
"545 1353 LINE",
"693 1353 LINE",
"1142 94 LINE",
"1260 77 LINE",
"1260 0 LINE",
"820 0 LINE",
"820 77 LINE",
"979 94 LINE",
"883 381 LINE",
"320 381 LINE",
"226 95 LINE",
"385 77 LINE",
"385 0 LINE",
"-20 0 LINE",
"-20 77 LINE"
);
},
{
closed = 1;
nodes = (
"851 474 LINE",
"649 1074 LINE",
"598 1245 LINE",
"549 1068 LINE",
"351 474 LINE"
);
},
{
closed = 1;
nodes = (
"550 1772 LINE",
"685 1772 LINE",
"918 1512 LINE",
"852 1472 LINE",
"618 1663 LINE",
"379 1472 LINE",
"319 1510 LINE"
);
}
);
width = 1236;
}
);
note = Acircumflex;
unicode = 00C2;
},
{
glyphname = Adieresis;
layers = (
{
layerId = "73368993-97DB-45A8-8926-1DF7017D2006";
name = Light;
paths = (
{
closed = 1;
nodes = (
"96 94 LINE",
"545 1353 LINE",
"693 1353 LINE",
"1142 94 LINE",
"1260 77 LINE",
"1260 0 LINE",
"820 0 LINE",
"820 77 LINE",
"979 94 LINE",
"883 381 LINE",
"320 381 LINE",
"226 95 LINE",
"385 77 LINE",
"385 0 LINE",
"-20 0 LINE",
"-20 77 LINE"
);
},
{
closed = 1;
nodes = (
"851 474 LINE",
"649 1074 LINE",
"598 1245 LINE",
"549 1068 LINE",
"351 474 LINE"
);
},
{
closed = 1;
nodes = (
"306 1671 OFFCURVE",
"343 1726 OFFCURVE",
"410 1726 CURVE SMOOTH",
"411 1726 LINE SMOOTH",
"468 1726 OFFCURVE",
"506 1676 OFFCURVE",
"506 1621 CURVE SMOOTH",
"506 1554 OFFCURVE",
"466 1503 OFFCURVE",
"397 1503 CURVE SMOOTH",
"396 1503 LINE SMOOTH",
"341 1503 OFFCURVE",
"306 1547 OFFCURVE",
"306 1606 CURVE SMOOTH"
);
},
{
closed = 1;
nodes = (
"733 1671 OFFCURVE",
"772 1726 OFFCURVE",
"839 1726 CURVE SMOOTH",
"840 1726 LINE SMOOTH",
"899 1726 OFFCURVE",
"934 1676 OFFCURVE",
"934 1621 CURVE SMOOTH",
"934 1553 OFFCURVE",
"896 1503 OFFCURVE",
"825 1503 CURVE SMOOTH",
"824 1503 LINE SMOOTH",
"768 1503 OFFCURVE",
"733 1547 OFFCURVE",
"733 1606 CURVE SMOOTH"
);
}
);
width = 1236;
}
);
note = Adieresis;
unicode = 00C4;
},
{
glyphname = Agrave;
layers = (
{
layerId = "73368993-97DB-45A8-8926-1DF7017D2006";
name = Light;
paths = (
{
closed = 1;
nodes = (
"96 94 LINE",
"545 1353 LINE",
"693 1353 LINE",
"1142 94 LINE",
"1260 77 LINE",
"1260 0 LINE",
"820 0 LINE",
"820 77 LINE",
"979 94 LINE",
"883 381 LINE",
"320 381 LINE",
"226 95 LINE",
"385 77 LINE",
"385 0 LINE",
"-20 0 LINE",
"-20 77 LINE"
);
},
{
closed = 1;
nodes = (
"851 474 LINE",
"649 1074 LINE",
"598 1245 LINE",
"549 1068 LINE",
"351 474 LINE"
);
},
{
closed = 1;
nodes = (
"462 1767 LINE",
"463 1767 LINE",
"760 1495 LINE",
"712 1448 LINE",
"711 1448 LINE",
"648 1475 OFFCURVE",
"542 1532 OFFCURVE",
"455 1593 CURVE SMOOTH",
"411 1623 OFFCURVE",
"380 1650 OFFCURVE",
"361 1674 CURVE"
);
}
);
width = 1236;
}
);
note = Agrave;
unicode = 00C0;
},
{
glyphname = Amacron;
layers = (
{
layerId = "73368993-97DB-45A8-8926-1DF7017D2006";
name = Light;
paths = (
{
closed = 1;
nodes = (
"96 94 LINE",
"545 1353 LINE",
"693 1353 LINE",
"1142 94 LINE",
"1260 77 LINE",
"1260 0 LINE",
"820 0 LINE",
"820 77 LINE",
"979 94 LINE",
"883 381 LINE",
"320 381 LINE",
"226 95 LINE",
"385 77 LINE",
"385 0 LINE",
"-20 0 LINE",
"-20 77 LINE"
);
},
{
closed = 1;
nodes = (
"851 474 LINE",
"649 1074 LINE",
"598 1245 LINE",
"549 1068 LINE",
"351 474 LINE"
);
},
{
closed = 1;
nodes = (
"860 1659 LINE",
"860 1548 LINE",
"385 1548 LINE",
"385 1659 LINE"
);
}
);
width = 1236;
}
);
note = Amacron;
unicode = 0100;
},
{
glyphname = Aogonek;
layers = (
{
layerId = "73368993-97DB-45A8-8926-1DF7017D2006";
name = Light;
paths = (
{
closed = 1;
nodes = (
"96 94 LINE",
"545 1353 LINE",
"693 1353 LINE",
"1142 94 LINE",
"1260 77 LINE",
"1260 0 LINE",
"1111 0 LINE",
"1035 -33 OFFCURVE",
"972 -90 OFFCURVE",
"937 -149 CURVE SMOOTH",
"920 -179 OFFCURVE",
"911 -207 OFFCURVE",
"911 -232 CURVE SMOOTH",
"911 -312 OFFCURVE",
"968 -348 OFFCURVE",
"1052 -348 CURVE SMOOTH",
"1097 -348 OFFCURVE",
"1148 -333 OFFCURVE",
"1192 -312 CURVE",
"1192 -387 LINE",
"1141 -424 OFFCURVE",
"1062 -449 OFFCURVE",
"987 -449 CURVE SMOOTH",
"863 -449 OFFCURVE",
"769 -399 OFFCURVE",
"769 -280 CURVE SMOOTH",
"769 -215 OFFCURVE",
"815 -137 OFFCURVE",
"885 -73 CURVE SMOOTH",
"920 -42 OFFCURVE",
"958 -17 OFFCURVE",
"999 0 CURVE",
"820 0 LINE",
"820 77 LINE",
"979 94 LINE",
"883 381 LINE",
"320 381 LINE",
"226 95 LINE",
"385 77 LINE",
"385 0 LINE",
"-20 0 LINE",
"-20 77 LINE"
);
},
{
closed = 1;
nodes = (
"851 474 LINE",
"649 1074 LINE",
"598 1245 LINE",
"549 1068 LINE",
"351 474 LINE"
);
}
);
width = 1221;
}
);
note = Aogonek;
unicode = 0104;
},
{
glyphname = Aring;
layers = (
{
layerId = "73368993-97DB-45A8-8926-1DF7017D2006";
name = Light;
paths = (
{
closed = 1;
nodes = (
"1260 77 LINE",
"1260 0 LINE",
"820 0 LINE",
"820 77 LINE",
"979 94 LINE",
"883 381 LINE",
"320 381 LINE",
"226 95 LINE",
"385 77 LINE",
"385 0 LINE",
"-20 0 LINE",
"-20 77 LINE",
"96 94 LINE",
"540 1340 LINE",
"407 1361 OFFCURVE",
"336 1443 OFFCURVE",
"336 1551 CURVE SMOOTH",
"336 1647 OFFCURVE",
"398 1714 OFFCURVE",
"487 1747 CURVE SMOOTH",
"532 1764 OFFCURVE",
"579 1772 OFFCURVE",
"628 1772 CURVE SMOOTH",
"629 1772 LINE SMOOTH",
"745 1772 OFFCURVE",
"829 1735 OFFCURVE",
"871 1669 CURVE SMOOTH",
"892 1636 OFFCURVE",
"902 1597 OFFCURVE",
"902 1553 CURVE SMOOTH",
"902 1440 OFFCURVE",
"818 1365 OFFCURVE",
"697 1341 CURVE",
"1142 94 LINE"
);
},
{
closed = 1;
nodes = (
"448 1469 OFFCURVE",
"506 1404 OFFCURVE",
"621 1404 CURVE SMOOTH",
"622 1404 LINE SMOOTH",
"735 1404 OFFCURVE",
"791 1453 OFFCURVE",
"791 1545 CURVE SMOOTH",
"791 1640 OFFCURVE",
"737 1699 OFFCURVE",
"624 1699 CURVE SMOOTH",
"623 1699 LINE SMOOTH",
"511 1699 OFFCURVE",
"448 1649 OFFCURVE",
"448 1557 CURVE SMOOTH"
);
},
{
closed = 1;
nodes = (
"851 474 LINE",
"649 1074 LINE",
"598 1245 LINE",
"549 1068 LINE",
"351 474 LINE"
);
}
);
width = 1236;
}
);
note = Aring;
unicode = 00C5;
},
{
glyphname = Atilde;
layers = (
{
layerId = "73368993-97DB-45A8-8926-1DF7017D2006";
name = Light;
paths = (
{
closed = 1;
nodes = (
"96 94 LINE",
"545 1353 LINE",
"693 1353 LINE",
"1142 94 LINE",
"1260 77 LINE",
"1260 0 LINE",
"820 0 LINE",
"820 77 LINE",
"979 94 LINE",
"883 381 LINE",
"320 381 LINE",
"226 95 LINE",
"385 77 LINE",
"385 0 LINE",
"-20 0 LINE",
"-20 77 LINE"
);
},
{
closed = 1;
nodes = (
"851 474 LINE",
"649 1074 LINE",
"598 1245 LINE",
"549 1068 LINE",
"351 474 LINE"
);
},
{
closed = 1;
nodes = (
"425 1654 OFFCURVE",
"388 1623 OFFCURVE",
"368 1592 CURVE SMOOTH",
"358 1577 OFFCURVE",
"348 1559 OFFCURVE",
"339 1539 CURVE",
"264 1580 LINE",
"279 1636 OFFCURVE",
"323 1697 OFFCURVE",
"390 1735 CURVE SMOOTH",
"423 1754 OFFCURVE",
"460 1763 OFFCURVE",
"500 1763 CURVE SMOOTH",
"548 1763 OFFCURVE",
"586 1745 OFFCURVE",
"614 1722 CURVE",
"627 1710 OFFCURVE",
"642 1695 OFFCURVE",
"659 1676 CURVE SMOOTH",
"703 1629 OFFCURVE",
"728 1609 OFFCURVE",
"769 1609 CURVE SMOOTH",
"821 1609 OFFCURVE",
"856 1640 OFFCURVE",
"872 1668 CURVE SMOOTH",
"880 1681 OFFCURVE",
"889 1700 OFFCURVE",
"900 1725 CURVE",
"975 1683 LINE",
"943 1579 OFFCURVE",
"868 1500 OFFCURVE",
"759 1500 CURVE SMOOTH",
"712 1500 OFFCURVE",
"673 1519 OFFCURVE",
"647 1541 CURVE SMOOTH",
"634 1552 OFFCURVE",
"617 1566 OFFCURVE",
"598 1585 CURVE SMOOTH",
"550 1632 OFFCURVE",
"523 1654 OFFCURVE",
"476 1654 CURVE SMOOTH"
);
}
);
width = 1236;
}
);
note = Atilde;
unicode = 00C3;
},
{
glyphname = AE;
layers = (
{
layerId = "73368993-97DB-45A8-8926-1DF7017D2006";
name = Light;
paths = (
{
closed = 1;
nodes = (
"723 93 LINE",
"723 396 LINE",
"236 396 LINE",
"109 94 LINE",
"250 77 LINE",
"250 0 LINE",
"-163 0 LINE",
"-163 77 LINE",
"-31 93 LINE",
"488 1245 LINE",
"243 1265 LINE",
"243 1339 LINE",
"1457 1339 LINE",
"1488 1068 LINE",
"1403 1068 LINE",
"1348 1250 LINE",
"870 1258 LINE",
"870 732 LINE",
"1197 737 LINE",
"1219 886 LINE",
"1309 886 LINE",
"1309 488 LINE",
"1219 488 LINE",
"1197 643 LINE",
"870 648 LINE",
"870 89 LINE",
"1422 106 LINE",
"1527 332 LINE",
"1612 309 LINE",
"1544 0 LINE",
"563 0 LINE",
"563 77 LINE"
);
},
{
closed = 1;
nodes = (
"723 490 LINE",
"723 1253 LINE",
"598 1253 LINE",
"498 1022 LINE",
"275 490 LINE"
);
}
);
width = 1642;
}
);
note = AE;
unicode = 00C6;
},
{
glyphname = AEacute;
layers = (
{
layerId = "73368993-97DB-45A8-8926-1DF7017D2006";
name = Light;
paths = (
{
closed = 1;
nodes = (
"1024 1767 LINE",
"1025 1767 LINE",
"1125 1674 LINE",
"1088 1626 OFFCURVE",
"991 1560 OFFCURVE",
"894 1508 CURVE SMOOTH",
"845 1481 OFFCURVE",
"806 1461 OFFCURVE",
"776 1448 CURVE",
"775 1448 LINE",
"725 1495 LINE"
);
},
{
closed = 1;
nodes = (
"723 93 LINE",
"723 396 LINE",
"236 396 LINE",
"109 94 LINE",
"250 77 LINE",
"250 0 LINE",
"-163 0 LINE",
"-163 77 LINE",
"-31 93 LINE",
"488 1245 LINE",
"243 1265 LINE",
"243 1339 LINE",
"1457 1339 LINE",
"1488 1068 LINE",
"1403 1068 LINE",
"1348 1250 LINE",
"870 1258 LINE",
"870 732 LINE",
"1197 737 LINE",
"1219 886 LINE",
"1309 886 LINE",
"1309 488 LINE",
"1219 488 LINE",
"1197 643 LINE",
"870 648 LINE",
"870 89 LINE",
"1422 106 LINE",
"1527 332 LINE",
"1612 309 LINE",
"1544 0 LINE",
"563 0 LINE",
"563 77 LINE"
);
},
{
closed = 1;
nodes = (
"723 490 LINE",
"723 1253 LINE",
"598 1253 LINE",
"498 1022 LINE",
"275 490 LINE"
);
}
);
width = 1642;
}
);
note = AEacute;
unicode = 01FC;
},
{
glyphname = B;
layers = (
{
layerId = "73368993-97DB-45A8-8926-1DF7017D2006";
name = Light;
paths = (
{
closed = 1;
nodes = (
"245 94 LINE",
"245 1242 LINE",
"94 1262 LINE",
"94 1339 LINE",
"319 1339 LINE SMOOTH",
"364 1339 OFFCURVE",
"416 1342 OFFCURVE",
"473 1347 CURVE",
"492 1348 OFFCURVE",
"555 1353 OFFCURVE",
"599 1353 CURVE SMOOTH",
"911 1353 OFFCURVE",
"1045 1248 OFFCURVE",
"1045 1051 CURVE SMOOTH",
"1045 940 OFFCURVE",
"1004 843 OFFCURVE",
"924 779 CURVE SMOOTH",
"884 746 OFFCURVE",
"836 724 OFFCURVE",
"779 713 CURVE",
"928 718 OFFCURVE",
"1040 665 OFFCURVE",
"1097 568 CURVE SMOOTH",
"1126 519 OFFCURVE",
"1140 463 OFFCURVE",
"1140 400 CURVE SMOOTH",
"1140 248 OFFCURVE",
"1078 121 OFFCURVE",
"917 46 CURVE SMOOTH",
"836 8 OFFCURVE",
"730 -11 OFFCURVE",
"598 -11 CURVE SMOOTH",
"566 -11 OFFCURVE",
"529 -9 OFFCURVE",
"488 -6 CURVE SMOOTH",
"415 -2 OFFCURVE",
"357 0 OFFCURVE",
"312 0 CURVE SMOOTH",
"91 0 LINE",
"91 77 LINE"
);
},
{
closed = 1;
nodes = (
"393 744 LINE",
"417 743 OFFCURVE",
"469 742 OFFCURVE",
"548 742 CURVE SMOOTH",
"615 742 LINE SMOOTH",
"798 742 OFFCURVE",
"896 840 OFFCURVE",
"896 1017 CURVE SMOOTH",
"896 1133 OFFCURVE",
"859 1205 OFFCURVE",
"767 1243 CURVE SMOOTH",
"721 1262 OFFCURVE",
"659 1271 OFFCURVE",
"581 1271 CURVE SMOOTH",
"542 1271 OFFCURVE",
"495 1268 OFFCURVE",
"441 1263 CURVE SMOOTH",
"415 1260 OFFCURVE",
"399 1259 OFFCURVE",
"393 1259 CURVE"
);
},
{
closed = 1;
nodes = (
"393 91 LINE",
"428 80 OFFCURVE",
"496 75 OFFCURVE",
"597 75 CURVE SMOOTH",
"865 75 OFFCURVE",
"979 181 OFFCURVE",
"979 372 CURVE SMOOTH",
"979 503 OFFCURVE",
"936 581 OFFCURVE",
"840 620 CURVE SMOOTH",
"791 639 OFFCURVE",
"728 649 OFFCURVE",
"651 649 CURVE SMOOTH",
"547 649 LINE SMOOTH",
"466 649 OFFCURVE",
"415 649 OFFCURVE",
"393 648 CURVE"
);
}
);
width = 1210;
}
);
note = B;
unicode = 0042;
},
{
glyphname = C;
layers = (
{
layerId = "73368993-97DB-45A8-8926-1DF7017D2006";
name = Light;
paths = (
{
closed = 1;
nodes = (
"65 939 OFFCURVE",
"184 1154 OFFCURVE",
"380 1268 CURVE SMOOTH",
"477 1325 OFFCURVE",
"586 1353 OFFCURVE",
"707 1353 CURVE SMOOTH",
"828 1353 OFFCURVE",
"939 1331 OFFCURVE",
"1058 1303 CURVE SMOOTH",
"1087 1296 LINE",
"1072 1002 LINE",
"979 1002 LINE",
"940 1211 LINE",
"904 1243 OFFCURVE",
"807 1266 OFFCURVE",
"671 1266 CURVE SMOOTH",
"504 1266 OFFCURVE",
"367 1175 OFFCURVE",
"292 1002 CURVE SMOOTH",
"254 915 OFFCURVE",
"235 812 OFFCURVE",
"235 692 CURVE SMOOTH",
"235 467 OFFCURVE",
"301 267 OFFCURVE",
"435 152 CURVE SMOOTH",
"502 95 OFFCURVE",
"584 66 OFFCURVE",
"683 66 CURVE SMOOTH",
"820 66 OFFCURVE",
"885 89 OFFCURVE",
"941 133 CURVE",
"1013 303 LINE",
"1101 290 LINE",
"1057 49 LINE",
"1024 48 OFFCURVE",
"998 40 OFFCURVE",
"950 25 CURVE SMOOTH",
"866 -3 OFFCURVE",
"798 -20 OFFCURVE",
"679 -20 CURVE SMOOTH",
"422 -20 OFFCURVE",
"233 100 OFFCURVE",
"137 309 CURVE SMOOTH",
"89 414 OFFCURVE",
"65 536 OFFCURVE",
"65 676 CURVE SMOOTH"
);
}
);
width = 1170;
}
);
note = C;
unicode = 0043;
},
{
glyphname = Cacute;
layers = (
{
layerId = "73368993-97DB-45A8-8926-1DF7017D2006";
name = Light;
paths = (
{
closed = 1;
nodes = (
"65 939 OFFCURVE",
"184 1154 OFFCURVE",
"380 1268 CURVE SMOOTH",
"477 1325 OFFCURVE",
"586 1353 OFFCURVE",
"707 1353 CURVE SMOOTH",
"828 1353 OFFCURVE",
"939 1331 OFFCURVE",
"1058 1303 CURVE SMOOTH",
"1087 1296 LINE",
"1072 1002 LINE",
"979 1002 LINE",
"940 1211 LINE",
"904 1243 OFFCURVE",
"807 1266 OFFCURVE",
"671 1266 CURVE SMOOTH",
"504 1266 OFFCURVE",
"367 1175 OFFCURVE",
"292 1002 CURVE SMOOTH",
"254 915 OFFCURVE",
"235 812 OFFCURVE",
"235 692 CURVE SMOOTH",
"235 467 OFFCURVE",
"301 267 OFFCURVE",
"435 152 CURVE SMOOTH",
"502 95 OFFCURVE",
"584 66 OFFCURVE",
"683 66 CURVE SMOOTH",
"820 66 OFFCURVE",
"885 89 OFFCURVE",
"941 133 CURVE",
"1013 303 LINE",
"1101 290 LINE",
"1057 49 LINE",
"1024 48 OFFCURVE",
"998 40 OFFCURVE",
"950 25 CURVE SMOOTH",
"866 -3 OFFCURVE",
"798 -20 OFFCURVE",
"679 -20 CURVE SMOOTH",
"422 -20 OFFCURVE",
"233 100 OFFCURVE",
"137 309 CURVE SMOOTH",
"89 414 OFFCURVE",
"65 536 OFFCURVE",
"65 676 CURVE SMOOTH"
);
},
{
closed = 1;
nodes = (
"869 1767 LINE",
"870 1767 LINE",
"970 1674 LINE",
"933 1626 OFFCURVE",
"836 1560 OFFCURVE",
"739 1508 CURVE SMOOTH",
"690 1481 OFFCURVE",
"651 1461 OFFCURVE",
"621 1448 CURVE",
"620 1448 LINE",
"570 1495 LINE"
);
}
);
width = 1170;
}
);
note = Cacute;
unicode = 0106;
},
{
glyphname = Ccaron;
layers = (
{
layerId = "73368993-97DB-45A8-8926-1DF7017D2006";
name = Light;
paths = (
{
closed = 1;
nodes = (
"65 939 OFFCURVE",
"184 1154 OFFCURVE",
"380 1268 CURVE SMOOTH",
"477 1325 OFFCURVE",
"586 1353 OFFCURVE",
"707 1353 CURVE SMOOTH",
"828 1353 OFFCURVE",
"939 1331 OFFCURVE",
"1058 1303 CURVE SMOOTH",
"1087 1296 LINE",
"1072 1002 LINE",
"979 1002 LINE",
"940 1211 LINE",
"904 1243 OFFCURVE",
"807 1266 OFFCURVE",
"671 1266 CURVE SMOOTH",
"504 1266 OFFCURVE",
"367 1175 OFFCURVE",
"292 1002 CURVE SMOOTH",
"254 915 OFFCURVE",
"235 812 OFFCURVE",
"235 692 CURVE SMOOTH",
"235 467 OFFCURVE",
"301 267 OFFCURVE",
"435 152 CURVE SMOOTH",
"502 95 OFFCURVE",
"584 66 OFFCURVE",
"683 66 CURVE SMOOTH",
"820 66 OFFCURVE",
"885 89 OFFCURVE",
"941 133 CURVE",
"1013 303 LINE",
"1101 290 LINE",
"1057 49 LINE",
"1024 48 OFFCURVE",
"998 40 OFFCURVE",
"950 25 CURVE SMOOTH",
"866 -3 OFFCURVE",
"798 -20 OFFCURVE",
"679 -20 CURVE SMOOTH",
"422 -20 OFFCURVE",
"233 100 OFFCURVE",
"137 309 CURVE SMOOTH",
"89 414 OFFCURVE",
"65 536 OFFCURVE",
"65 676 CURVE SMOOTH"
);
},
{
closed = 1;
nodes = (
"470 1770 LINE",
"691 1590 LINE",
"916 1770 LINE",
"976 1733 LINE",
"760 1489 LINE",
"623 1489 LINE",
"405 1731 LINE"
);
}
);
width = 1170;
}
);
note = Ccaron;
unicode = 010C;
},
{
glyphname = Ccedilla;
layers = (
{
layerId = "73368993-97DB-45A8-8926-1DF7017D2006";
name = Light;
paths = (
{
closed = 1;
nodes = (
"1057 49 LINE",
"1025 48 OFFCURVE",
"1000 41 OFFCURVE",
"951 25 CURVE SMOOTH",
"867 -3 OFFCURVE",
"802 -19 OFFCURVE",
"690 -20 CURVE",
"738 -76 OFFCURVE",
"784 -165 OFFCURVE",
"784 -248 CURVE SMOOTH",
"784 -373 OFFCURVE",
"709 -423 OFFCURVE",
"564 -423 CURVE SMOOTH",
"563 -423 LINE SMOOTH",
"522 -423 OFFCURVE",
"467 -413 OFFCURVE",
"436 -400 CURVE",
"437 -294 LINE",
"461 -302 OFFCURVE",
"500 -308 OFFCURVE",
"520 -308 CURVE SMOOTH",
"521 -308 LINE SMOOTH",
"585 -308 OFFCURVE",
"622 -298 OFFCURVE",
"642 -261 CURVE SMOOTH",
"652 -242 OFFCURVE",
"657 -215 OFFCURVE",
"657 -180 CURVE SMOOTH",
"657 -124 OFFCURVE",
"634 -62 OFFCURVE",
"606 -17 CURVE",
"378 4 OFFCURVE",
"213 129 OFFCURVE",
"129 330 CURVE SMOOTH",
"86 430 OFFCURVE",
"65 545 OFFCURVE",
"65 676 CURVE SMOOTH",
"65 939 OFFCURVE",
"184 1154 OFFCURVE",
"380 1268 CURVE SMOOTH",
"477 1325 OFFCURVE",
"586 1353 OFFCURVE",
"707 1353 CURVE SMOOTH",
"828 1353 OFFCURVE",
"939 1331 OFFCURVE",
"1058 1303 CURVE SMOOTH",
"1087 1296 LINE",
"1072 1002 LINE",
"979 1002 LINE",
"940 1211 LINE",
"904 1243 OFFCURVE",
"807 1266 OFFCURVE",
"671 1266 CURVE SMOOTH",
"504 1266 OFFCURVE",
"367 1175 OFFCURVE",
"292 1002 CURVE SMOOTH",
"254 915 OFFCURVE",
"235 812 OFFCURVE",
"235 692 CURVE SMOOTH",
"235 467 OFFCURVE",
"301 267 OFFCURVE",
"435 152 CURVE SMOOTH",
"502 95 OFFCURVE",
"584 66 OFFCURVE",
"683 66 CURVE SMOOTH",
"820 66 OFFCURVE",
"885 89 OFFCURVE",
"941 133 CURVE",
"1013 303 LINE",
"1101 290 LINE"
);
}
);
width = 1170;
}
);
note = Ccedilla;
unicode = 00C7;
},
{
glyphname = Ccircumflex;
layers = (
{
layerId = "73368993-97DB-45A8-8926-1DF7017D2006";
name = Light;
paths = (
{
closed = 1;
nodes = (
"65 939 OFFCURVE",
"184 1154 OFFCURVE",
"380 1268 CURVE SMOOTH",
"477 1325 OFFCURVE",
"586 1353 OFFCURVE",
"707 1353 CURVE SMOOTH",
"828 1353 OFFCURVE",
"939 1331 OFFCURVE",
"1058 1303 CURVE SMOOTH",
"1087 1296 LINE",
"1072 1002 LINE",
"979 1002 LINE",
"940 1211 LINE",
"904 1243 OFFCURVE",
"807 1266 OFFCURVE",
"671 1266 CURVE SMOOTH",
"504 1266 OFFCURVE",
"367 1175 OFFCURVE",
"292 1002 CURVE SMOOTH",
"254 915 OFFCURVE",
"235 812 OFFCURVE",
"235 692 CURVE SMOOTH",
"235 467 OFFCURVE",
"301 267 OFFCURVE",
"435 152 CURVE SMOOTH",
"502 95 OFFCURVE",
"584 66 OFFCURVE",
"683 66 CURVE SMOOTH",
"820 66 OFFCURVE",
"885 89 OFFCURVE",
"941 133 CURVE",
"1013 303 LINE",
"1101 290 LINE",
"1057 49 LINE",
"1024 48 OFFCURVE",
"998 40 OFFCURVE",
"950 25 CURVE SMOOTH",
"866 -3 OFFCURVE",
"798 -20 OFFCURVE",
"679 -20 CURVE SMOOTH",
"422 -20 OFFCURVE",
"233 100 OFFCURVE",
"137 309 CURVE SMOOTH",
"89 414 OFFCURVE",
"65 536 OFFCURVE",
"65 676 CURVE SMOOTH"
);
},
{
closed = 1;
nodes = (
"621 1772 LINE",
"756 1772 LINE",
"989 1512 LINE",
"923 1472 LINE",
"689 1663 LINE",
"450 1472 LINE",
"390 1510 LINE"
);
}
);
width = 1170;
}
);
note = Ccircumflex;
unicode = 0108;
},
{
glyphname = Cdotaccent;
layers = (
{
layerId = "73368993-97DB-45A8-8926-1DF7017D2006";
name = Light;
paths = (
{
closed = 1;
nodes = (
"591 1675 OFFCURVE",
"628 1729 OFFCURVE",
"695 1729 CURVE SMOOTH",
"696 1729 LINE SMOOTH",
"755 1729 OFFCURVE",
"791 1680 OFFCURVE",
"791 1624 CURVE SMOOTH",
"791 1556 OFFCURVE",
"753 1507 OFFCURVE",
"682 1507 CURVE SMOOTH",
"681 1507 LINE SMOOTH",
"626 1507 OFFCURVE",
"591 1551 OFFCURVE",
"591 1610 CURVE SMOOTH"
);
},
{
closed = 1;
nodes = (
"65 939 OFFCURVE",
"184 1154 OFFCURVE",
"380 1268 CURVE SMOOTH",
"477 1325 OFFCURVE",
"586 1353 OFFCURVE",
"707 1353 CURVE SMOOTH",
"828 1353 OFFCURVE",
"939 1331 OFFCURVE",
"1058 1303 CURVE SMOOTH",
"1087 1296 LINE",
"1072 1002 LINE",
"979 1002 LINE",
"940 1211 LINE",
"904 1243 OFFCURVE",
"807 1266 OFFCURVE",
"671 1266 CURVE SMOOTH",
"504 1266 OFFCURVE",
"367 1175 OFFCURVE",
"292 1002 CURVE SMOOTH",
"254 915 OFFCURVE",
"235 812 OFFCURVE",
"235 692 CURVE SMOOTH",
"235 467 OFFCURVE",
"301 267 OFFCURVE",
"435 152 CURVE SMOOTH",
"502 95 OFFCURVE",
"584 66 OFFCURVE",
"683 66 CURVE SMOOTH",
"820 66 OFFCURVE",
"885 89 OFFCURVE",
"941 133 CURVE",
"1013 303 LINE",
"1101 290 LINE",
"1057 49 LINE",
"1024 48 OFFCURVE",
"998 40 OFFCURVE",
"950 25 CURVE SMOOTH",
"866 -3 OFFCURVE",
"798 -20 OFFCURVE",
"679 -20 CURVE SMOOTH",
"422 -20 OFFCURVE",
"233 100 OFFCURVE",
"137 309 CURVE SMOOTH",
"89 414 OFFCURVE",
"65 536 OFFCURVE",
"65 676 CURVE SMOOTH"
);
}
);
width = 1170;
}
);
note = Cdotaccent;
unicode = 010A;
},
{
glyphname = D;
layers = (
{
layerId = "73368993-97DB-45A8-8926-1DF7017D2006";
name = Light;
paths = (
{
closed = 1;
nodes = (
"245 94 LINE",
"245 1242 LINE",
"100 1262 LINE",
"100 1339 LINE",
"319 1339 LINE SMOOTH",
"356 1339 OFFCURVE",
"410 1341 OFFCURVE",
"481 1346 CURVE SMOOTH",
"550 1351 OFFCURVE",
"602 1353 OFFCURVE",
"637 1353 CURVE SMOOTH",
"1089 1353 OFFCURVE",
"1298 1114 OFFCURVE",
"1298 709 CURVE SMOOTH",
"1298 424 OFFCURVE",
"1179 197 OFFCURVE",
"978 77 CURVE SMOOTH",
"877 16 OFFCURVE",
"763 -14 OFFCURVE",
"634 -14 CURVE SMOOTH",
"590 -14 OFFCURVE",
"518 -9 OFFCURVE",
"495 -8 CURVE SMOOTH",
"428 -3 OFFCURVE",
"370 0 OFFCURVE",
"321 0 CURVE SMOOTH",
"90 0 LINE",
"90 77 LINE"
);
},
{
closed = 1;
nodes = (
"393 88 LINE",
"451 77 OFFCURVE",
"514 72 OFFCURVE",
"583 72 CURVE SMOOTH",
"636 73 LINE SMOOTH",
"832 77 OFFCURVE",
"989 171 OFFCURVE",
"1075 352 CURVE SMOOTH",
"1118 443 OFFCURVE",
"1139 551 OFFCURVE",
"1139 678 CURVE SMOOTH",
"1139 1071 OFFCURVE",
"956 1267 OFFCURVE",
"591 1267 CURVE SMOOTH",
"556 1267 OFFCURVE",
"508 1264 OFFCURVE",
"445 1259 CURVE SMOOTH",
"393 1256 LINE"
);
}
);
width = 1362;
}
);
note = D;
unicode = 0044;
},
{
glyphname = Eth;
layers = (
{
layerId = "73368993-97DB-45A8-8926-1DF7017D2006";
name = Light;
paths = (
{
closed = 1;
nodes = (
"245 740 LINE",
"245 1242 LINE",
"100 1262 LINE",
"100 1339 LINE",
"319 1339 LINE SMOOTH",
"356 1339 OFFCURVE",
"410 1341 OFFCURVE",
"481 1346 CURVE SMOOTH",
"550 1351 OFFCURVE",
"602 1353 OFFCURVE",
"637 1353 CURVE SMOOTH",
"1089 1353 OFFCURVE",
"1298 1114 OFFCURVE",
"1298 709 CURVE SMOOTH",
"1298 424 OFFCURVE",
"1179 197 OFFCURVE",
"978 77 CURVE SMOOTH",
"877 16 OFFCURVE",
"763 -14 OFFCURVE",
"634 -14 CURVE SMOOTH",
"590 -14 OFFCURVE",
"518 -9 OFFCURVE",
"495 -8 CURVE SMOOTH",
"428 -3 OFFCURVE",
"370 0 OFFCURVE",
"321 0 CURVE SMOOTH",
"90 0 LINE",
"90 77 LINE",
"245 94 LINE",
"245 658 LINE",
"106 658 LINE",
"106 740 LINE"
);
},
{
closed = 1;
nodes = (
"732 740 LINE",
"732 658 LINE",
"393 658 LINE",
"393 88 LINE",
"451 77 OFFCURVE",
"514 72 OFFCURVE",
"583 72 CURVE SMOOTH",
"636 73 LINE SMOOTH",
"832 77 OFFCURVE",
"989 171 OFFCURVE",
"1075 352 CURVE SMOOTH",
"1118 443 OFFCURVE",
"1139 551 OFFCURVE",
"1139 678 CURVE SMOOTH",
"1139 1071 OFFCURVE",
"956 1267 OFFCURVE",
"591 1267 CURVE SMOOTH",
"556 1267 OFFCURVE",
"508 1264 OFFCURVE",
"445 1259 CURVE SMOOTH",
"393 1256 LINE",
"393 740 LINE"
);
}
);
width = 1362;
}
);
note = Eth;
unicode = 00D0;
},
{
glyphname = Dcaron;
layers = (
{
layerId = "73368993-97DB-45A8-8926-1DF7017D2006";
name = Light;
paths = (
{
closed = 1;
nodes = (
"480 1770 LINE",
"701 1590 LINE",
"926 1770 LINE",
"986 1733 LINE",
"770 1489 LINE",
"633 1489 LINE",
"415 1731 LINE"
);
},
{
closed = 1;
nodes = (
"245 94 LINE",
"245 1242 LINE",
"100 1262 LINE",
"100 1339 LINE",
"319 1339 LINE SMOOTH",
"356 1339 OFFCURVE",
"410 1341 OFFCURVE",
"481 1346 CURVE SMOOTH",
"550 1351 OFFCURVE",
"602 1353 OFFCURVE",
"637 1353 CURVE SMOOTH",
"1089 1353 OFFCURVE",
"1298 1114 OFFCURVE",
"1298 709 CURVE SMOOTH",
"1298 424 OFFCURVE",
"1179 197 OFFCURVE",
"978 77 CURVE SMOOTH",
"877 16 OFFCURVE",
"763 -14 OFFCURVE",
"634 -14 CURVE SMOOTH",
"590 -14 OFFCURVE",
"518 -9 OFFCURVE",
"495 -8 CURVE SMOOTH",
"428 -3 OFFCURVE",
"370 0 OFFCURVE",
"321 0 CURVE SMOOTH",
"90 0 LINE",
"90 77 LINE"
);
},
{
closed = 1;
nodes = (
"393 88 LINE",
"451 77 OFFCURVE",
"514 72 OFFCURVE",
"583 72 CURVE SMOOTH",
"636 73 LINE SMOOTH",
"832 77 OFFCURVE",
"989 171 OFFCURVE",
"1075 352 CURVE SMOOTH",
"1118 443 OFFCURVE",
"1139 551 OFFCURVE",
"1139 678 CURVE SMOOTH",
"1139 1071 OFFCURVE",
"956 1267 OFFCURVE",
"591 1267 CURVE SMOOTH",
"556 1267 OFFCURVE",
"508 1264 OFFCURVE",
"445 1259 CURVE SMOOTH",
"393 1256 LINE"
);
}
);
width = 1362;
}
);
note = Dcaron;
unicode = 010E;
},
{
glyphname = Dcroat;
layers = (
{
layerId = "73368993-97DB-45A8-8926-1DF7017D2006";
name = Light;
paths = (
{
closed = 1;
nodes = (
"245 735 LINE",
"245 1242 LINE",
"100 1262 LINE",
"100 1339 LINE",
"319 1339 LINE SMOOTH",
"356 1339 OFFCURVE",
"410 1341 OFFCURVE",
"481 1346 CURVE SMOOTH",
"550 1351 OFFCURVE",
"602 1353 OFFCURVE",
"637 1353 CURVE SMOOTH",
"1089 1353 OFFCURVE",
"1298 1114 OFFCURVE",
"1298 709 CURVE SMOOTH",
"1298 424 OFFCURVE",
"1179 197 OFFCURVE",
"978 77 CURVE SMOOTH",
"877 16 OFFCURVE",
"763 -14 OFFCURVE",
"634 -14 CURVE SMOOTH",
"590 -14 OFFCURVE",
"518 -9 OFFCURVE",
"495 -8 CURVE SMOOTH",
"428 -3 OFFCURVE",
"370 0 OFFCURVE",
"321 0 CURVE SMOOTH",
"90 0 LINE",
"90 77 LINE",
"245 94 LINE",
"245 642 LINE",
"106 642 LINE",
"106 735 LINE"
);
},
{
closed = 1;
nodes = (
"732 735 LINE",
"732 642 LINE",
"393 642 LINE",
"393 88 LINE",
"451 77 OFFCURVE",
"514 72 OFFCURVE",
"583 72 CURVE SMOOTH",
"636 73 LINE SMOOTH",
"832 77 OFFCURVE",
"989 171 OFFCURVE",
"1075 352 CURVE SMOOTH",
"1118 443 OFFCURVE",
"1139 551 OFFCURVE",
"1139 678 CURVE SMOOTH",
"1139 1071 OFFCURVE",
"956 1267 OFFCURVE",
"591 1267 CURVE SMOOTH",
"556 1267 OFFCURVE",
"508 1264 OFFCURVE",
"445 1259 CURVE SMOOTH",
"393 1256 LINE",
"393 735 LINE"
);
}
);
width = 1362;
}
);
note = Dcroat;
unicode = 0110;
},
{
glyphname = E;
layers = (
{
layerId = "73368993-97DB-45A8-8926-1DF7017D2006";
name = Light;
paths = (
{
closed = 1;
nodes = (
"245 94 LINE",
"245 1242 LINE",
"94 1262 LINE",
"94 1339 LINE",
"986 1339 LINE",
"1010 1074 LINE",
"925 1074 LINE",
"876 1248 LINE",
"393 1256 LINE",
"393 731 LINE",
"725 737 LINE",
"747 886 LINE",
"839 886 LINE",
"839 488 LINE",
"747 488 LINE",
"725 642 LINE",
"393 647 LINE",
"393 92 LINE",
"945 106 LINE",
"1037 332 LINE",
"1122 304 LINE",
"1067 0 LINE",
"91 0 LINE",
"91 77 LINE"
);
}
);
width = 1170;
}
);
note = E;
unicode = 0045;
},
{
glyphname = Eacute;
layers = (
{
layerId = "73368993-97DB-45A8-8926-1DF7017D2006";
name = Light;
paths = (
{
closed = 1;
nodes = (
"792 1767 LINE",
"793 1767 LINE",
"893 1674 LINE",
"856 1626 OFFCURVE",
"759 1560 OFFCURVE",
"662 1508 CURVE SMOOTH",
"613 1481 OFFCURVE",
"574 1461 OFFCURVE",
"544 1448 CURVE",
"543 1448 LINE",
"493 1495 LINE"
);
},
{
closed = 1;
nodes = (
"245 94 LINE",
"245 1242 LINE",
"94 1262 LINE",
"94 1339 LINE",
"986 1339 LINE",
"1010 1074 LINE",
"925 1074 LINE",
"876 1248 LINE",
"393 1256 LINE",
"393 731 LINE",
"725 737 LINE",
"747 886 LINE",
"839 886 LINE",
"839 488 LINE",
"747 488 LINE",
"725 642 LINE",
"393 647 LINE",
"393 92 LINE",
"945 106 LINE",
"1037 332 LINE",
"1122 304 LINE",
"1067 0 LINE",
"91 0 LINE",
"91 77 LINE"
);
}
);
width = 1171;
}
);
note = Eacute;
unicode = 00C9;
},
{
glyphname = Ebreve;
layers = (
{
layerId = "73368993-97DB-45A8-8926-1DF7017D2006";
name = Light;
paths = (
{
closed = 1;
nodes = (
"324 1735 OFFCURVE",
"325 1747 OFFCURVE",
"326 1756 CURVE",
"408 1756 LINE",
"408 1747 OFFCURVE",
"409 1738 OFFCURVE",
"411 1731 CURVE",
"416 1682 OFFCURVE",
"442 1631 OFFCURVE",
"502 1599 CURVE SMOOTH",
"532 1583 OFFCURVE",
"570 1575 OFFCURVE",
"616 1575 CURVE SMOOTH",
"709 1575 OFFCURVE",
"767 1612 OFFCURVE",
"794 1659 CURVE SMOOTH",
"807 1682 OFFCURVE",
"815 1707 OFFCURVE",
"817 1732 CURVE",
"818 1739 OFFCURVE",
"819 1747 OFFCURVE",
"819 1756 CURVE",
"898 1756 LINE",
"899 1747 OFFCURVE",
"900 1735 OFFCURVE",
"900 1720 CURVE SMOOTH",
"900 1621 OFFCURVE",
"853 1538 OFFCURVE",
"767 1491 CURVE SMOOTH",
"724 1468 OFFCURVE",
"673 1456 OFFCURVE",
"615 1456 CURVE SMOOTH",
"494 1456 OFFCURVE",
"405 1505 OFFCURVE",
"359 1585 CURVE SMOOTH",
"336 1625 OFFCURVE",
"324 1670 OFFCURVE",
"324 1720 CURVE SMOOTH"
);
},
{
closed = 1;
nodes = (
"245 94 LINE",
"245 1242 LINE",
"94 1262 LINE",
"94 1339 LINE",
"986 1339 LINE",
"1010 1074 LINE",
"925 1074 LINE",
"876 1248 LINE",
"393 1256 LINE",
"393 731 LINE",
"725 737 LINE",
"747 886 LINE",
"839 886 LINE",
"839 488 LINE",
"747 488 LINE",
"725 642 LINE",
"393 647 LINE",
"393 92 LINE",
"945 106 LINE",
"1037 332 LINE",
"1122 304 LINE",
"1067 0 LINE",
"91 0 LINE",
"91 77 LINE"
);
}
);
width = 1171;
}
);
note = Ebreve;
unicode = 0114;
},
{
glyphname = Ecaron;
layers = (
{
layerId = "73368993-97DB-45A8-8926-1DF7017D2006";
name = Light;
paths = (
{
closed = 1;
nodes = (
"393 1770 LINE",
"614 1590 LINE",
"839 1770 LINE",
"899 1733 LINE",
"683 1489 LINE",
"546 1489 LINE",
"328 1731 LINE"
);
},
{
closed = 1;
nodes = (
"245 94 LINE",
"245 1242 LINE",
"94 1262 LINE",
"94 1339 LINE",
"986 1339 LINE",
"1010 1074 LINE",
"925 1074 LINE",
"876 1248 LINE",
"393 1256 LINE",
"393 731 LINE",
"725 737 LINE",
"747 886 LINE",
"839 886 LINE",
"839 488 LINE",
"747 488 LINE",
"725 642 LINE",
"393 647 LINE",
"393 92 LINE",
"945 106 LINE",
"1037 332 LINE",
"1122 304 LINE",
"1067 0 LINE",
"91 0 LINE",
"91 77 LINE"
);
}
);
width = 1171;
}
);
note = Ecaron;
unicode = 011A;
},
{
glyphname = Ecircumflex;
layers = (
{
layerId = "73368993-97DB-45A8-8926-1DF7017D2006";
name = Light;
paths = (
{
closed = 1;
nodes = (
"245 94 LINE",
"245 1242 LINE",
"94 1262 LINE",
"94 1339 LINE",
"986 1339 LINE",
"1010 1074 LINE",
"925 1074 LINE",
"876 1248 LINE",
"393 1256 LINE",
"393 731 LINE",
"725 737 LINE",
"747 886 LINE",
"839 886 LINE",
"839 488 LINE",
"747 488 LINE",
"725 642 LINE",
"393 647 LINE",
"393 92 LINE",
"945 106 LINE",
"1037 332 LINE",
"1122 304 LINE",
"1067 0 LINE",
"91 0 LINE",
"91 77 LINE"
);
},
{
closed = 1;
nodes = (
"543 1772 LINE",
"678 1772 LINE",
"911 1512 LINE",
"845 1472 LINE",
"611 1663 LINE",
"372 1472 LINE",
"312 1510 LINE"
);
}
);
width = 1170;
}
);
note = Ecircumflex;
unicode = 00CA;
},
{
glyphname = Edieresis;
layers = (
{
layerId = "73368993-97DB-45A8-8926-1DF7017D2006";
name = Light;
paths = (
{
closed = 1;
nodes = (
"301 1671 OFFCURVE",
"338 1726 OFFCURVE",
"405 1726 CURVE SMOOTH",
"406 1726 LINE SMOOTH",
"463 1726 OFFCURVE",
"501 1676 OFFCURVE",
"501 1621 CURVE SMOOTH",
"501 1554 OFFCURVE",
"461 1503 OFFCURVE",
"392 1503 CURVE SMOOTH",
"391 1503 LINE SMOOTH",
"336 1503 OFFCURVE",
"301 1547 OFFCURVE",
"301 1606 CURVE SMOOTH"
);
},
{
closed = 1;
nodes = (
"728 1671 OFFCURVE",
"767 1726 OFFCURVE",
"834 1726 CURVE SMOOTH",
"835 1726 LINE SMOOTH",
"894 1726 OFFCURVE",
"929 1676 OFFCURVE",
"929 1621 CURVE SMOOTH",
"929 1553 OFFCURVE",
"891 1503 OFFCURVE",
"820 1503 CURVE SMOOTH",
"819 1503 LINE SMOOTH",
"763 1503 OFFCURVE",
"728 1547 OFFCURVE",
"728 1606 CURVE SMOOTH"
);
},
{
closed = 1;
nodes = (
"245 94 LINE",
"245 1242 LINE",
"94 1262 LINE",
"94 1339 LINE",
"986 1339 LINE",
"1010 1074 LINE",
"925 1074 LINE",
"876 1248 LINE",
"393 1256 LINE",
"393 731 LINE",
"725 737 LINE",
"747 886 LINE",
"839 886 LINE",
"839 488 LINE",
"747 488 LINE",
"725 642 LINE",
"393 647 LINE",
"393 92 LINE",
"945 106 LINE",
"1037 332 LINE",
"1122 304 LINE",
"1067 0 LINE",
"91 0 LINE",
"91 77 LINE"
);
}
);
width = 1171;
}
);
note = Edieresis;
unicode = 00CB;
},
{
glyphname = Edotaccent;
layers = (
{
layerId = "73368993-97DB-45A8-8926-1DF7017D2006";
name = Light;
paths = (
{
closed = 1;
nodes = (
"514 1675 OFFCURVE",
"551 1729 OFFCURVE",
"618 1729 CURVE SMOOTH",
"619 1729 LINE SMOOTH",
"678 1729 OFFCURVE",
"714 1680 OFFCURVE",
"714 1624 CURVE SMOOTH",
"714 1556 OFFCURVE",
"676 1507 OFFCURVE",
"605 1507 CURVE SMOOTH",
"604 1507 LINE SMOOTH",
"549 1507 OFFCURVE",
"514 1551 OFFCURVE",
"514 1610 CURVE SMOOTH"
);
},
{
closed = 1;
nodes = (
"245 94 LINE",
"245 1242 LINE",
"94 1262 LINE",
"94 1339 LINE",
"986 1339 LINE",
"1010 1074 LINE",
"925 1074 LINE",
"876 1248 LINE",
"393 1256 LINE",
"393 731 LINE",
"725 737 LINE",
"747 886 LINE",
"839 886 LINE",
"839 488 LINE",
"747 488 LINE",
"725 642 LINE",
"393 647 LINE",
"393 92 LINE",
"945 106 LINE",
"1037 332 LINE",
"1122 304 LINE",
"1067 0 LINE",
"91 0 LINE",
"91 77 LINE"
);
}
);
width = 1171;
}
);
note = Edotaccent;
unicode = 0116;
},
{
glyphname = Egrave;
layers = (
{
layerId = "73368993-97DB-45A8-8926-1DF7017D2006";
name = Light;
paths = (
{
closed = 1;
nodes = (
"428 1767 LINE",
"429 1767 LINE",
"726 1495 LINE",
"678 1448 LINE",
"677 1448 LINE",
"614 1475 OFFCURVE",
"508 1532 OFFCURVE",
"421 1593 CURVE SMOOTH",
"377 1623 OFFCURVE",
"346 1650 OFFCURVE",
"327 1674 CURVE"
);
},
{
closed = 1;
nodes = (
"245 94 LINE",
"245 1242 LINE",
"94 1262 LINE",
"94 1339 LINE",
"986 1339 LINE",
"1010 1074 LINE",
"925 1074 LINE",
"876 1248 LINE",
"393 1256 LINE",
"393 731 LINE",
"725 737 LINE",
"747 886 LINE",
"839 886 LINE",
"839 488 LINE",
"747 488 LINE",
"725 642 LINE",
"393 647 LINE",
"393 92 LINE",
"945 106 LINE",
"1037 332 LINE",
"1122 304 LINE",
"1067 0 LINE",
"91 0 LINE",
"91 77 LINE"
);
}
);
width = 1171;
}
);
note = Egrave;
unicode = 00C8;
},
{
glyphname = Emacron;
layers = (
{
layerId = "73368993-97DB-45A8-8926-1DF7017D2006";
name = Light;
paths = (
{
closed = 1;
nodes = (
"855 1659 LINE",
"855 1548 LINE",
"380 1548 LINE",
"380 1659 LINE"
);
},
{
closed = 1;
nodes = (
"245 94 LINE",
"245 1242 LINE",
"94 1262 LINE",
"94 1339 LINE",
"986 1339 LINE",
"1010 1074 LINE",
"925 1074 LINE",
"876 1248 LINE",
"393 1256 LINE",
"393 731 LINE",
"725 737 LINE",
"747 886 LINE",
"839 886 LINE",
"839 488 LINE",
"747 488 LINE",
"725 642 LINE",
"393 647 LINE",
"393 92 LINE",
"945 106 LINE",
"1037 332 LINE",
"1122 304 LINE",
"1067 0 LINE",
"91 0 LINE",
"91 77 LINE"
);
}
);
width = 1171;
}
);
note = Emacron;
unicode = 0112;
},
{
glyphname = Eogonek;
layers = (
{
layerId = "73368993-97DB-45A8-8926-1DF7017D2006";
name = Light;
paths = (
{
closed = 1;
nodes = (
"245 94 LINE",
"245 1242 LINE",
"94 1262 LINE",
"94 1339 LINE",
"986 1339 LINE",
"1010 1074 LINE",
"925 1074 LINE",
"876 1248 LINE",
"393 1256 LINE",
"393 731 LINE",
"725 737 LINE",
"747 886 LINE",
"839 886 LINE",
"839 488 LINE",
"747 488 LINE",
"725 642 LINE",
"393 647 LINE",
"393 92 LINE",
"945 106 LINE",
"1037 332 LINE",
"1122 304 LINE",
"1067 0 LINE",
"1043 0 LINE",
"966 -15 OFFCURVE",
"878 -74 OFFCURVE",
"826 -141 CURVE SMOOTH",
"800 -175 OFFCURVE",
"787 -205 OFFCURVE",
"787 -232 CURVE SMOOTH",
"787 -312 OFFCURVE",
"844 -348 OFFCURVE",
"927 -348 CURVE SMOOTH",
"971 -348 OFFCURVE",
"1024 -333 OFFCURVE",
"1067 -312 CURVE",
"1067 -387 LINE",
"1018 -424 OFFCURVE",
"938 -449 OFFCURVE",
"863 -449 CURVE SMOOTH",
"739 -449 OFFCURVE",
"644 -399 OFFCURVE",
"644 -280 CURVE SMOOTH",
"644 -215 OFFCURVE",
"694 -137 OFFCURVE",
"773 -73 CURVE SMOOTH",
"812 -42 OFFCURVE",
"854 -17 OFFCURVE",
"898 0 CURVE",
"91 0 LINE",
"91 77 LINE"
);
}
);
width = 1171;
}
);
note = Eogonek;
unicode = 0118;
},
{
glyphname = F;
layers = (
{
layerId = "73368993-97DB-45A8-8926-1DF7017D2006";
name = Light;
paths = (
{
closed = 1;
nodes = (
"245 93 LINE",
"245 1242 LINE",
"87 1262 LINE",
"87 1339 LINE",
"1030 1339 LINE",
"1049 1043 LINE",
"950 1043 LINE",
"901 1248 LINE",
"393 1256 LINE",
"393 722 LINE",
"753 728 LINE",
"783 875 LINE",
"867 875 LINE",
"867 476 LINE",
"783 476 LINE",
"753 628 LINE",
"393 635 LINE",
"393 94 LINE",
"675 77 LINE",
"675 0 LINE",
"98 0 LINE",
"98 77 LINE"
);
}
);
width = 1112;
}
);
note = F;
unicode = 0046;
},
{
glyphname = G;
layers = (
{
layerId = "73368993-97DB-45A8-8926-1DF7017D2006";
name = Light;
paths = (
{
closed = 1;
nodes = (
"87 941 OFFCURVE",
"214 1159 OFFCURVE",
"419 1270 CURVE SMOOTH",
"521 1325 OFFCURVE",
"635 1353 OFFCURVE",
"762 1353 CURVE SMOOTH",
"921 1353 OFFCURVE",
"1042 1328 OFFCURVE",
"1170 1297 CURVE",
"1155 998 LINE",
"1061 998 LINE",
"1022 1206 LINE",
"982 1237 OFFCURVE",
"894 1267 OFFCURVE",
"745 1267 CURVE SMOOTH",
"557 1267 OFFCURVE",
"404 1180 OFFCURVE",
"320 1008 CURVE SMOOTH",
"277 921 OFFCURVE",
"256 817 OFFCURVE",
"256 694 CURVE SMOOTH",
"256 474 OFFCURVE",
"324 272 OFFCURVE",
"464 155 CURVE SMOOTH",
"533 96 OFFCURVE",
"618 67 OFFCURVE",
"718 67 CURVE SMOOTH",
"845 67 OFFCURVE",
"968 99 OFFCURVE",
"1032 150 CURVE",
"1032 560 LINE",
"782 578 LINE",
"782 673 LINE",
"1294 673 LINE",
"1294 578 LINE",
"1184 560 LINE",
"1184 72 LINE",
"1152 71 OFFCURVE",
"1119 61 OFFCURVE",
"1058 42 CURVE SMOOTH",
"935 3 OFFCURVE",
"840 -20 OFFCURVE",
"707 -20 CURVE SMOOTH",
"452 -20 OFFCURVE",
"261 102 OFFCURVE",
"162 305 CURVE SMOOTH",
"112 406 OFFCURVE",
"87 521 OFFCURVE",
"87 648 CURVE SMOOTH"
);
}
);
width = 1329;
}
);
note = G;
unicode = 0047;
},
{
glyphname = Gbreve;
layers = (
{
layerId = "73368993-97DB-45A8-8926-1DF7017D2006";
name = Light;
paths = (
{
closed = 1;
nodes = (
"434 1735 OFFCURVE",
"435 1747 OFFCURVE",
"436 1756 CURVE",
"518 1756 LINE",
"518 1747 OFFCURVE",
"519 1738 OFFCURVE",
"521 1731 CURVE",
"526 1682 OFFCURVE",
"552 1631 OFFCURVE",
"612 1599 CURVE SMOOTH",
"642 1583 OFFCURVE",
"680 1575 OFFCURVE",
"726 1575 CURVE SMOOTH",
"819 1575 OFFCURVE",
"877 1612 OFFCURVE",
"904 1659 CURVE SMOOTH",
"917 1682 OFFCURVE",
"925 1707 OFFCURVE",
"927 1732 CURVE",
"928 1739 OFFCURVE",
"929 1747 OFFCURVE",
"929 1756 CURVE",
"1008 1756 LINE",
"1009 1747 OFFCURVE",
"1010 1735 OFFCURVE",
"1010 1720 CURVE SMOOTH",
"1010 1621 OFFCURVE",
"963 1538 OFFCURVE",
"877 1491 CURVE SMOOTH",
"834 1468 OFFCURVE",
"783 1456 OFFCURVE",
"725 1456 CURVE SMOOTH",
"604 1456 OFFCURVE",
"515 1505 OFFCURVE",
"469 1585 CURVE SMOOTH",
"446 1625 OFFCURVE",
"434 1670 OFFCURVE",
"434 1720 CURVE SMOOTH"
);
},
{
closed = 1;
nodes = (
"90 941 OFFCURVE",
"217 1159 OFFCURVE",
"422 1270 CURVE SMOOTH",
"524 1325 OFFCURVE",
"638 1353 OFFCURVE",
"765 1353 CURVE SMOOTH",
"924 1353 OFFCURVE",
"1045 1328 OFFCURVE",
"1173 1297 CURVE",
"1158 998 LINE",
"1064 998 LINE",
"1025 1206 LINE",
"985 1237 OFFCURVE",
"897 1267 OFFCURVE",
"748 1267 CURVE SMOOTH",
"560 1267 OFFCURVE",
"407 1180 OFFCURVE",
"323 1008 CURVE SMOOTH",
"280 921 OFFCURVE",
"259 817 OFFCURVE",
"259 694 CURVE SMOOTH",
"259 474 OFFCURVE",
"327 272 OFFCURVE",
"467 155 CURVE SMOOTH",
"536 96 OFFCURVE",
"621 67 OFFCURVE",
"721 67 CURVE SMOOTH",
"848 67 OFFCURVE",
"971 99 OFFCURVE",
"1035 150 CURVE",
"1035 560 LINE",
"785 578 LINE",
"785 673 LINE",
"1297 673 LINE",
"1297 578 LINE",
"1187 560 LINE",
"1187 72 LINE",
"1155 71 OFFCURVE",
"1122 61 OFFCURVE",
"1061 42 CURVE SMOOTH",
"938 3 OFFCURVE",
"843 -20 OFFCURVE",
"710 -20 CURVE SMOOTH",
"455 -20 OFFCURVE",
"264 102 OFFCURVE",
"165 305 CURVE SMOOTH",
"115 406 OFFCURVE",
"90 521 OFFCURVE",
"90 648 CURVE SMOOTH"
);
}
);
width = 1332;
}
);
note = Gbreve;
unicode = 011E;
},
{
glyphname = Gcircumflex;
layers = (
{
layerId = "73368993-97DB-45A8-8926-1DF7017D2006";
name = Light;
paths = (
{
closed = 1;
nodes = (
"87 941 OFFCURVE",
"214 1159 OFFCURVE",
"419 1270 CURVE SMOOTH",
"521 1325 OFFCURVE",
"635 1353 OFFCURVE",
"762 1353 CURVE SMOOTH",
"921 1353 OFFCURVE",
"1042 1328 OFFCURVE",
"1170 1297 CURVE",
"1155 998 LINE",
"1061 998 LINE",
"1022 1206 LINE",
"982 1237 OFFCURVE",
"894 1267 OFFCURVE",
"745 1267 CURVE SMOOTH",
"557 1267 OFFCURVE",
"404 1180 OFFCURVE",
"320 1008 CURVE SMOOTH",
"277 921 OFFCURVE",
"256 817 OFFCURVE",
"256 694 CURVE SMOOTH",
"256 474 OFFCURVE",
"324 272 OFFCURVE",
"464 155 CURVE SMOOTH",
"533 96 OFFCURVE",
"618 67 OFFCURVE",
"718 67 CURVE SMOOTH",
"845 67 OFFCURVE",
"968 99 OFFCURVE",
"1032 150 CURVE",
"1032 560 LINE",
"782 578 LINE",
"782 673 LINE",
"1294 673 LINE",
"1294 578 LINE",
"1184 560 LINE",
"1184 72 LINE",
"1152 71 OFFCURVE",
"1119 61 OFFCURVE",
"1058 42 CURVE SMOOTH",
"935 3 OFFCURVE",
"840 -20 OFFCURVE",
"707 -20 CURVE SMOOTH",
"452 -20 OFFCURVE",
"261 102 OFFCURVE",
"162 305 CURVE SMOOTH",
"112 406 OFFCURVE",
"87 521 OFFCURVE",
"87 648 CURVE SMOOTH"
);
},
{
closed = 1;
nodes = (
"653 1772 LINE",
"788 1772 LINE",
"1021 1512 LINE",
"955 1472 LINE",
"721 1663 LINE",
"482 1472 LINE",
"422 1510 LINE"
);
}
);
width = 1329;
}
);
note = Gcircumflex;
unicode = 011C;
},
{
glyphname = Gcommaaccent;
layers = (
{
layerId = "73368993-97DB-45A8-8926-1DF7017D2006";
name = Light;
paths = (
{
closed = 1;
nodes = (
"681 -490 LINE",
"634 -457 LINE",
"634 -445 LINE",
"669 -426 OFFCURVE",
"695 -371 OFFCURVE",
"695 -316 CURVE SMOOTH",
"695 -283 OFFCURVE",
"680 -266 OFFCURVE",
"657 -251 CURVE",
"634 -234 OFFCURVE",
"622 -218 OFFCURVE",
"622 -183 CURVE SMOOTH",
"622 -143 OFFCURVE",
"644 -120 OFFCURVE",
"669 -111 CURVE",
"681 -106 OFFCURVE",
"692 -104 OFFCURVE",
"702 -104 CURVE SMOOTH",
"710 -104 LINE SMOOTH",
"777 -104 OFFCURVE",
"819 -157 OFFCURVE",
"819 -249 CURVE SMOOTH",
"819 -337 OFFCURVE",
"775 -410 OFFCURVE",
"731 -453 CURVE SMOOTH",
"709 -474 OFFCURVE",
"693 -487 OFFCURVE",
"683 -490 CURVE"
);
},
{
closed = 1;
nodes = (
"93 941 OFFCURVE",
"220 1159 OFFCURVE",
"425 1270 CURVE SMOOTH",
"527 1325 OFFCURVE",
"641 1353 OFFCURVE",
"768 1353 CURVE SMOOTH",
"927 1353 OFFCURVE",
"1048 1328 OFFCURVE",
"1176 1297 CURVE",
"1161 998 LINE",
"1067 998 LINE",
"1028 1206 LINE",
"988 1237 OFFCURVE",
"900 1267 OFFCURVE",
"751 1267 CURVE SMOOTH",
"563 1267 OFFCURVE",
"410 1180 OFFCURVE",
"326 1008 CURVE SMOOTH",
"283 921 OFFCURVE",
"262 817 OFFCURVE",
"262 694 CURVE SMOOTH",
"262 474 OFFCURVE",
"330 272 OFFCURVE",
"470 155 CURVE SMOOTH",
"539 96 OFFCURVE",
"624 67 OFFCURVE",
"724 67 CURVE SMOOTH",
"851 67 OFFCURVE",
"974 99 OFFCURVE",
"1038 150 CURVE",
"1038 560 LINE",
"788 578 LINE",
"788 673 LINE",
"1300 673 LINE",
"1300 578 LINE",
"1190 560 LINE",
"1190 72 LINE",
"1158 71 OFFCURVE",
"1125 61 OFFCURVE",
"1064 42 CURVE SMOOTH",
"941 3 OFFCURVE",
"846 -20 OFFCURVE",
"713 -20 CURVE SMOOTH",
"458 -20 OFFCURVE",
"267 102 OFFCURVE",
"168 305 CURVE SMOOTH",
"118 406 OFFCURVE",
"93 521 OFFCURVE",
"93 648 CURVE SMOOTH"
);
}
);
width = 1336;
}
);
note = Gcommaaccent;
unicode = 0122;
},
{
glyphname = Gdotaccent;
layers = (
{
layerId = "73368993-97DB-45A8-8926-1DF7017D2006";
name = Light;
paths = (
{
closed = 1;
nodes = (
"624 1675 OFFCURVE",
"661 1729 OFFCURVE",
"728 1729 CURVE SMOOTH",
"729 1729 LINE SMOOTH",
"788 1729 OFFCURVE",
"824 1680 OFFCURVE",
"824 1624 CURVE SMOOTH",
"824 1556 OFFCURVE",
"786 1507 OFFCURVE",
"715 1507 CURVE SMOOTH",
"714 1507 LINE SMOOTH",
"659 1507 OFFCURVE",
"624 1551 OFFCURVE",
"624 1610 CURVE SMOOTH"
);
},
{
closed = 1;
nodes = (
"90 941 OFFCURVE",
"217 1159 OFFCURVE",
"422 1270 CURVE SMOOTH",
"524 1325 OFFCURVE",
"638 1353 OFFCURVE",
"765 1353 CURVE SMOOTH",
"924 1353 OFFCURVE",
"1045 1328 OFFCURVE",
"1173 1297 CURVE",
"1158 998 LINE",
"1064 998 LINE",
"1025 1206 LINE",
"985 1237 OFFCURVE",
"897 1267 OFFCURVE",
"748 1267 CURVE SMOOTH",
"560 1267 OFFCURVE",
"407 1180 OFFCURVE",
"323 1008 CURVE SMOOTH",
"280 921 OFFCURVE",
"259 817 OFFCURVE",
"259 694 CURVE SMOOTH",
"259 474 OFFCURVE",
"327 272 OFFCURVE",
"467 155 CURVE SMOOTH",
"536 96 OFFCURVE",
"621 67 OFFCURVE",
"721 67 CURVE SMOOTH",
"848 67 OFFCURVE",
"971 99 OFFCURVE",
"1035 150 CURVE",
"1035 560 LINE",
"785 578 LINE",
"785 673 LINE",
"1297 673 LINE",
"1297 578 LINE",
"1187 560 LINE",
"1187 72 LINE",
"1155 71 OFFCURVE",
"1122 61 OFFCURVE",
"1061 42 CURVE SMOOTH",
"938 3 OFFCURVE",
"843 -20 OFFCURVE",
"710 -20 CURVE SMOOTH",
"455 -20 OFFCURVE",
"264 102 OFFCURVE",
"165 305 CURVE SMOOTH",
"115 406 OFFCURVE",
"90 521 OFFCURVE",
"90 648 CURVE SMOOTH"
);
}
);
width = 1332;
}
);
note = Gdotaccent;
unicode = 0120;
},
{
glyphname = H;
layers = (
{
layerId = "73368993-97DB-45A8-8926-1DF7017D2006";
name = Light;
paths = (
{
closed = 1;
nodes = (
"250 94 LINE",
"250 1242 LINE",
"102 1262 LINE",
"102 1339 LINE",
"555 1339 LINE",
"555 1262 LINE",
"399 1243 LINE",
"399 736 LINE",
"1086 736 LINE",
"1086 1242 LINE",
"936 1262 LINE",
"936 1339 LINE",
"1383 1339 LINE",
"1383 1262 LINE",
"1236 1242 LINE",
"1236 94 LINE",
"1383 77 LINE",
"1383 0 LINE",
"935 0 LINE",
"935 77 LINE",
"1086 94 LINE",
"1086 641 LINE",
"399 641 LINE",
"399 93 LINE",
"556 77 LINE",
"556 0 LINE",
"97 0 LINE",
"97 77 LINE"
);
}
);
width = 1485;
}
);
note = H;
unicode = 0048;
},
{
glyphname = Hbar;
layers = (
{
layerId = "73368993-97DB-45A8-8926-1DF7017D2006";
name = Light;
paths = (
{
closed = 1;
nodes = (
"250 1000 LINE",
"250 1242 LINE",
"102 1262 LINE",
"102 1340 LINE",
"554 1340 LINE",
"554 1262 LINE",
"397 1242 LINE",
"397 1000 LINE",
"1089 1000 LINE",
"1089 1242 LINE",
"938 1262 LINE",
"938 1340 LINE",
"1383 1340 LINE",
"1383 1262 LINE",
"1236 1242 LINE",
"1236 1000 LINE",
"1441 1000 LINE",
"1441 917 LINE",
"1236 917 LINE",
"1236 97 LINE",
"1383 76 LINE",
"1383 1 LINE",
"938 1 LINE",
"938 76 LINE",
"1089 97 LINE",
"1089 556 LINE",
"397 556 LINE",
"397 94 LINE",
"554 78 LINE",
"554 0 LINE",
"97 0 LINE",
"97 78 LINE",
"250 94 LINE",
"250 917 LINE",
"44 917 LINE",
"44 1000 LINE"
);
},
{
closed = 1;
nodes = (
"1089 917 LINE",
"397 917 LINE",
"397 649 LINE",
"1089 649 LINE"
);
}
);
width = 1485;
}
);
note = Hbar;
unicode = 0126;
},
{
glyphname = Hcircumflex;
layers = (
{
layerId = "73368993-97DB-45A8-8926-1DF7017D2006";
name = Light;
paths = (
{
closed = 1;
nodes = (
"250 94 LINE",
"250 1242 LINE",
"102 1262 LINE",
"102 1339 LINE",
"555 1339 LINE",
"555 1262 LINE",
"399 1243 LINE",
"399 736 LINE",
"1086 736 LINE",
"1086 1242 LINE",
"936 1262 LINE",
"936 1339 LINE",
"1383 1339 LINE",
"1383 1262 LINE",
"1236 1242 LINE",
"1236 94 LINE",
"1383 77 LINE",
"1383 0 LINE",
"935 0 LINE",
"935 77 LINE",
"1086 94 LINE",
"1086 641 LINE",
"399 641 LINE",
"399 93 LINE",
"556 77 LINE",
"556 0 LINE",
"97 0 LINE",
"97 77 LINE"
);
},
{
closed = 1;
nodes = (
"674 1772 LINE",
"809 1772 LINE",
"1042 1512 LINE",
"976 1472 LINE",
"742 1663 LINE",
"503 1472 LINE",
"443 1510 LINE"
);
}
);
width = 1485;
}
);
note = Hcircumflex;
unicode = 0124;
},
{
glyphname = I;
layers = (
{
layerId = "73368993-97DB-45A8-8926-1DF7017D2006";
name = Light;
paths = (
{
closed = 1;
nodes = (
"283 94 LINE",
"283 1242 LINE",
"107 1262 LINE",
"107 1339 LINE",
"608 1339 LINE",
"608 1262 LINE",
"433 1243 LINE",
"433 94 LINE",
"608 77 LINE",
"608 0 LINE",
"107 0 LINE",
"107 77 LINE"
);
}
);
width = 716;
}
);
note = I;
unicode = 0049;
},
{
glyphname = IJ;
layers = (
{
layerId = "73368993-97DB-45A8-8926-1DF7017D2006";
name = Light;
paths = (
{
closed = 1;
nodes = (
"283 94 LINE",
"283 1242 LINE",
"107 1262 LINE",
"107 1339 LINE",
"608 1339 LINE",
"608 1262 LINE",
"433 1243 LINE",
"433 94 LINE",
"608 77 LINE",
"608 0 LINE",
"107 0 LINE",
"107 77 LINE"
);
},
{
closed = 1;
nodes = (
"713 -247 LINE",
"825 -216 OFFCURVE",
"917 -133 OFFCURVE",
"954 -16 CURVE SMOOTH",
"969 33 OFFCURVE",
"979 89 OFFCURVE",
"984 152 CURVE SMOOTH",
"989 214 OFFCURVE",
"991 315 OFFCURVE",
"991 456 CURVE SMOOTH",
"991 1241 LINE",
"810 1262 LINE",
"810 1339 LINE",
"1312 1339 LINE",
"1312 1262 LINE",
"1140 1241 LINE",
"1140 495 LINE",
"1140 385 LINE SMOOTH",
"1140 216 OFFCURVE",
"1137 119 OFFCURVE",
"1121 38 CURVE SMOOTH",
"1094 -94 OFFCURVE",
"1014 -193 OFFCURVE",
"912 -252 CURVE SMOOTH",
"861 -282 OFFCURVE",
"808 -302 OFFCURVE",
"753 -312 CURVE"
);
}
);
width = 1391;
}
);
note = IJ;
unicode = 0132;
},
{
glyphname = Iacute;
layers = (
{
layerId = "73368993-97DB-45A8-8926-1DF7017D2006";
name = Light;
paths = (
{
closed = 1;
nodes = (
"283 94 LINE",
"283 1242 LINE",
"107 1262 LINE",
"107 1339 LINE",
"608 1339 LINE",
"608 1262 LINE",
"433 1243 LINE",
"433 94 LINE",
"608 77 LINE",
"608 0 LINE",
"107 0 LINE",
"107 77 LINE"
);
},
{
closed = 1;
nodes = (
"540 1767 LINE",
"541 1767 LINE",
"641 1674 LINE",
"604 1626 OFFCURVE",
"507 1560 OFFCURVE",
"410 1508 CURVE SMOOTH",
"361 1481 OFFCURVE",
"322 1461 OFFCURVE",
"292 1448 CURVE",
"291 1448 LINE",
"241 1495 LINE"
);
}
);
width = 716;
}
);
note = Iacute;
unicode = 00CD;
},
{
glyphname = Ibreve;
layers = (
{
layerId = "73368993-97DB-45A8-8926-1DF7017D2006";
name = Light;
paths = (
{
closed = 1;
nodes = (
"283 94 LINE",
"283 1242 LINE",
"107 1262 LINE",
"107 1339 LINE",
"608 1339 LINE",
"608 1262 LINE",
"433 1243 LINE",
"433 94 LINE",
"608 77 LINE",
"608 0 LINE",
"107 0 LINE",
"107 77 LINE"
);
},
{
closed = 1;
nodes = (
"71 1735 OFFCURVE",
"72 1747 OFFCURVE",
"73 1756 CURVE",
"155 1756 LINE",
"155 1747 OFFCURVE",
"156 1738 OFFCURVE",
"158 1731 CURVE",
"163 1682 OFFCURVE",
"189 1631 OFFCURVE",
"249 1599 CURVE SMOOTH",
"279 1583 OFFCURVE",
"317 1575 OFFCURVE",
"363 1575 CURVE SMOOTH",
"456 1575 OFFCURVE",
"514 1612 OFFCURVE",
"541 1659 CURVE SMOOTH",
"554 1682 OFFCURVE",
"562 1707 OFFCURVE",
"564 1732 CURVE",
"565 1739 OFFCURVE",
"566 1747 OFFCURVE",
"566 1756 CURVE",
"645 1756 LINE",
"646 1747 OFFCURVE",
"647 1735 OFFCURVE",
"647 1720 CURVE SMOOTH",
"647 1621 OFFCURVE",
"600 1538 OFFCURVE",
"514 1491 CURVE SMOOTH",
"471 1468 OFFCURVE",
"420 1456 OFFCURVE",
"362 1456 CURVE SMOOTH",
"241 1456 OFFCURVE",
"152 1505 OFFCURVE",
"106 1585 CURVE SMOOTH",
"83 1625 OFFCURVE",
"71 1670 OFFCURVE",
"71 1720 CURVE SMOOTH"
);
}
);
width = 716;
}
);
note = Ibreve;
unicode = 012C;
},
{
glyphname = Icircumflex;
layers = (
{
layerId = "73368993-97DB-45A8-8926-1DF7017D2006";
name = Light;
paths = (
{
closed = 1;
nodes = (
"283 94 LINE",
"283 1242 LINE",
"107 1262 LINE",
"107 1339 LINE",
"608 1339 LINE",
"608 1262 LINE",
"433 1243 LINE",
"433 94 LINE",
"608 77 LINE",
"608 0 LINE",
"107 0 LINE",
"107 77 LINE"
);
},
{
closed = 1;
nodes = (
"292 1772 LINE",
"427 1772 LINE",
"660 1512 LINE",
"594 1472 LINE",
"360 1663 LINE",
"121 1472 LINE",
"61 1510 LINE"
);
}
);
width = 716;
}
);
note = Icircumflex;
unicode = 00CE;
},
{
glyphname = Idieresis;
layers = (
{
layerId = "73368993-97DB-45A8-8926-1DF7017D2006";
name = Light;
paths = (
{
closed = 1;
nodes = (
"283 94 LINE",
"283 1242 LINE",
"107 1262 LINE",
"107 1339 LINE",
"608 1339 LINE",
"608 1262 LINE",
"433 1243 LINE",
"433 94 LINE",
"608 77 LINE",
"608 0 LINE",
"107 0 LINE",
"107 77 LINE"
);
},
{
closed = 1;
nodes = (
"48 1671 OFFCURVE",
"85 1726 OFFCURVE",
"152 1726 CURVE SMOOTH",
"153 1726 LINE SMOOTH",
"210 1726 OFFCURVE",
"248 1676 OFFCURVE",
"248 1621 CURVE SMOOTH",
"248 1554 OFFCURVE",
"208 1503 OFFCURVE",
"139 1503 CURVE SMOOTH",
"138 1503 LINE SMOOTH",
"83 1503 OFFCURVE",
"48 1547 OFFCURVE",
"48 1606 CURVE SMOOTH"
);
},
{
closed = 1;
nodes = (
"475 1671 OFFCURVE",
"514 1726 OFFCURVE",
"581 1726 CURVE SMOOTH",
"582 1726 LINE SMOOTH",
"641 1726 OFFCURVE",
"676 1676 OFFCURVE",
"676 1621 CURVE SMOOTH",
"676 1553 OFFCURVE",
"638 1503 OFFCURVE",
"567 1503 CURVE SMOOTH",
"566 1503 LINE SMOOTH",
"510 1503 OFFCURVE",
"475 1547 OFFCURVE",
"475 1606 CURVE SMOOTH"
);
}
);
width = 716;
}
);
note = Idieresis;
unicode = 00CF;
},
{
glyphname = Idotaccent;
layers = (
{
layerId = "73368993-97DB-45A8-8926-1DF7017D2006";
name = Light;
paths = (
{
closed = 1;
nodes = (
"283 94 LINE",
"283 1242 LINE",
"107 1262 LINE",
"107 1339 LINE",
"608 1339 LINE",
"608 1262 LINE",
"433 1243 LINE",
"433 94 LINE",
"608 77 LINE",
"608 0 LINE",
"107 0 LINE",
"107 77 LINE"
);
},
{
closed = 1;
nodes = (
"262 1675 OFFCURVE",
"299 1729 OFFCURVE",
"366 1729 CURVE SMOOTH",
"367 1729 LINE SMOOTH",
"426 1729 OFFCURVE",
"462 1680 OFFCURVE",
"462 1624 CURVE SMOOTH",
"462 1556 OFFCURVE",
"424 1507 OFFCURVE",
"353 1507 CURVE SMOOTH",
"352 1507 LINE SMOOTH",
"297 1507 OFFCURVE",
"262 1551 OFFCURVE",
"262 1610 CURVE SMOOTH"
);
}
);
width = 716;
}
);
note = Idotaccent;
unicode = 0130;
},
{
glyphname = Igrave;
layers = (
{
layerId = "73368993-97DB-45A8-8926-1DF7017D2006";
name = Light;
paths = (
{
closed = 1;
nodes = (
"283 94 LINE",
"283 1242 LINE",
"107 1262 LINE",
"107 1339 LINE",
"608 1339 LINE",
"608 1262 LINE",
"433 1243 LINE",
"433 94 LINE",
"608 77 LINE",
"608 0 LINE",
"107 0 LINE",
"107 77 LINE"
);
},
{
closed = 1;
nodes = (
"204 1767 LINE",
"205 1767 LINE",
"502 1495 LINE",
"454 1448 LINE",
"453 1448 LINE",
"390 1475 OFFCURVE",
"284 1532 OFFCURVE",
"197 1593 CURVE SMOOTH",
"153 1623 OFFCURVE",
"122 1650 OFFCURVE",
"103 1674 CURVE"
);
}
);
width = 716;
}
);
note = Igrave;
unicode = 00CC;
},
{
glyphname = Imacron;
layers = (
{
layerId = "73368993-97DB-45A8-8926-1DF7017D2006";
name = Light;
paths = (
{
closed = 1;
nodes = (
"283 94 LINE",
"283 1242 LINE",
"107 1262 LINE",
"107 1339 LINE",
"608 1339 LINE",
"608 1262 LINE",
"433 1243 LINE",
"433 94 LINE",
"608 77 LINE",
"608 0 LINE",
"107 0 LINE",
"107 77 LINE"
);
},
{
closed = 1;
nodes = (
"603 1659 LINE",
"603 1548 LINE",
"128 1548 LINE",
"128 1659 LINE"
);
}
);
width = 716;
}
);
note = Imacron;
unicode = 012A;
},
{
glyphname = Iogonek;
layers = (
{
layerId = "73368993-97DB-45A8-8926-1DF7017D2006";
name = Light;
paths = (
{
closed = 1;
nodes = (
"283 94 LINE",
"283 1242 LINE",
"107 1262 LINE",
"107 1339 LINE",
"608 1339 LINE",
"608 1262 LINE",
"433 1243 LINE",
"433 94 LINE",
"608 77 LINE",
"608 0 LINE",
"451 0 LINE",
"378 -35 OFFCURVE",
"309 -91 OFFCURVE",
"272 -150 CURVE SMOOTH",
"253 -180 OFFCURVE",
"244 -207 OFFCURVE",
"244 -232 CURVE SMOOTH",
"244 -312 OFFCURVE",
"301 -348 OFFCURVE",
"384 -348 CURVE SMOOTH",
"428 -348 OFFCURVE",
"481 -333 OFFCURVE",
"524 -312 CURVE",
"524 -387 LINE",
"475 -424 OFFCURVE",
"395 -449 OFFCURVE",
"320 -449 CURVE SMOOTH",
"196 -449 OFFCURVE",
"101 -399 OFFCURVE",
"101 -280 CURVE SMOOTH",
"101 -216 OFFCURVE",
"151 -138 OFFCURVE",
"224 -74 CURVE SMOOTH",
"261 -43 OFFCURVE",
"299 -18 OFFCURVE",
"338 0 CURVE",
"107 0 LINE",
"107 77 LINE"
);
}
);
width = 716;
}
);
note = Iogonek;
unicode = 012E;
},
{
glyphname = Itilde;
layers = (
{
layerId = "73368993-97DB-45A8-8926-1DF7017D2006";
name = Light;
paths = (
{
closed = 1;
nodes = (
"283 94 LINE",
"283 1242 LINE",
"107 1262 LINE",
"107 1339 LINE",
"608 1339 LINE",
"608 1262 LINE",
"433 1243 LINE",
"433 94 LINE",
"608 77 LINE",
"608 0 LINE",
"107 0 LINE",
"107 77 LINE"
);
},
{
closed = 1;
nodes = (
"167 1654 OFFCURVE",
"130 1623 OFFCURVE",
"110 1592 CURVE SMOOTH",
"100 1577 OFFCURVE",
"90 1559 OFFCURVE",
"81 1539 CURVE",
"6 1580 LINE",
"21 1636 OFFCURVE",
"65 1697 OFFCURVE",
"132 1735 CURVE SMOOTH",
"165 1754 OFFCURVE",
"202 1763 OFFCURVE",
"242 1763 CURVE SMOOTH",
"290 1763 OFFCURVE",
"328 1745 OFFCURVE",
"356 1722 CURVE",
"369 1710 OFFCURVE",
"384 1695 OFFCURVE",
"401 1676 CURVE SMOOTH",
"445 1629 OFFCURVE",
"470 1609 OFFCURVE",
"511 1609 CURVE SMOOTH",
"563 1609 OFFCURVE",
"598 1640 OFFCURVE",
"614 1668 CURVE SMOOTH",
"622 1681 OFFCURVE",
"631 1700 OFFCURVE",
"642 1725 CURVE",
"717 1683 LINE",
"685 1579 OFFCURVE",
"610 1500 OFFCURVE",
"501 1500 CURVE SMOOTH",
"454 1500 OFFCURVE",
"415 1519 OFFCURVE",
"389 1541 CURVE SMOOTH",
"376 1552 OFFCURVE",
"359 1566 OFFCURVE",
"340 1585 CURVE SMOOTH",
"292 1632 OFFCURVE",
"265 1654 OFFCURVE",
"218 1654 CURVE SMOOTH"
);
}
);
width = 716;
}
);
note = Itilde;
unicode = 0128;
},
{
glyphname = J;
layers = (
{
layerId = "73368993-97DB-45A8-8926-1DF7017D2006";
name = Light;
paths = (
{
closed = 1;
nodes = (
"-3 -247 LINE",
"109 -216 OFFCURVE",
"201 -133 OFFCURVE",
"238 -16 CURVE SMOOTH",
"253 33 OFFCURVE",
"263 89 OFFCURVE",
"268 152 CURVE SMOOTH",
"273 214 OFFCURVE",
"275 315 OFFCURVE",
"275 456 CURVE SMOOTH",
"275 1241 LINE",
"94 1262 LINE",
"94 1339 LINE",
"596 1339 LINE",
"596 1262 LINE",
"424 1241 LINE",
"424 495 LINE",
"424 385 LINE SMOOTH",
"424 216 OFFCURVE",
"421 119 OFFCURVE",
"405 38 CURVE SMOOTH",
"378 -94 OFFCURVE",
"298 -193 OFFCURVE",
"196 -252 CURVE SMOOTH",
"145 -282 OFFCURVE",
"92 -302 OFFCURVE",
"37 -312 CURVE"
);
}
);
width = 674;
}
);
note = J;
unicode = 004A;
},
{
glyphname = Jcircumflex;
layers = (
{
layerId = "73368993-97DB-45A8-8926-1DF7017D2006";
name = Light;
paths = (
{
closed = 1;
nodes = (
"-3 -247 LINE",
"109 -216 OFFCURVE",
"201 -133 OFFCURVE",
"238 -16 CURVE SMOOTH",
"253 33 OFFCURVE",
"263 89 OFFCURVE",
"268 152 CURVE SMOOTH",
"273 214 OFFCURVE",
"275 315 OFFCURVE",
"275 456 CURVE SMOOTH",
"275 1241 LINE",
"94 1262 LINE",
"94 1339 LINE",
"596 1339 LINE",
"596 1262 LINE",
"424 1241 LINE",
"424 495 LINE",
"424 385 LINE SMOOTH",
"424 216 OFFCURVE",
"421 119 OFFCURVE",
"405 38 CURVE SMOOTH",
"378 -94 OFFCURVE",
"298 -193 OFFCURVE",
"196 -252 CURVE SMOOTH",
"145 -282 OFFCURVE",
"92 -302 OFFCURVE",
"37 -312 CURVE"
);
},
{
closed = 1;
nodes = (
"274 1772 LINE",
"409 1772 LINE",
"642 1512 LINE",
"576 1472 LINE",
"342 1663 LINE",
"103 1472 LINE",
"43 1510 LINE"
);
}
);
width = 674;
}
);
note = Jcircumflex;
unicode = 0134;
},
{
glyphname = K;
layers = (
{
layerId = "73368993-97DB-45A8-8926-1DF7017D2006";
name = Light;
paths = (
{
closed = 1;
nodes = (
"1069 0 LINE SMOOTH",
"1053 0 OFFCURVE",
"1034 14 OFFCURVE",
"1011 41 CURVE SMOOTH",
"965 96 OFFCURVE",
"922 167 OFFCURVE",
"839 311 CURVE SMOOTH",
"731 498 OFFCURVE",
"663 610 OFFCURVE",
"594 679 CURVE",
"399 458 LINE",
"399 94 LINE",
"568 75 LINE",
"568 0 LINE",
"96 0 LINE",
"96 77 LINE",
"250 94 LINE",
"250 1242 LINE",
"99 1262 LINE",
"99 1339 LINE",
"554 1339 LINE",
"554 1262 LINE",
"399 1242 LINE",
"399 586 LINE",
"962 1243 LINE",
"810 1262 LINE",
"810 1339 LINE",
"1227 1339 LINE",
"1227 1262 LINE",
"1096 1243 LINE",
"681 779 LINE",
"765 706 OFFCURVE",
"852 578 OFFCURVE",
"991 366 CURVE SMOOTH",
"1051 274 OFFCURVE",
"1097 206 OFFCURVE",
"1129 163 CURVE SMOOTH",
"1160 120 OFFCURVE",
"1184 97 OFFCURVE",
"1200 95 CURVE",
"1285 75 LINE",
"1285 0 LINE"
);
}
);
width = 1287;
}
);
note = K;
unicode = 004B;
},
{
glyphname = Kcommaaccent;
layers = (
{
layerId = "73368993-97DB-45A8-8926-1DF7017D2006";
name = Light;
paths = (
{
closed = 1;
nodes = (
"678 -490 LINE",
"631 -457 LINE",
"631 -445 LINE",
"666 -426 OFFCURVE",
"692 -371 OFFCURVE",
"692 -316 CURVE SMOOTH",
"692 -283 OFFCURVE",
"677 -266 OFFCURVE",
"654 -251 CURVE",
"631 -234 OFFCURVE",
"619 -218 OFFCURVE",
"619 -183 CURVE SMOOTH",
"619 -143 OFFCURVE",
"641 -120 OFFCURVE",
"666 -111 CURVE",
"678 -106 OFFCURVE",
"689 -104 OFFCURVE",
"699 -104 CURVE SMOOTH",
"707 -104 LINE SMOOTH",
"774 -104 OFFCURVE",
"816 -157 OFFCURVE",
"816 -249 CURVE SMOOTH",
"816 -337 OFFCURVE",
"772 -410 OFFCURVE",
"728 -453 CURVE SMOOTH",
"706 -474 OFFCURVE",
"690 -487 OFFCURVE",
"680 -490 CURVE"
);
},
{
closed = 1;
nodes = (
"1069 0 LINE SMOOTH",
"1053 0 OFFCURVE",
"1034 14 OFFCURVE",
"1011 41 CURVE SMOOTH",
"965 96 OFFCURVE",
"922 167 OFFCURVE",
"839 311 CURVE SMOOTH",
"731 498 OFFCURVE",
"663 610 OFFCURVE",
"594 679 CURVE",
"399 458 LINE",
"399 94 LINE",
"568 75 LINE",
"568 0 LINE",
"96 0 LINE",
"96 77 LINE",
"250 94 LINE",
"250 1242 LINE",
"99 1262 LINE",
"99 1339 LINE",
"554 1339 LINE",
"554 1262 LINE",
"399 1242 LINE",
"399 586 LINE",
"962 1243 LINE",
"810 1262 LINE",
"810 1339 LINE",
"1227 1339 LINE",
"1227 1262 LINE",
"1096 1243 LINE",
"681 779 LINE",
"765 706 OFFCURVE",
"852 578 OFFCURVE",
"991 366 CURVE SMOOTH",
"1051 274 OFFCURVE",
"1097 206 OFFCURVE",
"1129 163 CURVE SMOOTH",
"1160 120 OFFCURVE",
"1184 97 OFFCURVE",
"1200 95 CURVE",
"1285 75 LINE",
"1285 0 LINE"
);
}
);
width = 1287;
}
);
note = Kcommaaccent;
unicode = 0136;
},
{
glyphname = L;
layers = (
{
layerId = "73368993-97DB-45A8-8926-1DF7017D2006";
name = Light;
paths = (
{
closed = 1;
nodes = (
"250 94 LINE",
"250 1242 LINE",
"99 1262 LINE",
"99 1339 LINE",
"578 1339 LINE",
"578 1262 LINE",
"399 1243 LINE",
"399 94 LINE",
"912 107 LINE",
"1013 390 LINE",
"1099 375 LINE",
"1033 0 LINE",
"96 0 LINE",
"96 77 LINE"
);
}
);
width = 1137;
}
);
note = L;
unicode = 004C;
},
{
glyphname = Lacute;
layers = (
{
layerId = "73368993-97DB-45A8-8926-1DF7017D2006";
name = Light;
paths = (
{
closed = 1;
nodes = (
"622 1767 LINE",
"623 1767 LINE",
"723 1674 LINE",
"686 1626 OFFCURVE",
"589 1560 OFFCURVE",
"492 1508 CURVE SMOOTH",
"443 1481 OFFCURVE",
"404 1461 OFFCURVE",
"374 1448 CURVE",
"373 1448 LINE",
"323 1495 LINE"
);
},
{
closed = 1;
nodes = (
"250 94 LINE",
"250 1242 LINE",
"99 1262 LINE",
"99 1339 LINE",
"578 1339 LINE",
"578 1262 LINE",
"399 1243 LINE",
"399 94 LINE",
"912 107 LINE",
"1013 390 LINE",
"1099 375 LINE",
"1033 0 LINE",
"96 0 LINE",
"96 77 LINE"
);
}
);
width = 1137;
}
);
note = Lacute;
unicode = 0139;
},
{
glyphname = Lcaron;
layers = (
{
layerId = "73368993-97DB-45A8-8926-1DF7017D2006";
name = Light;
paths = (
{
closed = 1;
nodes = (
"250 94 LINE",
"250 1242 LINE",
"99 1262 LINE",
"99 1339 LINE",
"578 1339 LINE",
"578 1262 LINE",
"399 1243 LINE",
"399 94 LINE",
"912 107 LINE",
"1013 390 LINE",
"1099 375 LINE",
"1033 0 LINE",
"96 0 LINE",
"96 77 LINE"
);
},
{
closed = 1;
nodes = (
"821 964 LINE",
"845 1035 OFFCURVE",
"858 1121 OFFCURVE",
"858 1190 CURVE SMOOTH",
"858 1285 OFFCURVE",
"835 1387 OFFCURVE",
"812 1419 CURVE",
"822 1450 LINE",
"937 1477 LINE",
"968 1444 OFFCURVE",
"990 1353 OFFCURVE",
"990 1265 CURVE SMOOTH",
"990 1173 OFFCURVE",
"969 1075 OFFCURVE",
"938 1002 CURVE SMOOTH",
"922 965 OFFCURVE",
"905 938 OFFCURVE",
"886 920 CURVE",
"824 945 LINE"
);
}
);
width = 1137;
}
);
note = Lcaron;
unicode = 013D;
},
{
glyphname = Lcommaaccent;
layers = (
{
layerId = "73368993-97DB-45A8-8926-1DF7017D2006";
name = Light;
paths = (
{
closed = 1;
nodes = (
"591 -490 LINE",
"544 -457 LINE",
"544 -445 LINE",
"579 -426 OFFCURVE",
"605 -371 OFFCURVE",
"605 -316 CURVE SMOOTH",
"605 -283 OFFCURVE",
"590 -266 OFFCURVE",
"567 -251 CURVE",
"544 -234 OFFCURVE",
"532 -218 OFFCURVE",
"532 -183 CURVE SMOOTH",
"532 -143 OFFCURVE",
"554 -120 OFFCURVE",
"579 -111 CURVE",
"591 -106 OFFCURVE",
"602 -104 OFFCURVE",
"612 -104 CURVE SMOOTH",
"620 -104 LINE SMOOTH",
"687 -104 OFFCURVE",
"729 -157 OFFCURVE",
"729 -249 CURVE SMOOTH",
"729 -337 OFFCURVE",
"685 -410 OFFCURVE",
"641 -453 CURVE SMOOTH",
"619 -474 OFFCURVE",
"603 -487 OFFCURVE",
"593 -490 CURVE"
);
},
{
closed = 1;
nodes = (
"250 94 LINE",
"250 1242 LINE",
"99 1262 LINE",
"99 1339 LINE",
"578 1339 LINE",
"578 1262 LINE",
"399 1243 LINE",
"399 94 LINE",
"912 107 LINE",
"1013 390 LINE",
"1099 375 LINE",
"1033 0 LINE",
"96 0 LINE",
"96 77 LINE"
);
}
);
width = 1137;
}
);
note = Lcommaaccent;
unicode = 013B;
},
{
glyphname = Ldot;
layers = (
{
layerId = "73368993-97DB-45A8-8926-1DF7017D2006";
name = Light;
paths = (
{
closed = 1;
nodes = (
"250 94 LINE",
"250 1242 LINE",
"99 1262 LINE",
"99 1339 LINE",
"578 1339 LINE",
"578 1262 LINE",
"399 1243 LINE",
"399 94 LINE",
"912 107 LINE",
"1013 390 LINE",
"1099 375 LINE",
"1033 0 LINE",
"96 0 LINE",
"96 77 LINE"
);
},
{
closed = 1;
nodes = (
"749 768 OFFCURVE",
"774 807 OFFCURVE",
"810 828 CURVE SMOOTH",
"828 839 OFFCURVE",
"847 844 OFFCURVE",
"866 844 CURVE SMOOTH",
"930 844 OFFCURVE",
"963 801 OFFCURVE",
"963 742 CURVE SMOOTH",
"963 697 OFFCURVE",
"940 659 OFFCURVE",
"905 639 CURVE SMOOTH",
"887 629 OFFCURVE",
"868 624 OFFCURVE",
"847 624 CURVE SMOOTH",
"794 624 OFFCURVE",
"749 665 OFFCURVE",
"749 725 CURVE SMOOTH"
);
}
);
width = 1137;
}
);
note = Ldot;
unicode = 013F;
},
{
glyphname = Lslash;
layers = (
{
layerId = "73368993-97DB-45A8-8926-1DF7017D2006";
name = Light;
paths = (
{
closed = 1;
nodes = (
"250 650 LINE",
"250 1242 LINE",
"99 1262 LINE",
"99 1339 LINE",
"578 1339 LINE",
"578 1262 LINE",
"399 1243 LINE",
"399 713 LINE",
"775 882 LINE",
"775 784 LINE",
"399 618 LINE",
"399 94 LINE",
"912 107 LINE",
"1013 390 LINE",
"1099 375 LINE",
"1033 0 LINE",
"96 0 LINE",
"96 77 LINE",
"250 94 LINE",
"250 557 LINE",
"46 468 LINE",
"46 560 LINE"
);
}
);
width = 1140;
}
);
note = Lslash;
unicode = 0141;
},
{
glyphname = M;
layers = (
{
layerId = "73368993-97DB-45A8-8926-1DF7017D2006";
name = Light;
paths = (
{
closed = 1;
nodes = (
"161 94 LINE",
"304 1243 LINE",
"99 1262 LINE",
"99 1339 LINE",
"521 1339 LINE",
"825 507 LINE",
"893 266 LINE",
"948 507 LINE",
"1209 1339 LINE",
"1628 1339 LINE",
"1628 1262 LINE",
"1421 1242 LINE",
"1614 95 LINE",
"1775 77 LINE",
"1775 0 LINE",
"1294 0 LINE",
"1294 77 LINE",
"1461 94 LINE",
"1331 915 LINE",
"1285 1277 LINE",
"1211 1027 LINE",
"914 65 LINE",
"851 65 LINE",
"513 927 LINE",
"400 1277 LINE",
"363 916 LINE",
"281 94 LINE",
"458 77 LINE",
"458 0 LINE",
"4 0 LINE",
"4 77 LINE"
);
}
);
width = 1778;
}
);
note = M;
unicode = 004D;
},
{
glyphname = N;
layers = (
{
layerId = "73368993-97DB-45A8-8926-1DF7017D2006";
name = Light;
paths = (
{
closed = 1;
nodes = (
"245 95 LINE",
"245 1242 LINE",
"101 1262 LINE",
"101 1339 LINE",
"392 1339 LINE",
"1030 414 LINE",
"1132 234 LINE",
"1132 1242 LINE",
"973 1262 LINE",
"973 1339 LINE",
"1383 1339 LINE",
"1383 1262 LINE",
"1236 1242 LINE",
"1236 0 LINE",
"1143 0 LINE",
"498 928 LINE",
"349 1169 LINE",
"349 94 LINE",
"514 77 LINE",
"514 0 LINE",
"101 0 LINE",
"101 77 LINE"
);
}
);
width = 1436;
}
);
note = N;
unicode = 004E;
},
{
glyphname = Nacute;
layers = (
{
layerId = "73368993-97DB-45A8-8926-1DF7017D2006";
name = Light;
paths = (
{
closed = 1;
nodes = (
"932 1767 LINE",
"933 1767 LINE",
"1033 1674 LINE",
"996 1626 OFFCURVE",
"899 1560 OFFCURVE",
"802 1508 CURVE SMOOTH",
"753 1481 OFFCURVE",
"714 1461 OFFCURVE",
"684 1448 CURVE",
"683 1448 LINE",
"633 1495 LINE"
);
},
{
closed = 1;
nodes = (
"245 95 LINE",
"245 1242 LINE",
"101 1262 LINE",
"101 1339 LINE",
"392 1339 LINE",
"1030 414 LINE",
"1132 234 LINE",
"1132 1242 LINE",
"973 1262 LINE",
"973 1339 LINE",
"1383 1339 LINE",
"1383 1262 LINE",
"1236 1242 LINE",
"1236 0 LINE",
"1143 0 LINE",
"498 928 LINE",
"349 1169 LINE",
"349 94 LINE",
"514 77 LINE",
"514 0 LINE",
"101 0 LINE",
"101 77 LINE"
);
}
);
width = 1437;
}
);
note = Nacute;
unicode = 0143;
},
{
glyphname = Ncaron;
layers = (
{
layerId = "73368993-97DB-45A8-8926-1DF7017D2006";
name = Light;
paths = (
{
closed = 1;
nodes = (
"537 1770 LINE",
"758 1590 LINE",
"983 1770 LINE",
"1043 1733 LINE",
"827 1489 LINE",
"690 1489 LINE",
"472 1731 LINE"
);
},
{
closed = 1;
nodes = (
"245 95 LINE",
"245 1242 LINE",
"101 1262 LINE",
"101 1339 LINE",
"392 1339 LINE",
"1030 414 LINE",
"1132 234 LINE",
"1132 1242 LINE",
"973 1262 LINE",
"973 1339 LINE",
"1383 1339 LINE",
"1383 1262 LINE",
"1236 1242 LINE",
"1236 0 LINE",
"1143 0 LINE",
"498 928 LINE",
"349 1169 LINE",
"349 94 LINE",
"514 77 LINE",
"514 0 LINE",
"101 0 LINE",
"101 77 LINE"
);
}
);
width = 1437;
}
);
note = Ncaron;
unicode = 0147;
},
{
glyphname = Ncommaaccent;
layers = (
{
layerId = "73368993-97DB-45A8-8926-1DF7017D2006";
name = Light;
paths = (
{
closed = 1;
nodes = (
"728 -490 LINE",
"681 -457 LINE",
"681 -445 LINE",
"716 -426 OFFCURVE",
"742 -371 OFFCURVE",
"742 -316 CURVE SMOOTH",
"742 -283 OFFCURVE",
"727 -266 OFFCURVE",
"704 -251 CURVE",
"681 -234 OFFCURVE",
"669 -218 OFFCURVE",
"669 -183 CURVE SMOOTH",
"669 -143 OFFCURVE",
"691 -120 OFFCURVE",
"716 -111 CURVE",
"728 -106 OFFCURVE",
"739 -104 OFFCURVE",
"749 -104 CURVE SMOOTH",
"757 -104 LINE SMOOTH",
"824 -104 OFFCURVE",
"866 -157 OFFCURVE",
"866 -249 CURVE SMOOTH",
"866 -337 OFFCURVE",
"822 -410 OFFCURVE",
"778 -453 CURVE SMOOTH",
"756 -474 OFFCURVE",
"740 -487 OFFCURVE",
"730 -490 CURVE"
);
},
{
closed = 1;
nodes = (
"245 95 LINE",
"245 1242 LINE",
"101 1262 LINE",
"101 1339 LINE",
"392 1339 LINE",
"1030 414 LINE",
"1132 234 LINE",
"1132 1242 LINE",
"973 1262 LINE",
"973 1339 LINE",
"1383 1339 LINE",
"1383 1262 LINE",
"1236 1242 LINE",
"1236 0 LINE",
"1143 0 LINE",
"498 928 LINE",
"349 1169 LINE",
"349 94 LINE",
"514 77 LINE",
"514 0 LINE",
"101 0 LINE",
"101 77 LINE"
);
}
);
width = 1437;
}
);
note = Ncommaaccent;
unicode = 0145;
},
{
glyphname = Eng;
layers = (
{
layerId = "73368993-97DB-45A8-8926-1DF7017D2006";
name = Light;
paths = (
{
closed = 1;
nodes = (
"246 94 LINE",
"246 1242 LINE",
"103 1263 LINE",
"103 1339 LINE",
"399 1339 LINE",
"997 414 LINE",
"1133 171 LINE",
"1133 1243 LINE",
"981 1263 LINE",
"981 1339 LINE",
"1384 1339 LINE",
"1384 1263 LINE",
"1237 1243 LINE",
"1237 304 LINE SMOOTH",
"1237 128 OFFCURVE",
"1218 17 OFFCURVE",
"1186 -50 CURVE SMOOTH",
"1170 -84 OFFCURVE",
"1150 -115 OFFCURVE",
"1126 -142 CURVE SMOOTH",
"1030 -249 OFFCURVE",
"931 -293 OFFCURVE",
"803 -306 CURVE",
"765 -243 LINE",
"881 -218 OFFCURVE",
"973 -161 OFFCURVE",
"1032 -77 CURVE SMOOTH",
"1055 -46 OFFCURVE",
"1071 -12 OFFCURVE",
"1082 24 CURVE",
"490 928 LINE",
"351 1180 LINE",
"351 94 LINE",
"516 77 LINE",
"516 0 LINE",
"103 0 LINE",
"103 77 LINE"
);
}
);
width = 1413;
}
);
note = Eng;
unicode = 014A;
},
{
glyphname = Ntilde;
layers = (
{
layerId = "73368993-97DB-45A8-8926-1DF7017D2006";
name = Light;
paths = (
{
closed = 1;
nodes = (
"527 1654 OFFCURVE",
"490 1623 OFFCURVE",
"470 1592 CURVE SMOOTH",
"460 1577 OFFCURVE",
"450 1559 OFFCURVE",
"441 1539 CURVE",
"366 1580 LINE",
"381 1636 OFFCURVE",
"425 1697 OFFCURVE",
"492 1735 CURVE SMOOTH",
"525 1754 OFFCURVE",
"562 1763 OFFCURVE",
"602 1763 CURVE SMOOTH",
"650 1763 OFFCURVE",
"688 1745 OFFCURVE",
"716 1722 CURVE",
"729 1710 OFFCURVE",
"744 1695 OFFCURVE",
"761 1676 CURVE SMOOTH",
"805 1629 OFFCURVE",
"830 1609 OFFCURVE",
"871 1609 CURVE SMOOTH",
"923 1609 OFFCURVE",
"958 1640 OFFCURVE",
"974 1668 CURVE SMOOTH",
"982 1681 OFFCURVE",
"991 1700 OFFCURVE",
"1002 1725 CURVE",
"1077 1683 LINE",
"1045 1579 OFFCURVE",
"970 1500 OFFCURVE",
"861 1500 CURVE SMOOTH",
"814 1500 OFFCURVE",
"775 1519 OFFCURVE",
"749 1541 CURVE SMOOTH",
"736 1552 OFFCURVE",
"719 1566 OFFCURVE",
"700 1585 CURVE SMOOTH",
"652 1632 OFFCURVE",
"625 1654 OFFCURVE",
"578 1654 CURVE SMOOTH"
);
},
{
closed = 1;
nodes = (
"245 95 LINE",
"245 1242 LINE",
"101 1262 LINE",
"101 1339 LINE",
"392 1339 LINE",
"1030 414 LINE",
"1132 234 LINE",
"1132 1242 LINE",
"973 1262 LINE",
"973 1339 LINE",
"1383 1339 LINE",
"1383 1262 LINE",
"1236 1242 LINE",
"1236 0 LINE",
"1143 0 LINE",
"498 928 LINE",
"349 1169 LINE",
"349 94 LINE",
"514 77 LINE",
"514 0 LINE",
"101 0 LINE",
"101 77 LINE"
);
}
);
width = 1437;
}
);
note = Ntilde;
unicode = 00D1;
},
{
glyphname = O;
layers = (
{
layerId = "73368993-97DB-45A8-8926-1DF7017D2006";
name = Light;
paths = (
{
closed = 1;
nodes = (
"66 936 OFFCURVE",
"178 1154 OFFCURVE",
"362 1268 CURVE SMOOTH",
"453 1325 OFFCURVE",
"555 1353 OFFCURVE",
"666 1353 CURVE SMOOTH",
"906 1353 OFFCURVE",
"1077 1239 OFFCURVE",
"1165 1037 CURVE SMOOTH",
"1208 936 OFFCURVE",
"1230 817 OFFCURVE",
"1230 682 CURVE SMOOTH",
"1230 402 OFFCURVE",
"1116 182 OFFCURVE",
"932 67 CURVE SMOOTH",
"839 9 OFFCURVE",
"737 -20 OFFCURVE",
"624 -20 CURVE SMOOTH",
"391 -20 OFFCURVE",
"219 99 OFFCURVE",
"132 304 CURVE SMOOTH",
"88 407 OFFCURVE",
"66 525 OFFCURVE",
"66 659 CURVE SMOOTH"
);
},
{
closed = 1;
nodes = (
"231 429 OFFCURVE",
"297 241 OFFCURVE",
"422 141 CURVE SMOOTH",
"485 90 OFFCURVE",
"559 65 OFFCURVE",
"646 65 CURVE SMOOTH",
"813 65 OFFCURVE",
"942 159 OFFCURVE",
"1012 343 CURVE SMOOTH",
"1047 435 OFFCURVE",
"1064 548 OFFCURVE",
"1064 681 CURVE SMOOTH",
"1064 912 OFFCURVE",
"998 1096 OFFCURVE",
"874 1195 CURVE SMOOTH",
"812 1244 OFFCURVE",
"738 1269 OFFCURVE",
"651 1269 CURVE SMOOTH",
"482 1269 OFFCURVE",
"352 1179 OFFCURVE",
"283 997 CURVE SMOOTH",
"248 906 OFFCURVE",
"231 793 OFFCURVE",
"231 660 CURVE SMOOTH"
);
}
);
width = 1296;
}
);
note = O;
unicode = 004F;
},
{
glyphname = Oacute;
layers = (
{
layerId = "73368993-97DB-45A8-8926-1DF7017D2006";
name = Light;
paths = (
{
closed = 1;
nodes = (
"831 1767 LINE",
"832 1767 LINE",
"932 1674 LINE",
"895 1626 OFFCURVE",
"798 1560 OFFCURVE",
"701 1508 CURVE SMOOTH",
"652 1481 OFFCURVE",
"613 1461 OFFCURVE",
"583 1448 CURVE",
"582 1448 LINE",
"532 1495 LINE"
);
},
{
closed = 1;
nodes = (
"66 936 OFFCURVE",
"178 1154 OFFCURVE",
"362 1268 CURVE SMOOTH",
"453 1325 OFFCURVE",
"555 1353 OFFCURVE",
"666 1353 CURVE SMOOTH",
"906 1353 OFFCURVE",
"1077 1239 OFFCURVE",
"1165 1037 CURVE SMOOTH",
"1208 936 OFFCURVE",
"1230 817 OFFCURVE",
"1230 682 CURVE SMOOTH",
"1230 402 OFFCURVE",
"1116 182 OFFCURVE",
"932 67 CURVE SMOOTH",
"839 9 OFFCURVE",
"737 -20 OFFCURVE",
"624 -20 CURVE SMOOTH",
"391 -20 OFFCURVE",
"219 99 OFFCURVE",
"132 304 CURVE SMOOTH",
"88 407 OFFCURVE",
"66 525 OFFCURVE",
"66 659 CURVE SMOOTH"
);
},
{
closed = 1;
nodes = (
"231 429 OFFCURVE",
"297 241 OFFCURVE",
"422 141 CURVE SMOOTH",
"485 90 OFFCURVE",
"559 65 OFFCURVE",
"646 65 CURVE SMOOTH",
"813 65 OFFCURVE",
"942 159 OFFCURVE",
"1012 343 CURVE SMOOTH",
"1047 435 OFFCURVE",
"1064 548 OFFCURVE",
"1064 681 CURVE SMOOTH",
"1064 912 OFFCURVE",
"998 1096 OFFCURVE",
"874 1195 CURVE SMOOTH",
"812 1244 OFFCURVE",
"738 1269 OFFCURVE",
"651 1269 CURVE SMOOTH",
"482 1269 OFFCURVE",
"352 1179 OFFCURVE",
"283 997 CURVE SMOOTH",
"248 906 OFFCURVE",
"231 793 OFFCURVE",
"231 660 CURVE SMOOTH"
);
}
);
width = 1296;
}
);
note = Oacute;
unicode = 00D3;
},
{
glyphname = Obreve;
layers = (
{
layerId = "73368993-97DB-45A8-8926-1DF7017D2006";
name = Light;
paths = (
{
closed = 1;
nodes = (
"362 1735 OFFCURVE",
"363 1747 OFFCURVE",
"364 1756 CURVE",
"446 1756 LINE",
"446 1747 OFFCURVE",
"447 1738 OFFCURVE",
"449 1731 CURVE",
"454 1682 OFFCURVE",
"480 1631 OFFCURVE",
"540 1599 CURVE SMOOTH",
"570 1583 OFFCURVE",
"608 1575 OFFCURVE",
"654 1575 CURVE SMOOTH",
"747 1575 OFFCURVE",
"805 1612 OFFCURVE",
"832 1659 CURVE SMOOTH",
"845 1682 OFFCURVE",
"853 1707 OFFCURVE",
"855 1732 CURVE",
"856 1739 OFFCURVE",
"857 1747 OFFCURVE",
"857 1756 CURVE",
"936 1756 LINE",
"937 1747 OFFCURVE",
"938 1735 OFFCURVE",
"938 1720 CURVE SMOOTH",
"938 1621 OFFCURVE",
"891 1538 OFFCURVE",
"805 1491 CURVE SMOOTH",
"762 1468 OFFCURVE",
"711 1456 OFFCURVE",
"653 1456 CURVE SMOOTH",
"532 1456 OFFCURVE",
"443 1505 OFFCURVE",
"397 1585 CURVE SMOOTH",
"374 1625 OFFCURVE",
"362 1670 OFFCURVE",
"362 1720 CURVE SMOOTH"
);
},
{
closed = 1;
nodes = (
"66 936 OFFCURVE",
"178 1154 OFFCURVE",
"362 1268 CURVE SMOOTH",
"453 1325 OFFCURVE",
"555 1353 OFFCURVE",
"666 1353 CURVE SMOOTH",
"906 1353 OFFCURVE",
"1077 1239 OFFCURVE",
"1165 1037 CURVE SMOOTH",
"1208 936 OFFCURVE",
"1230 817 OFFCURVE",
"1230 682 CURVE SMOOTH",
"1230 402 OFFCURVE",
"1116 182 OFFCURVE",
"932 67 CURVE SMOOTH",
"839 9 OFFCURVE",
"737 -20 OFFCURVE",
"624 -20 CURVE SMOOTH",
"391 -20 OFFCURVE",
"219 99 OFFCURVE",
"132 304 CURVE SMOOTH",
"88 407 OFFCURVE",
"66 525 OFFCURVE",
"66 659 CURVE SMOOTH"
);
},
{
closed = 1;
nodes = (
"231 429 OFFCURVE",
"297 241 OFFCURVE",
"422 141 CURVE SMOOTH",
"485 90 OFFCURVE",
"559 65 OFFCURVE",
"646 65 CURVE SMOOTH",
"813 65 OFFCURVE",
"942 159 OFFCURVE",
"1012 343 CURVE SMOOTH",
"1047 435 OFFCURVE",
"1064 548 OFFCURVE",
"1064 681 CURVE SMOOTH",
"1064 912 OFFCURVE",
"998 1096 OFFCURVE",
"874 1195 CURVE SMOOTH",
"812 1244 OFFCURVE",
"738 1269 OFFCURVE",
"651 1269 CURVE SMOOTH",
"482 1269 OFFCURVE",
"352 1179 OFFCURVE",
"283 997 CURVE SMOOTH",
"248 906 OFFCURVE",
"231 793 OFFCURVE",
"231 660 CURVE SMOOTH"
);
}
);
width = 1296;
}
);
note = Obreve;
unicode = 014E;
},
{
glyphname = Ocircumflex;
layers = (
{
layerId = "73368993-97DB-45A8-8926-1DF7017D2006";
name = Light;
paths = (
{
closed = 1;
nodes = (
"66 936 OFFCURVE",
"178 1154 OFFCURVE",
"362 1268 CURVE SMOOTH",
"453 1325 OFFCURVE",
"555 1353 OFFCURVE",
"666 1353 CURVE SMOOTH",
"906 1353 OFFCURVE",
"1077 1239 OFFCURVE",
"1165 1037 CURVE SMOOTH",
"1208 936 OFFCURVE",
"1230 817 OFFCURVE",
"1230 682 CURVE SMOOTH",
"1230 402 OFFCURVE",
"1116 182 OFFCURVE",
"932 67 CURVE SMOOTH",
"839 9 OFFCURVE",
"737 -20 OFFCURVE",
"624 -20 CURVE SMOOTH",
"391 -20 OFFCURVE",
"219 99 OFFCURVE",
"132 304 CURVE SMOOTH",
"88 407 OFFCURVE",
"66 525 OFFCURVE",
"66 659 CURVE SMOOTH"
);
},
{
closed = 1;
nodes = (
"231 429 OFFCURVE",
"297 241 OFFCURVE",
"422 141 CURVE SMOOTH",
"485 90 OFFCURVE",
"559 65 OFFCURVE",
"646 65 CURVE SMOOTH",
"813 65 OFFCURVE",
"942 159 OFFCURVE",
"1012 343 CURVE SMOOTH",
"1047 435 OFFCURVE",
"1064 548 OFFCURVE",
"1064 681 CURVE SMOOTH",
"1064 912 OFFCURVE",
"998 1096 OFFCURVE",
"874 1195 CURVE SMOOTH",
"812 1244 OFFCURVE",
"738 1269 OFFCURVE",
"651 1269 CURVE SMOOTH",
"482 1269 OFFCURVE",
"352 1179 OFFCURVE",
"283 997 CURVE SMOOTH",
"248 906 OFFCURVE",
"231 793 OFFCURVE",
"231 660 CURVE SMOOTH"
);
},
{
closed = 1;
nodes = (
"583 1772 LINE",
"718 1772 LINE",
"951 1512 LINE",
"885 1472 LINE",
"651 1663 LINE",
"412 1472 LINE",
"352 1510 LINE"
);
}
);
width = 1296;
}
);
note = Ocircumflex;
unicode = 00D4;
},
{
glyphname = Odieresis;
layers = (
{
layerId = "73368993-97DB-45A8-8926-1DF7017D2006";
name = Light;
paths = (
{
closed = 1;
nodes = (
"339 1671 OFFCURVE",
"376 1726 OFFCURVE",
"443 1726 CURVE SMOOTH",
"444 1726 LINE SMOOTH",
"501 1726 OFFCURVE",
"539 1676 OFFCURVE",
"539 1621 CURVE SMOOTH",
"539 1554 OFFCURVE",
"499 1503 OFFCURVE",
"430 1503 CURVE SMOOTH",
"429 1503 LINE SMOOTH",
"374 1503 OFFCURVE",
"339 1547 OFFCURVE",
"339 1606 CURVE SMOOTH"
);
},
{
closed = 1;
nodes = (
"766 1671 OFFCURVE",
"805 1726 OFFCURVE",
"872 1726 CURVE SMOOTH",
"873 1726 LINE SMOOTH",
"932 1726 OFFCURVE",
"967 1676 OFFCURVE",
"967 1621 CURVE SMOOTH",
"967 1553 OFFCURVE",
"929 1503 OFFCURVE",
"858 1503 CURVE SMOOTH",
"857 1503 LINE SMOOTH",
"801 1503 OFFCURVE",
"766 1547 OFFCURVE",
"766 1606 CURVE SMOOTH"
);
},
{
closed = 1;
nodes = (
"66 936 OFFCURVE",
"178 1154 OFFCURVE",
"362 1268 CURVE SMOOTH",
"453 1325 OFFCURVE",
"555 1353 OFFCURVE",
"666 1353 CURVE SMOOTH",
"906 1353 OFFCURVE",
"1077 1239 OFFCURVE",
"1165 1037 CURVE SMOOTH",
"1208 936 OFFCURVE",
"1230 817 OFFCURVE",
"1230 682 CURVE SMOOTH",
"1230 402 OFFCURVE",
"1116 182 OFFCURVE",
"932 67 CURVE SMOOTH",
"839 9 OFFCURVE",
"737 -20 OFFCURVE",
"624 -20 CURVE SMOOTH",
"391 -20 OFFCURVE",
"219 99 OFFCURVE",
"132 304 CURVE SMOOTH",
"88 407 OFFCURVE",
"66 525 OFFCURVE",
"66 659 CURVE SMOOTH"
);
},
{
closed = 1;
nodes = (
"231 429 OFFCURVE",
"297 241 OFFCURVE",
"422 141 CURVE SMOOTH",
"485 90 OFFCURVE",
"559 65 OFFCURVE",
"646 65 CURVE SMOOTH",
"813 65 OFFCURVE",
"942 159 OFFCURVE",
"1012 343 CURVE SMOOTH",
"1047 435 OFFCURVE",
"1064 548 OFFCURVE",
"1064 681 CURVE SMOOTH",
"1064 912 OFFCURVE",
"998 1096 OFFCURVE",
"874 1195 CURVE SMOOTH",
"812 1244 OFFCURVE",
"738 1269 OFFCURVE",
"651 1269 CURVE SMOOTH",
"482 1269 OFFCURVE",
"352 1179 OFFCURVE",
"283 997 CURVE SMOOTH",
"248 906 OFFCURVE",
"231 793 OFFCURVE",
"231 660 CURVE SMOOTH"
);
}
);
width = 1296;
}
);
note = Odieresis;
unicode = 00D6;
},
{
glyphname = Ograve;
layers = (
{
layerId = "73368993-97DB-45A8-8926-1DF7017D2006";
name = Light;
paths = (
{
closed = 1;
nodes = (
"495 1767 LINE",
"496 1767 LINE",
"793 1495 LINE",
"745 1448 LINE",
"744 1448 LINE",
"681 1475 OFFCURVE",
"575 1532 OFFCURVE",
"488 1593 CURVE SMOOTH",
"444 1623 OFFCURVE",
"413 1650 OFFCURVE",
"394 1674 CURVE"
);
},
{
closed = 1;
nodes = (
"66 936 OFFCURVE",
"178 1154 OFFCURVE",
"362 1268 CURVE SMOOTH",
"453 1325 OFFCURVE",
"555 1353 OFFCURVE",
"666 1353 CURVE SMOOTH",
"906 1353 OFFCURVE",
"1077 1239 OFFCURVE",
"1165 1037 CURVE SMOOTH",
"1208 936 OFFCURVE",
"1230 817 OFFCURVE",
"1230 682 CURVE SMOOTH",
"1230 402 OFFCURVE",
"1116 182 OFFCURVE",
"932 67 CURVE SMOOTH",
"839 9 OFFCURVE",
"737 -20 OFFCURVE",
"624 -20 CURVE SMOOTH",
"391 -20 OFFCURVE",
"219 99 OFFCURVE",
"132 304 CURVE SMOOTH",
"88 407 OFFCURVE",
"66 525 OFFCURVE",
"66 659 CURVE SMOOTH"
);
},
{
closed = 1;
nodes = (
"231 429 OFFCURVE",
"297 241 OFFCURVE",
"422 141 CURVE SMOOTH",
"485 90 OFFCURVE",
"559 65 OFFCURVE",
"646 65 CURVE SMOOTH",
"813 65 OFFCURVE",
"942 159 OFFCURVE",
"1012 343 CURVE SMOOTH",
"1047 435 OFFCURVE",
"1064 548 OFFCURVE",
"1064 681 CURVE SMOOTH",
"1064 912 OFFCURVE",
"998 1096 OFFCURVE",
"874 1195 CURVE SMOOTH",
"812 1244 OFFCURVE",
"738 1269 OFFCURVE",
"651 1269 CURVE SMOOTH",
"482 1269 OFFCURVE",
"352 1179 OFFCURVE",
"283 997 CURVE SMOOTH",
"248 906 OFFCURVE",
"231 793 OFFCURVE",
"231 660 CURVE SMOOTH"
);
}
);
width = 1296;
}
);
note = Ograve;
unicode = 00D2;
},
{
glyphname = Ohungarumlaut;
layers = (
{
layerId = "73368993-97DB-45A8-8926-1DF7017D2006";
name = Light;
paths = (
{
closed = 1;
nodes = (
"66 936 OFFCURVE",
"178 1154 OFFCURVE",
"362 1268 CURVE SMOOTH",
"453 1325 OFFCURVE",
"555 1353 OFFCURVE",
"666 1353 CURVE SMOOTH",
"906 1353 OFFCURVE",
"1077 1239 OFFCURVE",
"1165 1037 CURVE SMOOTH",
"1208 936 OFFCURVE",
"1230 817 OFFCURVE",
"1230 682 CURVE SMOOTH",
"1230 402 OFFCURVE",
"1116 182 OFFCURVE",
"932 67 CURVE SMOOTH",
"839 9 OFFCURVE",
"737 -20 OFFCURVE",
"624 -20 CURVE SMOOTH",
"391 -20 OFFCURVE",
"219 99 OFFCURVE",
"132 304 CURVE SMOOTH",
"88 407 OFFCURVE",
"66 525 OFFCURVE",
"66 659 CURVE SMOOTH"
);
},
{
closed = 1;
nodes = (
"231 429 OFFCURVE",
"297 241 OFFCURVE",
"422 141 CURVE SMOOTH",
"485 90 OFFCURVE",
"559 65 OFFCURVE",
"646 65 CURVE SMOOTH",
"813 65 OFFCURVE",
"942 159 OFFCURVE",
"1012 343 CURVE SMOOTH",
"1047 435 OFFCURVE",
"1064 548 OFFCURVE",
"1064 681 CURVE SMOOTH",
"1064 912 OFFCURVE",
"998 1096 OFFCURVE",
"874 1195 CURVE SMOOTH",
"812 1244 OFFCURVE",
"738 1269 OFFCURVE",
"651 1269 CURVE SMOOTH",
"482 1269 OFFCURVE",
"352 1179 OFFCURVE",
"283 997 CURVE SMOOTH",
"248 906 OFFCURVE",
"231 793 OFFCURVE",
"231 660 CURVE SMOOTH"
);
},
{
closed = 1;
nodes = (
"573 1771 LINE",
"676 1686 LINE",
"601 1603 OFFCURVE",
"496 1520 OFFCURVE",
"397 1457 CURVE",
"334 1512 LINE"
);
},
{
closed = 1;
nodes = (
"1017 1767 LINE",
"1110 1680 LINE",
"1042 1604 OFFCURVE",
"923 1514 OFFCURVE",
"824 1457 CURVE",
"761 1514 LINE"
);
}
);
width = 1296;
}
);
note = Ohungarumlaut;
unicode = 0150;
},
{
glyphname = Omacron;
layers = (
{
layerId = "73368993-97DB-45A8-8926-1DF7017D2006";
name = Light;
paths = (
{
closed = 1;
nodes = (
"894 1659 LINE",
"894 1548 LINE",
"419 1548 LINE",
"419 1659 LINE"
);
},
{
closed = 1;
nodes = (
"66 936 OFFCURVE",
"178 1154 OFFCURVE",
"362 1268 CURVE SMOOTH",
"453 1325 OFFCURVE",
"555 1353 OFFCURVE",
"666 1353 CURVE SMOOTH",
"906 1353 OFFCURVE",
"1077 1239 OFFCURVE",
"1165 1037 CURVE SMOOTH",
"1208 936 OFFCURVE",
"1230 817 OFFCURVE",
"1230 682 CURVE SMOOTH",
"1230 402 OFFCURVE",
"1116 182 OFFCURVE",
"932 67 CURVE SMOOTH",
"839 9 OFFCURVE",
"737 -20 OFFCURVE",
"624 -20 CURVE SMOOTH",
"391 -20 OFFCURVE",
"219 99 OFFCURVE",
"132 304 CURVE SMOOTH",
"88 407 OFFCURVE",
"66 525 OFFCURVE",
"66 659 CURVE SMOOTH"
);
},
{
closed = 1;
nodes = (
"231 429 OFFCURVE",
"297 241 OFFCURVE",
"422 141 CURVE SMOOTH",
"485 90 OFFCURVE",
"559 65 OFFCURVE",
"646 65 CURVE SMOOTH",
"813 65 OFFCURVE",
"942 159 OFFCURVE",
"1012 343 CURVE SMOOTH",
"1047 435 OFFCURVE",
"1064 548 OFFCURVE",
"1064 681 CURVE SMOOTH",
"1064 912 OFFCURVE",
"998 1096 OFFCURVE",
"874 1195 CURVE SMOOTH",
"812 1244 OFFCURVE",
"738 1269 OFFCURVE",
"651 1269 CURVE SMOOTH",
"482 1269 OFFCURVE",
"352 1179 OFFCURVE",
"283 997 CURVE SMOOTH",
"248 906 OFFCURVE",
"231 793 OFFCURVE",
"231 660 CURVE SMOOTH"
);
}
);
width = 1296;
}
);
note = Omacron;
unicode = 014C;
},
{
glyphname = Oslash;
layers = (
{
layerId = "73368993-97DB-45A8-8926-1DF7017D2006";
name = Light;
paths = (
{
closed = 1;
nodes = (
"369 38 LINE",
"174 139 OFFCURVE",
"67 364 OFFCURVE",
"67 659 CURVE SMOOTH",
"67 936 OFFCURVE",
"179 1154 OFFCURVE",
"363 1268 CURVE SMOOTH",
"454 1325 OFFCURVE",
"556 1353 OFFCURVE",
"667 1353 CURVE SMOOTH",
"738 1353 OFFCURVE",
"804 1343 OFFCURVE",
"863 1323 CURVE",
"933 1502 LINE",
"1002 1477 LINE",
"928 1295 LINE",
"1124 1196 OFFCURVE",
"1231 977 OFFCURVE",
"1231 682 CURVE SMOOTH",
"1231 405 OFFCURVE",
"1119 187 OFFCURVE",
"939 71 CURVE SMOOTH",
"758 -46 OFFCURVE",
"559 -31 OFFCURVE",
"435 10 CURVE",
"356 -179 LINE",
"286 -156 LINE"
);
},
{
closed = 1;
nodes = (
"231 431 OFFCURVE",
"296 247 OFFCURVE",
"416 147 CURVE",
"822 1228 LINE",
"771 1255 OFFCURVE",
"715 1269 OFFCURVE",
"652 1269 CURVE SMOOTH",
"483 1269 OFFCURVE",
"354 1179 OFFCURVE",
"284 997 CURVE SMOOTH",
"249 906 OFFCURVE",
"231 793 OFFCURVE",
"231 660 CURVE SMOOTH"
);
},
{
closed = 1;
nodes = (
"475 106 LINE",
"526 79 OFFCURVE",
"583 65 OFFCURVE",
"647 65 CURVE SMOOTH",
"814 65 OFFCURVE",
"943 159 OFFCURVE",
"1013 343 CURVE SMOOTH",
"1048 435 OFFCURVE",
"1065 548 OFFCURVE",
"1065 681 CURVE SMOOTH",
"1065 908 OFFCURVE",
"1000 1089 OFFCURVE",
"883 1188 CURVE"
);
}
);
width = 1297;
}
);
note = Oslash;
unicode = 00D8;
},
{
glyphname = Otilde;
layers = (
{
layerId = "73368993-97DB-45A8-8926-1DF7017D2006";
name = Light;
paths = (
{
closed = 1;
nodes = (
"458 1654 OFFCURVE",
"421 1623 OFFCURVE",
"401 1592 CURVE SMOOTH",
"391 1577 OFFCURVE",
"381 1559 OFFCURVE",
"372 1539 CURVE",
"297 1580 LINE",
"312 1636 OFFCURVE",
"356 1697 OFFCURVE",
"423 1735 CURVE SMOOTH",
"456 1754 OFFCURVE",
"493 1763 OFFCURVE",
"533 1763 CURVE SMOOTH",
"581 1763 OFFCURVE",
"619 1745 OFFCURVE",
"647 1722 CURVE",
"660 1710 OFFCURVE",
"675 1695 OFFCURVE",
"692 1676 CURVE SMOOTH",
"736 1629 OFFCURVE",
"761 1609 OFFCURVE",
"802 1609 CURVE SMOOTH",
"854 1609 OFFCURVE",
"889 1640 OFFCURVE",
"905 1668 CURVE SMOOTH",
"913 1681 OFFCURVE",
"922 1700 OFFCURVE",
"933 1725 CURVE",
"1008 1683 LINE",
"976 1579 OFFCURVE",
"901 1500 OFFCURVE",
"792 1500 CURVE SMOOTH",
"745 1500 OFFCURVE",
"706 1519 OFFCURVE",
"680 1541 CURVE SMOOTH",
"667 1552 OFFCURVE",
"650 1566 OFFCURVE",
"631 1585 CURVE SMOOTH",
"583 1632 OFFCURVE",
"556 1654 OFFCURVE",
"509 1654 CURVE SMOOTH"
);
},
{
closed = 1;
nodes = (
"66 936 OFFCURVE",
"178 1154 OFFCURVE",
"362 1268 CURVE SMOOTH",
"453 1325 OFFCURVE",
"555 1353 OFFCURVE",
"666 1353 CURVE SMOOTH",
"906 1353 OFFCURVE",
"1077 1239 OFFCURVE",
"1165 1037 CURVE SMOOTH",
"1208 936 OFFCURVE",
"1230 817 OFFCURVE",
"1230 682 CURVE SMOOTH",
"1230 402 OFFCURVE",
"1116 182 OFFCURVE",
"932 67 CURVE SMOOTH",
"839 9 OFFCURVE",
"737 -20 OFFCURVE",
"624 -20 CURVE SMOOTH",
"391 -20 OFFCURVE",
"219 99 OFFCURVE",
"132 304 CURVE SMOOTH",
"88 407 OFFCURVE",
"66 525 OFFCURVE",
"66 659 CURVE SMOOTH"
);
},
{
closed = 1;
nodes = (
"231 429 OFFCURVE",
"297 241 OFFCURVE",
"422 141 CURVE SMOOTH",
"485 90 OFFCURVE",
"559 65 OFFCURVE",
"646 65 CURVE SMOOTH",
"813 65 OFFCURVE",
"942 159 OFFCURVE",
"1012 343 CURVE SMOOTH",
"1047 435 OFFCURVE",
"1064 548 OFFCURVE",
"1064 681 CURVE SMOOTH",
"1064 912 OFFCURVE",
"998 1096 OFFCURVE",
"874 1195 CURVE SMOOTH",
"812 1244 OFFCURVE",
"738 1269 OFFCURVE",
"651 1269 CURVE SMOOTH",
"482 1269 OFFCURVE",
"352 1179 OFFCURVE",
"283 997 CURVE SMOOTH",
"248 906 OFFCURVE",
"231 793 OFFCURVE",
"231 660 CURVE SMOOTH"
);
}
);
width = 1296;
}
);
note = Otilde;
unicode = 00D5;
},
{
glyphname = OE;
layers = (
{
layerId = "73368993-97DB-45A8-8926-1DF7017D2006";
name = Light;
paths = (
{
closed = 1;
nodes = (
"911 58 LINE",
"826 10 OFFCURVE",
"731 -14 OFFCURVE",
"627 -14 CURVE SMOOTH",
"395 -14 OFFCURVE",
"222 105 OFFCURVE",
"133 309 CURVE SMOOTH",
"88 410 OFFCURVE",
"66 528 OFFCURVE",
"66 661 CURVE SMOOTH",
"66 940 OFFCURVE",
"183 1159 OFFCURVE",
"371 1274 CURVE SMOOTH",
"464 1331 OFFCURVE",
"568 1360 OFFCURVE",
"681 1360 CURVE SMOOTH",
"765 1360 OFFCURVE",
"842 1344 OFFCURVE",
"911 1312 CURVE",
"911 1339 LINE",
"1649 1339 LINE",
"1675 1069 LINE",
"1589 1069 LINE",
"1541 1244 LINE",
"1057 1253 LINE",
"1057 733 LINE",
"1391 738 LINE",
"1413 886 LINE",
"1505 886 LINE",
"1505 488 LINE",
"1413 488 LINE",
"1391 644 LINE",
"1057 649 LINE",
"1057 88 LINE",
"1615 106 LINE",
"1720 332 LINE",
"1805 308 LINE",
"1736 0 LINE",
"911 0 LINE"
);
},
{
closed = 1;
nodes = (
"911 1187 LINE",
"848 1248 OFFCURVE",
"763 1278 OFFCURVE",
"656 1278 CURVE SMOOTH",
"484 1278 OFFCURVE",
"352 1180 OFFCURVE",
"281 995 CURVE SMOOTH",
"246 902 OFFCURVE",
"228 791 OFFCURVE",
"228 662 CURVE SMOOTH",
"228 442 OFFCURVE",
"296 254 OFFCURVE",
"425 149 CURVE SMOOTH",
"489 96 OFFCURVE",
"565 70 OFFCURVE",
"652 70 CURVE SMOOTH",
"759 70 OFFCURVE",
"845 104 OFFCURVE",
"911 173 CURVE"
);
}
);
width = 1850;
}
);
note = OE;
unicode = 0152;
},
{
glyphname = P;
layers = (
{
layerId = "73368993-97DB-45A8-8926-1DF7017D2006";
name = Light;
paths = (
{
closed = 1;
nodes = (
"250 94 LINE",
"250 1242 LINE",
"106 1262 LINE",
"106 1339 LINE",
"325 1339 LINE SMOOTH",
"367 1339 OFFCURVE",
"411 1341 OFFCURVE",
"458 1346 CURVE SMOOTH",
"522 1351 OFFCURVE",
"583 1353 OFFCURVE",
"641 1353 CURVE SMOOTH",
"869 1353 OFFCURVE",
"1001 1292 OFFCURVE",
"1060 1181 CURVE SMOOTH",
"1089 1125 OFFCURVE",
"1104 1055 OFFCURVE",
"1104 972 CURVE SMOOTH",
"1104 784 OFFCURVE",
"1008 641 OFFCURVE",
"852 567 CURVE SMOOTH",
"773 530 OFFCURVE",
"686 511 OFFCURVE",
"590 511 CURVE SMOOTH",
"519 511 OFFCURVE",
"415 516 OFFCURVE",
"399 519 CURVE",
"399 95 LINE",
"649 77 LINE",
"649 0 LINE",
"96 0 LINE",
"96 77 LINE"
);
},
{
closed = 1;
nodes = (
"799 600 OFFCURVE",
"946 708 OFFCURVE",
"946 972 CURVE SMOOTH",
"946 1115 OFFCURVE",
"896 1197 OFFCURVE",
"793 1236 CURVE SMOOTH",
"742 1255 OFFCURVE",
"675 1265 OFFCURVE",
"594 1265 CURVE SMOOTH",
"557 1265 OFFCURVE",
"516 1263 OFFCURVE",
"469 1258 CURVE SMOOTH",
"440 1255 OFFCURVE",
"416 1254 OFFCURVE",
"399 1254 CURVE",
"399 608 LINE",
"428 603 OFFCURVE",
"492 600 OFFCURVE",
"592 600 CURVE SMOOTH"
);
}
);
width = 1155;
}
);
note = P;
unicode = 0050;
},
{
glyphname = Thorn;
layers = (
{
layerId = "73368993-97DB-45A8-8926-1DF7017D2006";
name = Light;
paths = (
{
closed = 1;
nodes = (
"244 93 LINE",
"244 1243 LINE",
"93 1264 LINE",
"93 1340 LINE",
"552 1340 LINE",
"552 1264 LINE",
"390 1243 LINE",
"390 1026 LINE",
"445 1030 LINE SMOOTH",
"520 1038 OFFCURVE",
"608 1044 OFFCURVE",
"677 1044 CURVE SMOOTH",
"938 1044 OFFCURVE",
"1088 923 OFFCURVE",
"1088 691 CURVE SMOOTH",
"1088 427 OFFCURVE",
"915 296 OFFCURVE",
"616 296 CURVE SMOOTH",
"503 296 OFFCURVE",
"442 296 OFFCURVE",
"390 303 CURVE",
"390 93 LINE",
"585 77 LINE",
"585 0 LINE",
"91 0 LINE",
"91 77 LINE"
);
},
{
closed = 1;
nodes = (
"925 865 OFFCURVE",
"823 957 OFFCURVE",
"619 957 CURVE SMOOTH",
"552 957 OFFCURVE",
"476 951 OFFCURVE",
"390 939 CURVE",
"390 385 LINE",
"432 380 OFFCURVE",
"487 377 OFFCURVE",
"555 377 CURVE SMOOTH",
"611 377 LINE SMOOTH",
"804 377 OFFCURVE",
"925 467 OFFCURVE",
"925 682 CURVE SMOOTH"
);
}
);
width = 1144;
}
);
note = Thorn;
unicode = 00DE;
},
{
glyphname = Q;
layers = (
{
layerId = "73368993-97DB-45A8-8926-1DF7017D2006";
name = Light;
paths = (
{
closed = 1;
nodes = (
"71 936 OFFCURVE",
"184 1154 OFFCURVE",
"367 1268 CURVE SMOOTH",
"458 1325 OFFCURVE",
"560 1353 OFFCURVE",
"671 1353 CURVE SMOOTH",
"911 1353 OFFCURVE",
"1082 1239 OFFCURVE",
"1170 1037 CURVE SMOOTH",
"1214 936 OFFCURVE",
"1236 817 OFFCURVE",
"1236 682 CURVE SMOOTH",
"1236 471 OFFCURVE",
"1171 294 OFFCURVE",
"1060 171 CURVE SMOOTH",
"1004 109 OFFCURVE",
"939 62 OFFCURVE",
"866 29 CURVE",
"947 24 OFFCURVE",
"1029 -6 OFFCURVE",
"1094 -40 CURVE SMOOTH",
"1127 -57 OFFCURVE",
"1169 -81 OFFCURVE",
"1220 -110 CURVE SMOOTH",
"1317 -166 OFFCURVE",
"1372 -197 OFFCURVE",
"1445 -220 CURVE SMOOTH",
"1482 -232 OFFCURVE",
"1519 -238 OFFCURVE",
"1556 -238 CURVE SMOOTH",
"1558 -238 LINE SMOOTH",
"1568 -238 OFFCURVE",
"1581 -237 OFFCURVE",
"1596 -236 CURVE",
"1614 -311 LINE",
"1590 -332 OFFCURVE",
"1531 -363 OFFCURVE",
"1478 -363 CURVE SMOOTH",
"1468 -363 LINE SMOOTH",
"1359 -363 OFFCURVE",
"1259 -322 OFFCURVE",
"1180 -269 CURVE SMOOTH",
"1141 -243 OFFCURVE",
"1094 -208 OFFCURVE",
"1040 -165 CURVE SMOOTH",
"957 -100 OFFCURVE",
"912 -66 OFFCURVE",
"851 -36 CURVE SMOOTH",
"820 -21 OFFCURVE",
"789 -11 OFFCURVE",
"758 -6 CURVE",
"718 -15 OFFCURVE",
"675 -20 OFFCURVE",
"629 -20 CURVE SMOOTH",
"396 -20 OFFCURVE",
"224 99 OFFCURVE",
"137 304 CURVE SMOOTH",
"93 407 OFFCURVE",
"71 525 OFFCURVE",
"71 659 CURVE SMOOTH"
);
},
{
closed = 1;
nodes = (
"236 429 OFFCURVE",
"303 241 OFFCURVE",
"428 141 CURVE SMOOTH",
"490 90 OFFCURVE",
"564 65 OFFCURVE",
"651 65 CURVE SMOOTH",
"818 65 OFFCURVE",
"947 159 OFFCURVE",
"1017 343 CURVE SMOOTH",
"1052 435 OFFCURVE",
"1069 548 OFFCURVE",
"1069 681 CURVE SMOOTH",
"1069 912 OFFCURVE",
"1003 1096 OFFCURVE",
"879 1195 CURVE SMOOTH",
"817 1244 OFFCURVE",
"743 1269 OFFCURVE",
"656 1269 CURVE SMOOTH",
"488 1269 OFFCURVE",
"359 1179 OFFCURVE",
"289 997 CURVE SMOOTH",
"254 906 OFFCURVE",
"236 793 OFFCURVE",
"236 660 CURVE SMOOTH"
);
}
);
width = 1306;
}
);
note = Q;
unicode = 0051;
},
{
glyphname = R;
layers = (
{
layerId = "73368993-97DB-45A8-8926-1DF7017D2006";
name = Light;
paths = (
{
closed = 1;
nodes = (
"245 93 LINE",
"245 1244 LINE",
"100 1265 LINE",
"100 1339 LINE",
"321 1339 LINE SMOOTH",
"354 1339 OFFCURVE",
"400 1341 OFFCURVE",
"459 1346 CURVE SMOOTH",
"517 1351 OFFCURVE",
"560 1353 OFFCURVE",
"588 1353 CURVE SMOOTH",
"820 1353 OFFCURVE",
"956 1301 OFFCURVE",
"1019 1198 CURVE SMOOTH",
"1050 1146 OFFCURVE",
"1066 1080 OFFCURVE",
"1066 1001 CURVE SMOOTH",
"1066 886 OFFCURVE",
"1022 778 OFFCURVE",
"940 702 CURVE SMOOTH",
"899 663 OFFCURVE",
"850 636 OFFCURVE",
"795 620 CURVE",
"856 580 OFFCURVE",
"917 483 OFFCURVE",
"1006 322 CURVE SMOOTH",
"1048 248 OFFCURVE",
"1081 193 OFFCURVE",
"1106 157 CURVE SMOOTH",
"1130 120 OFFCURVE",
"1152 100 OFFCURVE",
"1171 95 CURVE SMOOTH",
"1247 75 LINE",
"1247 0 LINE",
"1037 0 LINE SMOOTH",
"1017 0 OFFCURVE",
"994 22 OFFCURVE",
"968 65 CURVE SMOOTH",
"941 108 OFFCURVE",
"906 173 OFFCURVE",
"863 260 CURVE SMOOTH",
"815 356 OFFCURVE",
"775 431 OFFCURVE",
"742 486 CURVE SMOOTH",
"709 541 OFFCURVE",
"678 577 OFFCURVE",
"647 594 CURVE",
"524 594 OFFCURVE",
"439 595 OFFCURVE",
"393 596 CURVE",
"393 93 LINE",
"578 77 LINE",
"578 0 LINE",
"91 0 LINE",
"91 77 LINE"
);
},
{
closed = 1;
nodes = (
"636 683 LINE SMOOTH",
"801 683 OFFCURVE",
"906 788 OFFCURVE",
"906 988 CURVE SMOOTH",
"906 1164 OFFCURVE",
"818 1265 OFFCURVE",
"574 1265 CURVE SMOOTH",
"531 1265 OFFCURVE",
"489 1263 OFFCURVE",
"448 1258 CURVE SMOOTH",
"420 1255 OFFCURVE",
"402 1254 OFFCURVE",
"393 1254 CURVE",
"393 686 LINE",
"417 684 OFFCURVE",
"465 683 OFFCURVE",
"538 683 CURVE SMOOTH"
);
}
);
width = 1248;
}
);
note = R;
unicode = 0052;
},
{
glyphname = Racute;
layers = (
{
layerId = "73368993-97DB-45A8-8926-1DF7017D2006";
name = Light;
paths = (
{
closed = 1;
nodes = (
"245 93 LINE",
"245 1244 LINE",
"100 1265 LINE",
"100 1339 LINE",
"321 1339 LINE SMOOTH",
"354 1339 OFFCURVE",
"400 1341 OFFCURVE",
"459 1346 CURVE SMOOTH",
"517 1351 OFFCURVE",
"560 1353 OFFCURVE",
"588 1353 CURVE SMOOTH",
"820 1353 OFFCURVE",
"956 1301 OFFCURVE",
"1019 1198 CURVE SMOOTH",
"1050 1146 OFFCURVE",
"1066 1080 OFFCURVE",
"1066 1001 CURVE SMOOTH",
"1066 886 OFFCURVE",
"1022 778 OFFCURVE",
"940 702 CURVE SMOOTH",
"899 663 OFFCURVE",
"850 636 OFFCURVE",
"795 620 CURVE",
"856 580 OFFCURVE",
"917 483 OFFCURVE",
"1006 322 CURVE SMOOTH",
"1048 248 OFFCURVE",
"1081 193 OFFCURVE",
"1106 157 CURVE SMOOTH",
"1130 120 OFFCURVE",
"1152 100 OFFCURVE",
"1171 95 CURVE SMOOTH",
"1247 75 LINE",
"1247 0 LINE",
"1037 0 LINE SMOOTH",
"1017 0 OFFCURVE",
"994 22 OFFCURVE",
"968 65 CURVE SMOOTH",
"941 108 OFFCURVE",
"906 173 OFFCURVE",
"863 260 CURVE SMOOTH",
"815 356 OFFCURVE",
"775 431 OFFCURVE",
"742 486 CURVE SMOOTH",
"709 541 OFFCURVE",
"678 577 OFFCURVE",
"647 594 CURVE",
"524 594 OFFCURVE",
"439 595 OFFCURVE",
"393 596 CURVE",
"393 93 LINE",
"578 77 LINE",
"578 0 LINE",
"91 0 LINE",
"91 77 LINE"
);
},
{
closed = 1;
nodes = (
"636 683 LINE SMOOTH",
"801 683 OFFCURVE",
"906 788 OFFCURVE",
"906 988 CURVE SMOOTH",
"906 1164 OFFCURVE",
"818 1265 OFFCURVE",
"574 1265 CURVE SMOOTH",
"531 1265 OFFCURVE",
"489 1263 OFFCURVE",
"448 1258 CURVE SMOOTH",
"420 1255 OFFCURVE",
"402 1254 OFFCURVE",
"393 1254 CURVE",
"393 686 LINE",
"417 684 OFFCURVE",
"465 683 OFFCURVE",
"538 683 CURVE SMOOTH"
);
},
{
closed = 1;
nodes = (
"810 1767 LINE",
"811 1767 LINE",
"911 1674 LINE",
"874 1626 OFFCURVE",
"777 1560 OFFCURVE",
"680 1508 CURVE SMOOTH",
"631 1481 OFFCURVE",
"592 1461 OFFCURVE",
"562 1448 CURVE",
"561 1448 LINE",
"511 1495 LINE"
);
}
);
width = 1248;
}
);
note = Racute;
unicode = 0154;
},
{
glyphname = Rcaron;
layers = (
{
layerId = "73368993-97DB-45A8-8926-1DF7017D2006";
name = Light;
paths = (
{
closed = 1;
nodes = (
"412 1770 LINE",
"633 1590 LINE",
"858 1770 LINE",
"918 1733 LINE",
"702 1489 LINE",
"565 1489 LINE",
"347 1731 LINE"
);
},
{
closed = 1;
nodes = (
"245 93 LINE",
"245 1244 LINE",
"100 1265 LINE",
"100 1339 LINE",
"321 1339 LINE SMOOTH",
"354 1339 OFFCURVE",
"400 1341 OFFCURVE",
"459 1346 CURVE SMOOTH",
"517 1351 OFFCURVE",
"560 1353 OFFCURVE",
"588 1353 CURVE SMOOTH",
"820 1353 OFFCURVE",
"956 1301 OFFCURVE",
"1019 1198 CURVE SMOOTH",
"1050 1146 OFFCURVE",
"1066 1080 OFFCURVE",
"1066 1001 CURVE SMOOTH",
"1066 886 OFFCURVE",
"1022 778 OFFCURVE",
"940 702 CURVE SMOOTH",
"899 663 OFFCURVE",
"850 636 OFFCURVE",
"795 620 CURVE",
"856 580 OFFCURVE",
"917 483 OFFCURVE",
"1006 322 CURVE SMOOTH",
"1048 248 OFFCURVE",
"1081 193 OFFCURVE",
"1106 157 CURVE SMOOTH",
"1130 120 OFFCURVE",
"1152 100 OFFCURVE",
"1171 95 CURVE SMOOTH",
"1247 75 LINE",
"1247 0 LINE",
"1037 0 LINE SMOOTH",
"1017 0 OFFCURVE",
"994 22 OFFCURVE",
"968 65 CURVE SMOOTH",
"941 108 OFFCURVE",
"906 173 OFFCURVE",
"863 260 CURVE SMOOTH",
"815 356 OFFCURVE",
"775 431 OFFCURVE",
"742 486 CURVE SMOOTH",
"709 541 OFFCURVE",
"678 577 OFFCURVE",
"647 594 CURVE",
"524 594 OFFCURVE",
"439 595 OFFCURVE",
"393 596 CURVE",
"393 93 LINE",
"578 77 LINE",
"578 0 LINE",
"91 0 LINE",
"91 77 LINE"
);
},
{
closed = 1;
nodes = (
"636 683 LINE SMOOTH",
"801 683 OFFCURVE",
"906 788 OFFCURVE",
"906 988 CURVE SMOOTH",
"906 1164 OFFCURVE",
"818 1265 OFFCURVE",
"574 1265 CURVE SMOOTH",
"531 1265 OFFCURVE",
"489 1263 OFFCURVE",
"448 1258 CURVE SMOOTH",
"420 1255 OFFCURVE",
"402 1254 OFFCURVE",
"393 1254 CURVE",
"393 686 LINE",
"417 684 OFFCURVE",
"465 683 OFFCURVE",
"538 683 CURVE SMOOTH"
);
}
);
width = 1249;
}
);
note = Rcaron;
unicode = 0158;
},
{
glyphname = Rcommaaccent;
layers = (
{
layerId = "73368993-97DB-45A8-8926-1DF7017D2006";
name = Light;
paths = (
{
closed = 1;
nodes = (
"653 -490 LINE",
"606 -457 LINE",
"606 -445 LINE",
"641 -426 OFFCURVE",
"667 -371 OFFCURVE",
"667 -316 CURVE SMOOTH",
"667 -283 OFFCURVE",
"652 -266 OFFCURVE",
"629 -251 CURVE",
"606 -234 OFFCURVE",
"594 -218 OFFCURVE",
"594 -183 CURVE SMOOTH",
"594 -143 OFFCURVE",
"616 -120 OFFCURVE",
"641 -111 CURVE",
"653 -106 OFFCURVE",
"664 -104 OFFCURVE",
"674 -104 CURVE SMOOTH",
"682 -104 LINE SMOOTH",
"749 -104 OFFCURVE",
"791 -157 OFFCURVE",
"791 -249 CURVE SMOOTH",
"791 -337 OFFCURVE",
"747 -410 OFFCURVE",
"703 -453 CURVE SMOOTH",
"681 -474 OFFCURVE",
"665 -487 OFFCURVE",
"655 -490 CURVE"
);
},
{
closed = 1;
nodes = (
"245 93 LINE",
"245 1244 LINE",
"100 1265 LINE",
"100 1339 LINE",
"321 1339 LINE SMOOTH",
"354 1339 OFFCURVE",
"400 1341 OFFCURVE",
"459 1346 CURVE SMOOTH",
"517 1351 OFFCURVE",
"560 1353 OFFCURVE",
"588 1353 CURVE SMOOTH",
"820 1353 OFFCURVE",
"956 1301 OFFCURVE",
"1019 1198 CURVE SMOOTH",
"1050 1146 OFFCURVE",
"1066 1080 OFFCURVE",
"1066 1001 CURVE SMOOTH",
"1066 886 OFFCURVE",
"1022 778 OFFCURVE",
"940 702 CURVE SMOOTH",
"899 663 OFFCURVE",
"850 636 OFFCURVE",
"795 620 CURVE",
"856 580 OFFCURVE",
"917 483 OFFCURVE",
"1006 322 CURVE SMOOTH",
"1048 248 OFFCURVE",
"1081 193 OFFCURVE",
"1106 157 CURVE SMOOTH",
"1130 120 OFFCURVE",
"1152 100 OFFCURVE",
"1171 95 CURVE SMOOTH",
"1247 75 LINE",
"1247 0 LINE",
"1037 0 LINE SMOOTH",
"1017 0 OFFCURVE",
"994 22 OFFCURVE",
"968 65 CURVE SMOOTH",
"941 108 OFFCURVE",
"906 173 OFFCURVE",
"863 260 CURVE SMOOTH",
"815 356 OFFCURVE",
"775 431 OFFCURVE",
"742 486 CURVE SMOOTH",
"709 541 OFFCURVE",
"678 577 OFFCURVE",
"647 594 CURVE",
"524 594 OFFCURVE",
"439 595 OFFCURVE",
"393 596 CURVE",
"393 93 LINE",
"578 77 LINE",
"578 0 LINE",
"91 0 LINE",
"91 77 LINE"
);
},
{
closed = 1;
nodes = (
"636 683 LINE SMOOTH",
"801 683 OFFCURVE",
"906 788 OFFCURVE",
"906 988 CURVE SMOOTH",
"906 1164 OFFCURVE",
"818 1265 OFFCURVE",
"574 1265 CURVE SMOOTH",
"531 1265 OFFCURVE",
"489 1263 OFFCURVE",
"448 1258 CURVE SMOOTH",
"420 1255 OFFCURVE",
"402 1254 OFFCURVE",
"393 1254 CURVE",
"393 686 LINE",
"417 684 OFFCURVE",
"465 683 OFFCURVE",
"538 683 CURVE SMOOTH"
);
}
);
width = 1249;
}
);
note = Rcommaaccent;
unicode = 0156;
},
{
glyphname = S;
layers = (
{
layerId = "73368993-97DB-45A8-8926-1DF7017D2006";
name = Light;
paths = (
{
closed = 1;
nodes = (
"132 385 LINE",
"224 385 LINE",
"252 148 LINE",
"297 104 OFFCURVE",
"407 68 OFFCURVE",
"524 68 CURVE SMOOTH",
"720 68 OFFCURVE",
"826 163 OFFCURVE",
"826 319 CURVE SMOOTH",
"826 418 OFFCURVE",
"767 486 OFFCURVE",
"681 535 CURVE SMOOTH",
"638 560 OFFCURVE",
"578 588 OFFCURVE",
"502 620 CURVE SMOOTH",
"362 681 OFFCURVE",
"266 730 OFFCURVE",
"192 831 CURVE SMOOTH",
"155 881 OFFCURVE",
"136 942 OFFCURVE",
"136 1014 CURVE SMOOTH",
"136 1147 OFFCURVE",
"212 1254 OFFCURVE",
"340 1311 CURVE SMOOTH",
"404 1339 OFFCURVE",
"477 1353 OFFCURVE",
"560 1353 CURVE SMOOTH",
"663 1353 OFFCURVE",
"742 1334 OFFCURVE",
"842 1305 CURVE SMOOTH",
"866 1298 OFFCURVE",
"886 1292 OFFCURVE",
"901 1289 CURVE",
"890 993 LINE",
"801 993 LINE",
"767 1217 LINE",
"739 1242 OFFCURVE",
"645 1268 OFFCURVE",
"552 1268 CURVE SMOOTH",
"372 1268 OFFCURVE",
"277 1195 OFFCURVE",
"277 1051 CURVE SMOOTH",
"277 955 OFFCURVE",
"329 895 OFFCURVE",
"406 849 CURVE SMOOTH",
"444 826 OFFCURVE",
"501 796 OFFCURVE",
"576 760 CURVE SMOOTH",
"596 751 LINE",
"615 742 LINE SMOOTH",
"774 667 OFFCURVE",
"862 619 OFFCURVE",
"931 526 CURVE SMOOTH",
"965 479 OFFCURVE",
"982 424 OFFCURVE",
"982 359 CURVE SMOOTH",
"982 231 OFFCURVE",
"905 107 OFFCURVE",
"764 35 CURVE SMOOTH",
"693 -2 OFFCURVE",
"611 -20 OFFCURVE",
"516 -20 CURVE SMOOTH",
"392 -20 OFFCURVE",
"301 5 OFFCURVE",
"192 41 CURVE",
"183 45 OFFCURVE",
"137 61 OFFCURVE",
"117 62 CURVE"
);
}
);
width = 1059;
}
);
note = S;
unicode = 0053;
},
{
glyphname = Sacute;
layers = (
{
layerId = "73368993-97DB-45A8-8926-1DF7017D2006";
name = Light;
paths = (
{
closed = 1;
nodes = (
"132 385 LINE",
"224 385 LINE",
"252 148 LINE",
"297 104 OFFCURVE",
"407 68 OFFCURVE",
"524 68 CURVE SMOOTH",
"720 68 OFFCURVE",
"826 163 OFFCURVE",
"826 319 CURVE SMOOTH",
"826 418 OFFCURVE",
"767 486 OFFCURVE",
"681 535 CURVE SMOOTH",
"638 560 OFFCURVE",
"578 588 OFFCURVE",
"502 620 CURVE SMOOTH",
"362 681 OFFCURVE",
"266 730 OFFCURVE",
"192 831 CURVE SMOOTH",
"155 881 OFFCURVE",
"136 942 OFFCURVE",
"136 1014 CURVE SMOOTH",
"136 1147 OFFCURVE",
"212 1254 OFFCURVE",
"340 1311 CURVE SMOOTH",
"404 1339 OFFCURVE",
"477 1353 OFFCURVE",
"560 1353 CURVE SMOOTH",
"663 1353 OFFCURVE",
"742 1334 OFFCURVE",
"842 1305 CURVE SMOOTH",
"866 1298 OFFCURVE",
"886 1292 OFFCURVE",
"901 1289 CURVE",
"890 993 LINE",
"801 993 LINE",
"767 1217 LINE",
"739 1242 OFFCURVE",
"645 1268 OFFCURVE",
"552 1268 CURVE SMOOTH",
"372 1268 OFFCURVE",
"277 1195 OFFCURVE",
"277 1051 CURVE SMOOTH",
"277 955 OFFCURVE",
"329 895 OFFCURVE",
"406 849 CURVE SMOOTH",
"444 826 OFFCURVE",
"501 796 OFFCURVE",
"576 760 CURVE SMOOTH",
"596 751 LINE",
"615 742 LINE SMOOTH",
"774 667 OFFCURVE",
"862 619 OFFCURVE",
"931 526 CURVE SMOOTH",
"965 479 OFFCURVE",
"982 424 OFFCURVE",
"982 359 CURVE SMOOTH",
"982 231 OFFCURVE",
"905 107 OFFCURVE",
"764 35 CURVE SMOOTH",
"693 -2 OFFCURVE",
"611 -20 OFFCURVE",
"516 -20 CURVE SMOOTH",
"392 -20 OFFCURVE",
"301 5 OFFCURVE",
"192 41 CURVE",
"183 45 OFFCURVE",
"137 61 OFFCURVE",
"117 62 CURVE"
);
},
{
closed = 1;
nodes = (
"747 1767 LINE",
"748 1767 LINE",
"848 1674 LINE",
"811 1626 OFFCURVE",
"714 1560 OFFCURVE",
"617 1508 CURVE SMOOTH",
"568 1481 OFFCURVE",
"529 1461 OFFCURVE",
"499 1448 CURVE",
"498 1448 LINE",
"448 1495 LINE"
);
}
);
width = 1059;
}
);
note = Sacute;
unicode = 015A;
},
{
glyphname = Scaron;
layers = (
{
layerId = "73368993-97DB-45A8-8926-1DF7017D2006";
name = Light;
paths = (
{
closed = 1;
nodes = (
"132 385 LINE",
"224 385 LINE",
"252 148 LINE",
"297 104 OFFCURVE",
"407 68 OFFCURVE",
"524 68 CURVE SMOOTH",
"720 68 OFFCURVE",
"826 163 OFFCURVE",
"826 319 CURVE SMOOTH",
"826 418 OFFCURVE",
"767 486 OFFCURVE",
"681 535 CURVE SMOOTH",
"638 560 OFFCURVE",
"578 588 OFFCURVE",
"502 620 CURVE SMOOTH",
"362 681 OFFCURVE",
"266 730 OFFCURVE",
"192 831 CURVE SMOOTH",
"155 881 OFFCURVE",
"136 942 OFFCURVE",
"136 1014 CURVE SMOOTH",
"136 1147 OFFCURVE",
"212 1254 OFFCURVE",
"340 1311 CURVE SMOOTH",
"404 1339 OFFCURVE",
"477 1353 OFFCURVE",
"560 1353 CURVE SMOOTH",
"663 1353 OFFCURVE",
"742 1334 OFFCURVE",
"842 1305 CURVE SMOOTH",
"866 1298 OFFCURVE",
"886 1292 OFFCURVE",
"901 1289 CURVE",
"890 993 LINE",
"801 993 LINE",
"767 1217 LINE",
"739 1242 OFFCURVE",
"645 1268 OFFCURVE",
"552 1268 CURVE SMOOTH",
"372 1268 OFFCURVE",
"277 1195 OFFCURVE",
"277 1051 CURVE SMOOTH",
"277 955 OFFCURVE",
"329 895 OFFCURVE",
"406 849 CURVE SMOOTH",
"444 826 OFFCURVE",
"501 796 OFFCURVE",
"576 760 CURVE SMOOTH",
"596 751 LINE",
"615 742 LINE SMOOTH",
"774 667 OFFCURVE",
"862 619 OFFCURVE",
"931 526 CURVE SMOOTH",
"965 479 OFFCURVE",
"982 424 OFFCURVE",
"982 359 CURVE SMOOTH",
"982 231 OFFCURVE",
"905 107 OFFCURVE",
"764 35 CURVE SMOOTH",
"693 -2 OFFCURVE",
"611 -20 OFFCURVE",
"516 -20 CURVE SMOOTH",
"392 -20 OFFCURVE",
"301 5 OFFCURVE",
"192 41 CURVE",
"183 45 OFFCURVE",
"137 61 OFFCURVE",
"117 62 CURVE"
);
},
{
closed = 1;
nodes = (
"348 1770 LINE",
"569 1590 LINE",
"794 1770 LINE",
"854 1733 LINE",
"638 1489 LINE",
"501 1489 LINE",
"283 1731 LINE"
);
}
);
width = 1059;
}
);
note = Scaron;
unicode = 0160;
},
{
glyphname = Scircumflex;
layers = (
{
layerId = "73368993-97DB-45A8-8926-1DF7017D2006";
name = Light;
paths = (
{
closed = 1;
nodes = (
"132 385 LINE",
"224 385 LINE",
"252 148 LINE",
"297 104 OFFCURVE",
"407 68 OFFCURVE",
"524 68 CURVE SMOOTH",
"720 68 OFFCURVE",
"826 163 OFFCURVE",
"826 319 CURVE SMOOTH",
"826 418 OFFCURVE",
"767 486 OFFCURVE",
"681 535 CURVE SMOOTH",
"638 560 OFFCURVE",
"578 588 OFFCURVE",
"502 620 CURVE SMOOTH",
"362 681 OFFCURVE",
"266 730 OFFCURVE",
"192 831 CURVE SMOOTH",
"155 881 OFFCURVE",
"136 942 OFFCURVE",
"136 1014 CURVE SMOOTH",
"136 1147 OFFCURVE",
"212 1254 OFFCURVE",
"340 1311 CURVE SMOOTH",
"404 1339 OFFCURVE",
"477 1353 OFFCURVE",
"560 1353 CURVE SMOOTH",
"663 1353 OFFCURVE",
"742 1334 OFFCURVE",
"842 1305 CURVE SMOOTH",
"866 1298 OFFCURVE",
"886 1292 OFFCURVE",
"901 1289 CURVE",
"890 993 LINE",
"801 993 LINE",
"767 1217 LINE",
"739 1242 OFFCURVE",
"645 1268 OFFCURVE",
"552 1268 CURVE SMOOTH",
"372 1268 OFFCURVE",
"277 1195 OFFCURVE",
"277 1051 CURVE SMOOTH",
"277 955 OFFCURVE",
"329 895 OFFCURVE",
"406 849 CURVE SMOOTH",
"444 826 OFFCURVE",
"501 796 OFFCURVE",
"576 760 CURVE SMOOTH",
"596 751 LINE",
"615 742 LINE SMOOTH",
"774 667 OFFCURVE",
"862 619 OFFCURVE",
"931 526 CURVE SMOOTH",
"965 479 OFFCURVE",
"982 424 OFFCURVE",
"982 359 CURVE SMOOTH",
"982 231 OFFCURVE",
"905 107 OFFCURVE",
"764 35 CURVE SMOOTH",
"693 -2 OFFCURVE",
"611 -20 OFFCURVE",
"516 -20 CURVE SMOOTH",
"392 -20 OFFCURVE",
"301 5 OFFCURVE",
"192 41 CURVE",
"183 45 OFFCURVE",
"137 61 OFFCURVE",
"117 62 CURVE"
);
},
{
closed = 1;
nodes = (
"499 1772 LINE",
"634 1772 LINE",
"867 1512 LINE",
"801 1472 LINE",
"567 1663 LINE",
"328 1472 LINE",
"268 1510 LINE"
);
}
);
width = 1059;
}
);
note = Scircumflex;
unicode = 015C;
},
{
glyphname = Scommaaccent;
layers = (
{
layerId = "73368993-97DB-45A8-8926-1DF7017D2006";
name = Light;
paths = (
{
closed = 1;
nodes = (
"516 -490 LINE",
"469 -457 LINE",
"469 -445 LINE",
"504 -426 OFFCURVE",
"530 -371 OFFCURVE",
"530 -316 CURVE SMOOTH",
"530 -283 OFFCURVE",
"515 -266 OFFCURVE",
"492 -251 CURVE",
"469 -234 OFFCURVE",
"457 -218 OFFCURVE",
"457 -183 CURVE SMOOTH",
"457 -143 OFFCURVE",
"479 -120 OFFCURVE",
"504 -111 CURVE",
"516 -106 OFFCURVE",
"527 -104 OFFCURVE",
"537 -104 CURVE SMOOTH",
"545 -104 LINE SMOOTH",
"612 -104 OFFCURVE",
"654 -157 OFFCURVE",
"654 -249 CURVE SMOOTH",
"654 -337 OFFCURVE",
"610 -410 OFFCURVE",
"566 -453 CURVE SMOOTH",
"544 -474 OFFCURVE",
"528 -487 OFFCURVE",
"518 -490 CURVE"
);
},
{
closed = 1;
nodes = (
"132 385 LINE",
"224 385 LINE",
"252 148 LINE",
"297 104 OFFCURVE",
"407 68 OFFCURVE",
"524 68 CURVE SMOOTH",
"720 68 OFFCURVE",
"826 163 OFFCURVE",
"826 319 CURVE SMOOTH",
"826 418 OFFCURVE",
"767 486 OFFCURVE",
"681 535 CURVE SMOOTH",
"638 560 OFFCURVE",
"578 588 OFFCURVE",
"502 620 CURVE SMOOTH",
"362 681 OFFCURVE",
"266 730 OFFCURVE",
"192 831 CURVE SMOOTH",
"155 881 OFFCURVE",
"136 942 OFFCURVE",
"136 1014 CURVE SMOOTH",
"136 1147 OFFCURVE",
"212 1254 OFFCURVE",
"340 1311 CURVE SMOOTH",
"404 1339 OFFCURVE",
"477 1353 OFFCURVE",
"560 1353 CURVE SMOOTH",
"663 1353 OFFCURVE",
"742 1334 OFFCURVE",
"842 1305 CURVE SMOOTH",
"866 1298 OFFCURVE",
"886 1292 OFFCURVE",
"901 1289 CURVE",
"890 993 LINE",
"801 993 LINE",
"767 1217 LINE",
"739 1242 OFFCURVE",
"645 1268 OFFCURVE",
"552 1268 CURVE SMOOTH",
"372 1268 OFFCURVE",
"277 1195 OFFCURVE",
"277 1051 CURVE SMOOTH",
"277 955 OFFCURVE",
"329 895 OFFCURVE",
"406 849 CURVE SMOOTH",
"444 826 OFFCURVE",
"501 796 OFFCURVE",
"576 760 CURVE SMOOTH",
"596 751 LINE",
"615 742 LINE SMOOTH",
"774 667 OFFCURVE",
"862 619 OFFCURVE",
"931 526 CURVE SMOOTH",
"965 479 OFFCURVE",
"982 424 OFFCURVE",
"982 359 CURVE SMOOTH",
"982 231 OFFCURVE",
"905 107 OFFCURVE",
"764 35 CURVE SMOOTH",
"693 -2 OFFCURVE",
"611 -20 OFFCURVE",
"516 -20 CURVE SMOOTH",
"392 -20 OFFCURVE",
"301 5 OFFCURVE",
"192 41 CURVE",
"183 45 OFFCURVE",
"137 61 OFFCURVE",
"117 62 CURVE"
);
}
);
width = 1059;
}
);
note = Scommaaccent;
unicode = 0218;
},
{
glyphname = uni1E9E;
layers = (
{
layerId = "73368993-97DB-45A8-8926-1DF7017D2006";
name = Light;
paths = (
{
closed = 1;
nodes = (
"36 75 LINE",
"147 94 LINE",
"148 802 LINE SMOOTH",
"148 1003 OFFCURVE",
"255 1182 OFFCURVE",
"428 1280 CURVE SMOOTH",
"515 1329 OFFCURVE",
"610 1353 OFFCURVE",
"714 1353 CURVE SMOOTH",
"867 1353 OFFCURVE",
"979 1318 OFFCURVE",
"1083 1254 CURVE",
"1083 1192 LINE",
"852 824 LINE",
"859 819 OFFCURVE",
"867 815 OFFCURVE",
"876 811 CURVE",
"884 806 OFFCURVE",
"892 802 OFFCURVE",
"900 797 CURVE",
"1043 722 OFFCURVE",
"1130 669 OFFCURVE",
"1199 563 CURVE SMOOTH",
"1233 510 OFFCURVE",
"1250 446 OFFCURVE",
"1250 373 CURVE SMOOTH",
"1250 226 OFFCURVE",
"1184 101 OFFCURVE",
"1069 32 CURVE SMOOTH",
"1011 -3 OFFCURVE",
"944 -20 OFFCURVE",
"869 -20 CURVE SMOOTH",
"772 -20 OFFCURVE",
"693 2 OFFCURVE",
"605 34 CURVE SMOOTH",
"592 39 OFFCURVE",
"579 43 OFFCURVE",
"568 47 CURVE SMOOTH",
"557 51 OFFCURVE",
"548 53 OFFCURVE",
"541 54 CURVE",
"552 360 LINE",
"644 360 LINE",
"673 133 LINE",
"702 94 OFFCURVE",
"792 64 OFFCURVE",
"877 64 CURVE SMOOTH",
"1012 64 OFFCURVE",
"1104 150 OFFCURVE",
"1104 341 CURVE SMOOTH",
"1104 470 OFFCURVE",
"991 577 OFFCURVE",
"884 639 CURVE SMOOTH",
"830 670 OFFCURVE",
"769 700 OFFCURVE",
"700 731 CURVE",
"700 767 LINE",
"943 1176 LINE",
"896 1225 OFFCURVE",
"812 1270 OFFCURVE",
"668 1270 CURVE SMOOTH",
"535 1270 OFFCURVE",
"416 1198 OFFCURVE",
"349 1066 CURVE SMOOTH",
"315 1000 OFFCURVE",
"298 923 OFFCURVE",
"298 834 CURVE SMOOTH",
"298 0 LINE",
"36 0 LINE"
);
}
);
width = 1291;
}
);
note = uni1E9E;
unicode = 1E9E;
},
{
glyphname = uni018F;
layers = (
{
layerId = "73368993-97DB-45A8-8926-1DF7017D2006";
name = Light;
paths = (
{
closed = 1;
nodes = (
"86 607 OFFCURVE",
"88 649 OFFCURVE",
"96 686 CURVE",
"965 686 LINE",
"965 697 LINE",
"956 938 OFFCURVE",
"876 1112 OFFCURVE",
"755 1200 CURVE SMOOTH",
"694 1243 OFFCURVE",
"627 1265 OFFCURVE",
"554 1265 CURVE SMOOTH",
"402 1265 OFFCURVE",
"310 1225 OFFCURVE",
"246 1170 CURVE",
"212 1025 LINE",
"118 1026 LINE",
"128 1284 LINE",
"160 1285 OFFCURVE",
"190 1291 OFFCURVE",
"247 1307 CURVE SMOOTH",
"359 1336 OFFCURVE",
"445 1353 OFFCURVE",
"584 1353 CURVE SMOOTH",
"799 1353 OFFCURVE",
"964 1235 OFFCURVE",
"1052 1031 CURVE SMOOTH",
"1095 928 OFFCURVE",
"1117 811 OFFCURVE",
"1117 678 CURVE SMOOTH",
"1117 406 OFFCURVE",
"1010 187 OFFCURVE",
"835 69 CURVE SMOOTH",
"747 10 OFFCURVE",
"648 -20 OFFCURVE",
"539 -20 CURVE SMOOTH",
"360 -20 OFFCURVE",
"221 66 OFFCURVE",
"146 226 CURVE SMOOTH",
"109 305 OFFCURVE",
"89 401 OFFCURVE",
"86 512 CURVE"
);
},
{
closed = 1;
nodes = (
"246 598 LINE",
"241 563 OFFCURVE",
"239 531 OFFCURVE",
"239 500 CURVE SMOOTH",
"239 359 OFFCURVE",
"289 222 OFFCURVE",
"390 139 CURVE SMOOTH",
"441 98 OFFCURVE",
"503 77 OFFCURVE",
"577 77 CURVE SMOOTH",
"724 77 OFFCURVE",
"842 148 OFFCURVE",
"911 303 CURVE SMOOTH",
"945 380 OFFCURVE",
"963 479 OFFCURVE",
"966 598 CURVE"
);
}
);
width = 1180;
}
);
note = uni018F;
unicode = 018F;
},
{
glyphname = T;
layers = (
{
layerId = "73368993-97DB-45A8-8926-1DF7017D2006";
name = Light;
paths = (
{
closed = 1;
nodes = (
"532 94 LINE",
"532 1258 LINE",
"189 1248 LINE",
"131 881 LINE",
"33 881 LINE",
"62 1339 LINE",
"1161 1339 LINE",
"1181 881 LINE",
"1084 881 LINE",
"1034 1248 LINE",
"687 1258 LINE",
"687 94 LINE",
"944 77 LINE",
"944 0 LINE",
"296 0 LINE",
"296 77 LINE"
);
}
);
width = 1223;
}
);
note = T;
unicode = 0054;
},
{
glyphname = Tbar;
layers = (
{
layerId = "73368993-97DB-45A8-8926-1DF7017D2006";
name = Light;
paths = (
{
closed = 1;
nodes = (
"549 696 LINE",
"549 1258 LINE",
"207 1248 LINE",
"149 881 LINE",
"50 881 LINE",
"80 1339 LINE",
"1178 1339 LINE",
"1199 881 LINE",
"1102 881 LINE",
"1052 1248 LINE",
"705 1258 LINE",
"705 696 LINE",
"932 696 LINE",
"932 598 LINE",
"705 598 LINE",
"705 94 LINE",
"962 77 LINE",
"962 0 LINE",
"313 0 LINE",
"313 77 LINE",
"549 94 LINE",
"549 598 LINE",
"324 598 LINE",
"324 696 LINE"
);
}
);
width = 1256;
}
);
note = Tbar;
unicode = 0166;
},
{
glyphname = Tcaron;
layers = (
{
layerId = "73368993-97DB-45A8-8926-1DF7017D2006";
name = Light;
paths = (
{
closed = 1;
nodes = (
"405 1770 LINE",
"626 1590 LINE",
"851 1770 LINE",
"911 1733 LINE",
"695 1489 LINE",
"558 1489 LINE",
"340 1731 LINE"
);
},
{
closed = 1;
nodes = (
"532 94 LINE",
"532 1258 LINE",
"189 1248 LINE",
"131 881 LINE",
"33 881 LINE",
"62 1339 LINE",
"1161 1339 LINE",
"1181 881 LINE",
"1084 881 LINE",
"1034 1248 LINE",
"687 1258 LINE",
"687 94 LINE",
"944 77 LINE",
"944 0 LINE",
"296 0 LINE",
"296 77 LINE"
);
}
);
width = 1223;
}
);
note = Tcaron;
unicode = 0164;
},
{
glyphname = U;
layers = (
{
layerId = "73368993-97DB-45A8-8926-1DF7017D2006";
name = Light;
paths = (
{
closed = 1;
nodes = (
"183 1242 LINE",
"49 1262 LINE",
"49 1339 LINE",
"490 1339 LINE",
"490 1262 LINE",
"335 1242 LINE",
"335 557 LINE SMOOTH",
"335 205 OFFCURVE",
"467 73 OFFCURVE",
"698 73 CURVE SMOOTH",
"927 73 OFFCURVE",
"1046 235 OFFCURVE",
"1046 543 CURVE SMOOTH",
"1046 1241 LINE",
"898 1262 LINE",
"898 1339 LINE",
"1298 1339 LINE",
"1298 1262 LINE",
"1160 1242 LINE",
"1160 550 LINE SMOOTH",
"1160 298 OFFCURVE",
"1074 127 OFFCURVE",
"932 47 CURVE SMOOTH",
"861 6 OFFCURVE",
"778 -14 OFFCURVE",
"684 -14 CURVE SMOOTH",
"452 -14 OFFCURVE",
"307 71 OFFCURVE",
"236 243 CURVE SMOOTH",
"201 329 OFFCURVE",
"183 439 OFFCURVE",
"183 573 CURVE SMOOTH"
);
}
);
width = 1330;
}
);
note = U;
unicode = 0055;
},
{
glyphname = Uacute;
layers = (
{
layerId = "73368993-97DB-45A8-8926-1DF7017D2006";
name = Light;
paths = (
{
closed = 1;
nodes = (
"878 1767 LINE",
"879 1767 LINE",
"979 1674 LINE",
"942 1626 OFFCURVE",
"845 1560 OFFCURVE",
"748 1508 CURVE SMOOTH",
"699 1481 OFFCURVE",
"660 1461 OFFCURVE",
"630 1448 CURVE",
"629 1448 LINE",
"579 1495 LINE"
);
},
{
closed = 1;
nodes = (
"183 1242 LINE",
"49 1262 LINE",
"49 1339 LINE",
"490 1339 LINE",
"490 1262 LINE",
"335 1242 LINE",
"335 557 LINE SMOOTH",
"335 205 OFFCURVE",
"467 73 OFFCURVE",
"698 73 CURVE SMOOTH",
"927 73 OFFCURVE",
"1046 235 OFFCURVE",
"1046 543 CURVE SMOOTH",
"1046 1241 LINE",
"898 1262 LINE",
"898 1339 LINE",
"1298 1339 LINE",
"1298 1262 LINE",
"1160 1242 LINE",
"1160 550 LINE SMOOTH",
"1160 298 OFFCURVE",
"1074 127 OFFCURVE",
"932 47 CURVE SMOOTH",
"861 6 OFFCURVE",
"778 -14 OFFCURVE",
"684 -14 CURVE SMOOTH",
"452 -14 OFFCURVE",
"307 71 OFFCURVE",
"236 243 CURVE SMOOTH",
"201 329 OFFCURVE",
"183 439 OFFCURVE",
"183 573 CURVE SMOOTH"
);
}
);
width = 1330;
}
);
note = Uacute;
unicode = 00DA;
},
{
glyphname = Ubreve;
layers = (
{
layerId = "73368993-97DB-45A8-8926-1DF7017D2006";
name = Light;
paths = (
{
closed = 1;
nodes = (
"410 1735 OFFCURVE",
"411 1747 OFFCURVE",
"412 1756 CURVE",
"494 1756 LINE",
"494 1747 OFFCURVE",
"495 1738 OFFCURVE",
"497 1731 CURVE",
"502 1682 OFFCURVE",
"528 1631 OFFCURVE",
"588 1599 CURVE SMOOTH",
"618 1583 OFFCURVE",
"656 1575 OFFCURVE",
"702 1575 CURVE SMOOTH",
"795 1575 OFFCURVE",
"853 1612 OFFCURVE",
"880 1659 CURVE SMOOTH",
"893 1682 OFFCURVE",
"901 1707 OFFCURVE",
"903 1732 CURVE",
"904 1739 OFFCURVE",
"905 1747 OFFCURVE",
"905 1756 CURVE",
"984 1756 LINE",
"985 1747 OFFCURVE",
"986 1735 OFFCURVE",
"986 1720 CURVE SMOOTH",
"986 1621 OFFCURVE",
"939 1538 OFFCURVE",
"853 1491 CURVE SMOOTH",
"810 1468 OFFCURVE",
"759 1456 OFFCURVE",
"701 1456 CURVE SMOOTH",
"580 1456 OFFCURVE",
"491 1505 OFFCURVE",
"445 1585 CURVE SMOOTH",
"422 1625 OFFCURVE",
"410 1670 OFFCURVE",
"410 1720 CURVE SMOOTH"
);
},
{
closed = 1;
nodes = (
"183 1242 LINE",
"49 1262 LINE",
"49 1339 LINE",
"490 1339 LINE",
"490 1262 LINE",
"335 1242 LINE",
"335 557 LINE SMOOTH",
"335 205 OFFCURVE",
"467 73 OFFCURVE",
"698 73 CURVE SMOOTH",
"927 73 OFFCURVE",
"1046 235 OFFCURVE",
"1046 543 CURVE SMOOTH",
"1046 1241 LINE",
"898 1262 LINE",
"898 1339 LINE",
"1298 1339 LINE",
"1298 1262 LINE",
"1160 1242 LINE",
"1160 550 LINE SMOOTH",
"1160 298 OFFCURVE",
"1074 127 OFFCURVE",
"932 47 CURVE SMOOTH",
"861 6 OFFCURVE",
"778 -14 OFFCURVE",
"684 -14 CURVE SMOOTH",
"452 -14 OFFCURVE",
"307 71 OFFCURVE",
"236 243 CURVE SMOOTH",
"201 329 OFFCURVE",
"183 439 OFFCURVE",
"183 573 CURVE SMOOTH"
);
}
);
width = 1330;
}
);
note = Ubreve;
unicode = 016C;
},
{
glyphname = Ucircumflex;
layers = (
{
layerId = "73368993-97DB-45A8-8926-1DF7017D2006";
name = Light;
paths = (
{
closed = 1;
nodes = (
"183 1242 LINE",
"49 1262 LINE",
"49 1339 LINE",
"490 1339 LINE",
"490 1262 LINE",
"335 1242 LINE",
"335 557 LINE SMOOTH",
"335 205 OFFCURVE",
"467 73 OFFCURVE",
"698 73 CURVE SMOOTH",
"927 73 OFFCURVE",
"1046 235 OFFCURVE",
"1046 543 CURVE SMOOTH",
"1046 1241 LINE",
"898 1262 LINE",
"898 1339 LINE",
"1298 1339 LINE",
"1298 1262 LINE",
"1160 1242 LINE",
"1160 550 LINE SMOOTH",
"1160 298 OFFCURVE",
"1074 127 OFFCURVE",
"932 47 CURVE SMOOTH",
"861 6 OFFCURVE",
"778 -14 OFFCURVE",
"684 -14 CURVE SMOOTH",
"452 -14 OFFCURVE",
"307 71 OFFCURVE",
"236 243 CURVE SMOOTH",
"201 329 OFFCURVE",
"183 439 OFFCURVE",
"183 573 CURVE SMOOTH"
);
},
{
closed = 1;
nodes = (
"631 1772 LINE",
"766 1772 LINE",
"999 1512 LINE",
"933 1472 LINE",
"699 1663 LINE",
"460 1472 LINE",
"400 1510 LINE"
);
}
);
width = 1330;
}
);
note = Ucircumflex;
unicode = 00DB;
},
{
glyphname = Udieresis;
layers = (
{
layerId = "73368993-97DB-45A8-8926-1DF7017D2006";
name = Light;
paths = (
{
closed = 1;
nodes = (
"389 1671 OFFCURVE",
"426 1726 OFFCURVE",
"493 1726 CURVE SMOOTH",
"494 1726 LINE SMOOTH",
"551 1726 OFFCURVE",
"589 1676 OFFCURVE",
"589 1621 CURVE SMOOTH",
"589 1554 OFFCURVE",
"549 1503 OFFCURVE",
"480 1503 CURVE SMOOTH",
"479 1503 LINE SMOOTH",
"424 1503 OFFCURVE",
"389 1547 OFFCURVE",
"389 1606 CURVE SMOOTH"
);
},
{
closed = 1;
nodes = (
"816 1671 OFFCURVE",
"855 1726 OFFCURVE",
"922 1726 CURVE SMOOTH",
"923 1726 LINE SMOOTH",
"982 1726 OFFCURVE",
"1017 1676 OFFCURVE",
"1017 1621 CURVE SMOOTH",
"1017 1553 OFFCURVE",
"979 1503 OFFCURVE",
"908 1503 CURVE SMOOTH",
"907 1503 LINE SMOOTH",
"851 1503 OFFCURVE",
"816 1547 OFFCURVE",
"816 1606 CURVE SMOOTH"
);
},
{
closed = 1;
nodes = (
"183 1242 LINE",
"49 1262 LINE",
"49 1339 LINE",
"490 1339 LINE",
"490 1262 LINE",
"335 1242 LINE",
"335 557 LINE SMOOTH",
"335 205 OFFCURVE",
"467 73 OFFCURVE",
"698 73 CURVE SMOOTH",
"927 73 OFFCURVE",
"1046 235 OFFCURVE",
"1046 543 CURVE SMOOTH",
"1046 1241 LINE",
"898 1262 LINE",
"898 1339 LINE",
"1298 1339 LINE",
"1298 1262 LINE",
"1160 1242 LINE",
"1160 550 LINE SMOOTH",
"1160 298 OFFCURVE",
"1074 127 OFFCURVE",
"932 47 CURVE SMOOTH",
"861 6 OFFCURVE",
"778 -14 OFFCURVE",
"684 -14 CURVE SMOOTH",
"452 -14 OFFCURVE",
"307 71 OFFCURVE",
"236 243 CURVE SMOOTH",
"201 329 OFFCURVE",
"183 439 OFFCURVE",
"183 573 CURVE SMOOTH"
);
}
);
width = 1330;
}
);
note = Udieresis;
unicode = 00DC;
},
{
glyphname = Ugrave;
layers = (
{
layerId = "73368993-97DB-45A8-8926-1DF7017D2006";
name = Light;
paths = (
{
closed = 1;
nodes = (
"549 1767 LINE",
"550 1767 LINE",
"847 1495 LINE",
"799 1448 LINE",
"798 1448 LINE",
"735 1475 OFFCURVE",
"629 1532 OFFCURVE",
"542 1593 CURVE SMOOTH",
"498 1623 OFFCURVE",
"467 1650 OFFCURVE",
"448 1674 CURVE"
);
},
{
closed = 1;
nodes = (
"183 1242 LINE",
"49 1262 LINE",
"49 1339 LINE",
"490 1339 LINE",
"490 1262 LINE",
"335 1242 LINE",
"335 557 LINE SMOOTH",
"335 205 OFFCURVE",
"467 73 OFFCURVE",
"698 73 CURVE SMOOTH",
"927 73 OFFCURVE",
"1046 235 OFFCURVE",
"1046 543 CURVE SMOOTH",
"1046 1241 LINE",
"898 1262 LINE",
"898 1339 LINE",
"1298 1339 LINE",
"1298 1262 LINE",
"1160 1242 LINE",
"1160 550 LINE SMOOTH",
"1160 298 OFFCURVE",
"1074 127 OFFCURVE",
"932 47 CURVE SMOOTH",
"861 6 OFFCURVE",
"778 -14 OFFCURVE",
"684 -14 CURVE SMOOTH",
"452 -14 OFFCURVE",
"307 71 OFFCURVE",
"236 243 CURVE SMOOTH",
"201 329 OFFCURVE",
"183 439 OFFCURVE",
"183 573 CURVE SMOOTH"
);
}
);
width = 1330;
}
);
note = Ugrave;
unicode = 00D9;
},
{
glyphname = Uhungarumlaut;
layers = (
{
layerId = "73368993-97DB-45A8-8926-1DF7017D2006";
name = Light;
paths = (
{
closed = 1;
nodes = (
"183 1242 LINE",
"49 1262 LINE",
"49 1339 LINE",
"490 1339 LINE",
"490 1262 LINE",
"335 1242 LINE",
"335 557 LINE SMOOTH",
"335 205 OFFCURVE",
"467 73 OFFCURVE",
"698 73 CURVE SMOOTH",
"927 73 OFFCURVE",
"1046 235 OFFCURVE",
"1046 543 CURVE SMOOTH",
"1046 1241 LINE",
"898 1262 LINE",
"898 1339 LINE",
"1298 1339 LINE",
"1298 1262 LINE",
"1160 1242 LINE",
"1160 550 LINE SMOOTH",
"1160 298 OFFCURVE",
"1074 127 OFFCURVE",
"932 47 CURVE SMOOTH",
"861 6 OFFCURVE",
"778 -14 OFFCURVE",
"684 -14 CURVE SMOOTH",
"452 -14 OFFCURVE",
"307 71 OFFCURVE",
"236 243 CURVE SMOOTH",
"201 329 OFFCURVE",
"183 439 OFFCURVE",
"183 573 CURVE SMOOTH"
);
},
{
closed = 1;
nodes = (
"621 1771 LINE",
"724 1686 LINE",
"649 1603 OFFCURVE",
"544 1520 OFFCURVE",
"445 1457 CURVE",
"382 1512 LINE"
);
},
{
closed = 1;
nodes = (
"1065 1767 LINE",
"1158 1680 LINE",
"1090 1604 OFFCURVE",
"971 1514 OFFCURVE",
"872 1457 CURVE",
"809 1514 LINE"
);
}
);
width = 1330;
}
);
note = Uhungarumlaut;
unicode = 0170;
},
{
glyphname = Umacron;
layers = (
{
layerId = "73368993-97DB-45A8-8926-1DF7017D2006";
name = Light;
paths = (
{
closed = 1;
nodes = (
"941 1659 LINE",
"941 1548 LINE",
"466 1548 LINE",
"466 1659 LINE"
);
},
{
closed = 1;
nodes = (
"183 1242 LINE",
"49 1262 LINE",
"49 1339 LINE",
"490 1339 LINE",
"490 1262 LINE",
"335 1242 LINE",
"335 557 LINE SMOOTH",
"335 205 OFFCURVE",
"467 73 OFFCURVE",
"698 73 CURVE SMOOTH",
"927 73 OFFCURVE",
"1046 235 OFFCURVE",
"1046 543 CURVE SMOOTH",
"1046 1241 LINE",
"898 1262 LINE",
"898 1339 LINE",
"1298 1339 LINE",
"1298 1262 LINE",
"1160 1242 LINE",
"1160 550 LINE SMOOTH",
"1160 298 OFFCURVE",
"1074 127 OFFCURVE",
"932 47 CURVE SMOOTH",
"861 6 OFFCURVE",
"778 -14 OFFCURVE",
"684 -14 CURVE SMOOTH",
"452 -14 OFFCURVE",
"307 71 OFFCURVE",
"236 243 CURVE SMOOTH",
"201 329 OFFCURVE",
"183 439 OFFCURVE",
"183 573 CURVE SMOOTH"
);
}
);
width = 1330;
}
);
note = Umacron;
unicode = 016A;
},
{
glyphname = Uogonek;
layers = (
{
layerId = "73368993-97DB-45A8-8926-1DF7017D2006";
name = Light;
paths = (
{
closed = 1;
nodes = (
"183 1242 LINE",
"49 1262 LINE",
"49 1339 LINE",
"490 1339 LINE",
"490 1262 LINE",
"335 1242 LINE",
"335 557 LINE SMOOTH",
"335 205 OFFCURVE",
"467 73 OFFCURVE",
"698 73 CURVE SMOOTH",
"927 73 OFFCURVE",
"1046 235 OFFCURVE",
"1046 543 CURVE SMOOTH",
"1046 1241 LINE",
"898 1262 LINE",
"898 1339 LINE",
"1298 1339 LINE",
"1298 1262 LINE",
"1160 1242 LINE",
"1160 550 LINE SMOOTH",
"1160 250 OFFCURVE",
"1039 67 OFFCURVE",
"840 7 CURVE",
"763 -34 OFFCURVE",
"695 -92 OFFCURVE",
"659 -150 CURVE SMOOTH",
"640 -179 OFFCURVE",
"631 -206 OFFCURVE",
"631 -231 CURVE SMOOTH",
"631 -311 OFFCURVE",
"689 -348 OFFCURVE",
"770 -348 CURVE SMOOTH",
"815 -348 OFFCURVE",
"866 -333 OFFCURVE",
"911 -312 CURVE",
"911 -387 LINE",
"860 -424 OFFCURVE",
"781 -449 OFFCURVE",
"708 -449 CURVE SMOOTH",
"581 -449 OFFCURVE",
"488 -399 OFFCURVE",
"488 -280 CURVE SMOOTH",
"488 -220 OFFCURVE",
"530 -148 OFFCURVE",
"598 -87 CURVE SMOOTH",
"631 -57 OFFCURVE",
"668 -32 OFFCURVE",
"707 -13 CURVE",
"702 -14 OFFCURVE",
"694 -14 OFFCURVE",
"684 -14 CURVE SMOOTH",
"452 -14 OFFCURVE",
"307 71 OFFCURVE",
"236 243 CURVE SMOOTH",
"201 329 OFFCURVE",
"183 439 OFFCURVE",
"183 573 CURVE SMOOTH"
);
}
);
width = 1330;
}
);
note = Uogonek;
unicode = 0172;
},
{
glyphname = Uring;
layers = (
{
layerId = "73368993-97DB-45A8-8926-1DF7017D2006";
name = Light;
paths = (
{
closed = 1;
nodes = (
"183 1242 LINE",
"49 1262 LINE",
"49 1339 LINE",
"490 1339 LINE",
"490 1262 LINE",
"335 1242 LINE",
"335 557 LINE SMOOTH",
"335 205 OFFCURVE",
"467 73 OFFCURVE",
"698 73 CURVE SMOOTH",
"927 73 OFFCURVE",
"1046 235 OFFCURVE",
"1046 543 CURVE SMOOTH",
"1046 1241 LINE",
"898 1262 LINE",
"898 1339 LINE",
"1298 1339 LINE",
"1298 1262 LINE",
"1160 1242 LINE",
"1160 550 LINE SMOOTH",
"1160 298 OFFCURVE",
"1074 127 OFFCURVE",
"932 47 CURVE SMOOTH",
"861 6 OFFCURVE",
"778 -14 OFFCURVE",
"684 -14 CURVE SMOOTH",
"452 -14 OFFCURVE",
"307 71 OFFCURVE",
"236 243 CURVE SMOOTH",
"201 329 OFFCURVE",
"183 439 OFFCURVE",
"183 573 CURVE SMOOTH"
);
},
{
closed = 1;
nodes = (
"417 1735 OFFCURVE",
"478 1803 OFFCURVE",
"567 1836 CURVE SMOOTH",
"612 1852 OFFCURVE",
"659 1860 OFFCURVE",
"709 1860 CURVE SMOOTH",
"710 1860 LINE SMOOTH",
"826 1860 OFFCURVE",
"908 1823 OFFCURVE",
"951 1757 CURVE SMOOTH",
"972 1724 OFFCURVE",
"983 1685 OFFCURVE",
"983 1641 CURVE SMOOTH",
"983 1549 OFFCURVE",
"927 1480 OFFCURVE",
"840 1447 CURVE SMOOTH",
"797 1430 OFFCURVE",
"749 1422 OFFCURVE",
"698 1422 CURVE SMOOTH",
"697 1422 LINE SMOOTH",
"574 1422 OFFCURVE",
"489 1462 OFFCURVE",
"448 1528 CURVE SMOOTH",
"427 1561 OFFCURVE",
"417 1598 OFFCURVE",
"417 1640 CURVE SMOOTH"
);
},
{
closed = 1;
nodes = (
"703 1492 LINE SMOOTH",
"815 1492 OFFCURVE",
"872 1541 OFFCURVE",
"872 1633 CURVE SMOOTH",
"872 1728 OFFCURVE",
"818 1787 OFFCURVE",
"705 1787 CURVE SMOOTH",
"704 1787 LINE SMOOTH",
"592 1787 OFFCURVE",
"529 1737 OFFCURVE",
"529 1645 CURVE SMOOTH",
"529 1557 OFFCURVE",
"587 1492 OFFCURVE",
"702 1492 CURVE SMOOTH"
);
}
);
width = 1330;
}
);
note = Uring;
unicode = 016E;
},
{
glyphname = Utilde;
layers = (
{
layerId = "73368993-97DB-45A8-8926-1DF7017D2006";
name = Light;
paths = (
{
closed = 1;
nodes = (
"506 1654 OFFCURVE",
"469 1623 OFFCURVE",
"449 1592 CURVE SMOOTH",
"439 1577 OFFCURVE",
"429 1559 OFFCURVE",
"420 1539 CURVE",
"345 1580 LINE",
"360 1636 OFFCURVE",
"404 1697 OFFCURVE",
"471 1735 CURVE SMOOTH",
"504 1754 OFFCURVE",
"541 1763 OFFCURVE",
"581 1763 CURVE SMOOTH",
"629 1763 OFFCURVE",
"667 1745 OFFCURVE",
"695 1722 CURVE",
"708 1710 OFFCURVE",
"723 1695 OFFCURVE",
"740 1676 CURVE SMOOTH",
"784 1629 OFFCURVE",
"809 1609 OFFCURVE",
"850 1609 CURVE SMOOTH",
"902 1609 OFFCURVE",
"937 1640 OFFCURVE",
"953 1668 CURVE SMOOTH",
"961 1681 OFFCURVE",
"970 1700 OFFCURVE",
"981 1725 CURVE",
"1056 1683 LINE",
"1024 1579 OFFCURVE",
"949 1500 OFFCURVE",
"840 1500 CURVE SMOOTH",
"793 1500 OFFCURVE",
"754 1519 OFFCURVE",
"728 1541 CURVE SMOOTH",
"715 1552 OFFCURVE",
"698 1566 OFFCURVE",
"679 1585 CURVE SMOOTH",
"631 1632 OFFCURVE",
"604 1654 OFFCURVE",
"557 1654 CURVE SMOOTH"
);
},
{
closed = 1;
nodes = (
"183 1242 LINE",
"49 1262 LINE",
"49 1339 LINE",
"490 1339 LINE",
"490 1262 LINE",
"335 1242 LINE",
"335 557 LINE SMOOTH",
"335 205 OFFCURVE",
"467 73 OFFCURVE",
"698 73 CURVE SMOOTH",
"927 73 OFFCURVE",
"1046 235 OFFCURVE",
"1046 543 CURVE SMOOTH",
"1046 1241 LINE",
"898 1262 LINE",
"898 1339 LINE",
"1298 1339 LINE",
"1298 1262 LINE",
"1160 1242 LINE",
"1160 550 LINE SMOOTH",
"1160 298 OFFCURVE",
"1074 127 OFFCURVE",
"932 47 CURVE SMOOTH",
"861 6 OFFCURVE",
"778 -14 OFFCURVE",
"684 -14 CURVE SMOOTH",
"452 -14 OFFCURVE",
"307 71 OFFCURVE",
"236 243 CURVE SMOOTH",
"201 329 OFFCURVE",
"183 439 OFFCURVE",
"183 573 CURVE SMOOTH"
);
}
);
width = 1330;
}
);
note = Utilde;
unicode = 0168;
},
{
glyphname = V;
layers = (
{
layerId = "73368993-97DB-45A8-8926-1DF7017D2006";
name = Light;
paths = (
{
closed = 1;
nodes = (
"-26 1262 LINE",
"-26 1339 LINE",
"411 1339 LINE",
"411 1262 LINE",
"245 1243 LINE",
"564 372 LINE",
"640 128 LINE",
"708 377 LINE",
"985 1242 LINE",
"840 1262 LINE",
"840 1339 LINE",
"1220 1339 LINE",
"1220 1262 LINE",
"1105 1243 LINE",
"676 -14 LINE",
"557 -14 LINE",
"85 1242 LINE"
);
}
);
width = 1188;
}
);
note = V;
unicode = 0056;
},
{
glyphname = W;
layers = (
{
layerId = "73368993-97DB-45A8-8926-1DF7017D2006";
name = Light;
paths = (
{
closed = 1;
nodes = (
"-37 1262 LINE",
"-37 1339 LINE",
"416 1339 LINE",
"416 1262 LINE",
"239 1242 LINE",
"502 386 LINE",
"561 100 LINE",
"631 386 LINE",
"847 1090 LINE",
"798 1242 LINE",
"665 1262 LINE",
"665 1339 LINE",
"1133 1339 LINE",
"1133 1262 LINE",
"955 1242 LINE",
"1209 386 LINE",
"1280 80 LINE",
"1338 386 LINE",
"1580 1242 LINE",
"1390 1262 LINE",
"1390 1339 LINE",
"1817 1339 LINE",
"1817 1262 LINE",
"1696 1242 LINE",
"1327 -10 LINE",
"1187 -10 LINE",
"896 934 LINE",
"609 -10 LINE",
"478 -10 LINE",
"88 1241 LINE"
);
}
);
width = 1782;
}
);
note = W;
unicode = 0057;
},
{
glyphname = Wacute;
layers = (
{
layerId = "73368993-97DB-45A8-8926-1DF7017D2006";
name = Light;
paths = (
{
closed = 1;
nodes = (
"1064 1767 LINE",
"1065 1767 LINE",
"1165 1674 LINE",
"1128 1626 OFFCURVE",
"1031 1560 OFFCURVE",
"934 1508 CURVE SMOOTH",
"885 1481 OFFCURVE",
"846 1461 OFFCURVE",
"816 1448 CURVE",
"815 1448 LINE",
"765 1495 LINE"
);
},
{
closed = 1;
nodes = (
"-37 1262 LINE",
"-37 1339 LINE",
"416 1339 LINE",
"416 1262 LINE",
"239 1242 LINE",
"502 386 LINE",
"561 100 LINE",
"631 386 LINE",
"847 1090 LINE",
"798 1242 LINE",
"665 1262 LINE",
"665 1339 LINE",
"1133 1339 LINE",
"1133 1262 LINE",
"955 1242 LINE",
"1209 386 LINE",
"1280 80 LINE",
"1338 386 LINE",
"1580 1242 LINE",
"1390 1262 LINE",
"1390 1339 LINE",
"1817 1339 LINE",
"1817 1262 LINE",
"1696 1242 LINE",
"1327 -10 LINE",
"1187 -10 LINE",
"896 934 LINE",
"609 -10 LINE",
"478 -10 LINE",
"88 1241 LINE"
);
}
);
width = 1782;
}
);
note = Wacute;
unicode = 1E82;
},
{
glyphname = Wcircumflex;
layers = (
{
layerId = "73368993-97DB-45A8-8926-1DF7017D2006";
name = Light;
paths = (
{
closed = 1;
nodes = (
"-37 1262 LINE",
"-37 1339 LINE",
"416 1339 LINE",
"416 1262 LINE",
"239 1242 LINE",
"502 386 LINE",
"561 100 LINE",
"631 386 LINE",
"847 1090 LINE",
"798 1242 LINE",
"665 1262 LINE",
"665 1339 LINE",
"1133 1339 LINE",
"1133 1262 LINE",
"955 1242 LINE",
"1209 386 LINE",
"1280 80 LINE",
"1338 386 LINE",
"1580 1242 LINE",
"1390 1262 LINE",
"1390 1339 LINE",
"1817 1339 LINE",
"1817 1262 LINE",
"1696 1242 LINE",
"1327 -10 LINE",
"1187 -10 LINE",
"896 934 LINE",
"609 -10 LINE",
"478 -10 LINE",
"88 1241 LINE"
);
},
{
closed = 1;
nodes = (
"817 1772 LINE",
"952 1772 LINE",
"1185 1512 LINE",
"1119 1472 LINE",
"885 1663 LINE",
"646 1472 LINE",
"586 1510 LINE"
);
}
);
width = 1782;
}
);
note = Wcircumflex;
unicode = 0174;
},
{
glyphname = Wdieresis;
layers = (
{
layerId = "73368993-97DB-45A8-8926-1DF7017D2006";
name = Light;
paths = (
{
closed = 1;
nodes = (
"573 1671 OFFCURVE",
"610 1726 OFFCURVE",
"677 1726 CURVE SMOOTH",
"678 1726 LINE SMOOTH",
"735 1726 OFFCURVE",
"773 1676 OFFCURVE",
"773 1621 CURVE SMOOTH",
"773 1554 OFFCURVE",
"733 1503 OFFCURVE",
"664 1503 CURVE SMOOTH",
"663 1503 LINE SMOOTH",
"608 1503 OFFCURVE",
"573 1547 OFFCURVE",
"573 1606 CURVE SMOOTH"
);
},
{
closed = 1;
nodes = (
"1000 1671 OFFCURVE",
"1039 1726 OFFCURVE",
"1106 1726 CURVE SMOOTH",
"1107 1726 LINE SMOOTH",
"1166 1726 OFFCURVE",
"1201 1676 OFFCURVE",
"1201 1621 CURVE SMOOTH",
"1201 1553 OFFCURVE",
"1163 1503 OFFCURVE",
"1092 1503 CURVE SMOOTH",
"1091 1503 LINE SMOOTH",
"1035 1503 OFFCURVE",
"1000 1547 OFFCURVE",
"1000 1606 CURVE SMOOTH"
);
},
{
closed = 1;
nodes = (
"-37 1262 LINE",
"-37 1339 LINE",
"416 1339 LINE",
"416 1262 LINE",
"239 1242 LINE",
"502 386 LINE",
"561 100 LINE",
"631 386 LINE",
"847 1090 LINE",
"798 1242 LINE",
"665 1262 LINE",
"665 1339 LINE",
"1133 1339 LINE",
"1133 1262 LINE",
"955 1242 LINE",
"1209 386 LINE",
"1280 80 LINE",
"1338 386 LINE",
"1580 1242 LINE",
"1390 1262 LINE",
"1390 1339 LINE",
"1817 1339 LINE",
"1817 1262 LINE",
"1696 1242 LINE",
"1327 -10 LINE",
"1187 -10 LINE",
"896 934 LINE",
"609 -10 LINE",
"478 -10 LINE",
"88 1241 LINE"
);
}
);
width = 1782;
}
);
note = Wdieresis;
unicode = 1E84;
},
{
glyphname = Wgrave;
layers = (
{
layerId = "73368993-97DB-45A8-8926-1DF7017D2006";
name = Light;
paths = (
{
closed = 1;
nodes = (
"729 1767 LINE",
"730 1767 LINE",
"1027 1495 LINE",
"979 1448 LINE",
"978 1448 LINE",
"915 1475 OFFCURVE",
"809 1532 OFFCURVE",
"722 1593 CURVE SMOOTH",
"678 1623 OFFCURVE",
"647 1650 OFFCURVE",
"628 1674 CURVE"
);
},
{
closed = 1;
nodes = (
"-37 1262 LINE",
"-37 1339 LINE",
"416 1339 LINE",
"416 1262 LINE",
"239 1242 LINE",
"502 386 LINE",
"561 100 LINE",
"631 386 LINE",
"847 1090 LINE",
"798 1242 LINE",
"665 1262 LINE",
"665 1339 LINE",
"1133 1339 LINE",
"1133 1262 LINE",
"955 1242 LINE",
"1209 386 LINE",
"1280 80 LINE",
"1338 386 LINE",
"1580 1242 LINE",
"1390 1262 LINE",
"1390 1339 LINE",
"1817 1339 LINE",
"1817 1262 LINE",
"1696 1242 LINE",
"1327 -10 LINE",
"1187 -10 LINE",
"896 934 LINE",
"609 -10 LINE",
"478 -10 LINE",
"88 1241 LINE"
);
}
);
width = 1782;
}
);
note = Wgrave;
unicode = 1E80;
},
{
glyphname = X;
layers = (
{
layerId = "73368993-97DB-45A8-8926-1DF7017D2006";
name = Light;
paths = (
{
closed = 1;
nodes = (
"169 93 LINE",
"565 678 LINE",
"184 1241 LINE",
"45 1262 LINE",
"45 1339 LINE",
"550 1339 LINE",
"550 1262 LINE",
"365 1241 LINE",
"669 755 LINE",
"967 1242 LINE",
"806 1262 LINE",
"806 1339 LINE",
"1236 1339 LINE",
"1236 1262 LINE",
"1095 1241 LINE",
"717 695 LINE",
"1127 93 LINE",
"1270 77 LINE",
"1270 0 LINE",
"768 0 LINE",
"768 77 LINE",
"944 94 LINE",
"617 617 LINE",
"302 93 LINE",
"487 77 LINE",
"487 0 LINE",
"13 0 LINE",
"13 77 LINE"
);
}
);
width = 1275;
}
);
note = X;
unicode = 0058;
},
{
glyphname = Y;
layers = (
{
layerId = "73368993-97DB-45A8-8926-1DF7017D2006";
name = Light;
paths = (
{
closed = 1;
nodes = (
"512 94 LINE",
"512 515 LINE",
"96 1241 LINE",
"-17 1262 LINE",
"-17 1339 LINE",
"415 1339 LINE",
"415 1262 LINE",
"263 1242 LINE",
"536 731 LINE",
"600 587 LINE",
"670 731 LINE",
"931 1242 LINE",
"781 1262 LINE",
"781 1339 LINE",
"1172 1339 LINE",
"1172 1262 LINE",
"1052 1242 LINE",
"664 517 LINE",
"664 95 LINE",
"869 77 LINE",
"869 0 LINE",
"312 0 LINE",
"312 77 LINE"
);
}
);
width = 1153;
}
);
note = Y;
unicode = 0059;
},
{
glyphname = Yacute;
layers = (
{
layerId = "73368993-97DB-45A8-8926-1DF7017D2006";
name = Light;
paths = (
{
closed = 1;
nodes = (
"512 94 LINE",
"512 515 LINE",
"96 1241 LINE",
"-17 1262 LINE",
"-17 1339 LINE",
"415 1339 LINE",
"415 1262 LINE",
"263 1242 LINE",
"536 731 LINE",
"600 587 LINE",
"670 731 LINE",
"931 1242 LINE",
"781 1262 LINE",
"781 1339 LINE",
"1172 1339 LINE",
"1172 1262 LINE",
"1052 1242 LINE",
"664 517 LINE",
"664 95 LINE",
"869 77 LINE",
"869 0 LINE",
"312 0 LINE",
"312 77 LINE"
);
},
{
closed = 1;
nodes = (
"775 1767 LINE",
"776 1767 LINE",
"876 1674 LINE",
"839 1626 OFFCURVE",
"742 1560 OFFCURVE",
"645 1508 CURVE SMOOTH",
"596 1481 OFFCURVE",
"557 1461 OFFCURVE",
"527 1448 CURVE",
"526 1448 LINE",
"476 1495 LINE"
);
}
);
width = 1153;
}
);
note = Yacute;
unicode = 00DD;
},
{
glyphname = Ycircumflex;
layers = (
{
layerId = "73368993-97DB-45A8-8926-1DF7017D2006";
name = Light;
paths = (
{
closed = 1;
nodes = (
"512 94 LINE",
"512 515 LINE",
"96 1241 LINE",
"-17 1262 LINE",
"-17 1339 LINE",
"415 1339 LINE",
"415 1262 LINE",
"263 1242 LINE",
"536 731 LINE",
"600 587 LINE",
"670 731 LINE",
"931 1242 LINE",
"781 1262 LINE",
"781 1339 LINE",
"1172 1339 LINE",
"1172 1262 LINE",
"1052 1242 LINE",
"664 517 LINE",
"664 95 LINE",
"869 77 LINE",
"869 0 LINE",
"312 0 LINE",
"312 77 LINE"
);
},
{
closed = 1;
nodes = (
"528 1772 LINE",
"663 1772 LINE",
"896 1512 LINE",
"830 1472 LINE",
"596 1663 LINE",
"357 1472 LINE",
"297 1510 LINE"
);
}
);
width = 1153;
}
);
note = Ycircumflex;
unicode = 0176;
},
{
glyphname = Ydieresis;
layers = (
{
layerId = "73368993-97DB-45A8-8926-1DF7017D2006";
name = Light;
paths = (
{
closed = 1;
nodes = (
"512 94 LINE",
"512 515 LINE",
"96 1241 LINE",
"-17 1262 LINE",
"-17 1339 LINE",
"415 1339 LINE",
"415 1262 LINE",
"263 1242 LINE",
"536 731 LINE",
"600 587 LINE",
"670 731 LINE",
"931 1242 LINE",
"781 1262 LINE",
"781 1339 LINE",
"1172 1339 LINE",
"1172 1262 LINE",
"1052 1242 LINE",
"664 517 LINE",
"664 95 LINE",
"869 77 LINE",
"869 0 LINE",
"312 0 LINE",
"312 77 LINE"
);
},
{
closed = 1;
nodes = (
"284 1671 OFFCURVE",
"321 1726 OFFCURVE",
"388 1726 CURVE SMOOTH",
"389 1726 LINE SMOOTH",
"446 1726 OFFCURVE",
"484 1676 OFFCURVE",
"484 1621 CURVE SMOOTH",
"484 1554 OFFCURVE",
"444 1503 OFFCURVE",
"375 1503 CURVE SMOOTH",
"374 1503 LINE SMOOTH",
"319 1503 OFFCURVE",
"284 1547 OFFCURVE",
"284 1606 CURVE SMOOTH"
);
},
{
closed = 1;
nodes = (
"711 1671 OFFCURVE",
"750 1726 OFFCURVE",
"817 1726 CURVE SMOOTH",
"818 1726 LINE SMOOTH",
"877 1726 OFFCURVE",
"912 1676 OFFCURVE",
"912 1621 CURVE SMOOTH",
"912 1553 OFFCURVE",
"874 1503 OFFCURVE",
"803 1503 CURVE SMOOTH",
"802 1503 LINE SMOOTH",
"746 1503 OFFCURVE",
"711 1547 OFFCURVE",
"711 1606 CURVE SMOOTH"
);
}
);
width = 1153;
}
);
note = Ydieresis;
unicode = 0178;
},
{
glyphname = Ygrave;
layers = (
{
layerId = "73368993-97DB-45A8-8926-1DF7017D2006";
name = Light;
paths = (
{
closed = 1;
nodes = (
"512 94 LINE",
"512 515 LINE",
"96 1241 LINE",
"-17 1262 LINE",
"-17 1339 LINE",
"415 1339 LINE",
"415 1262 LINE",
"263 1242 LINE",
"536 731 LINE",
"600 587 LINE",
"670 731 LINE",
"931 1242 LINE",
"781 1262 LINE",
"781 1339 LINE",
"1172 1339 LINE",
"1172 1262 LINE",
"1052 1242 LINE",
"664 517 LINE",
"664 95 LINE",
"869 77 LINE",
"869 0 LINE",
"312 0 LINE",
"312 77 LINE"
);
},
{
closed = 1;
nodes = (
"440 1767 LINE",
"441 1767 LINE",
"738 1495 LINE",
"690 1448 LINE",
"689 1448 LINE",
"626 1475 OFFCURVE",
"520 1532 OFFCURVE",
"433 1593 CURVE SMOOTH",
"389 1623 OFFCURVE",
"358 1650 OFFCURVE",
"339 1674 CURVE"
);
}
);
width = 1153;
}
);
note = Ygrave;
unicode = 1EF2;
},
{
glyphname = Z;
layers = (
{
layerId = "73368993-97DB-45A8-8926-1DF7017D2006";
name = Light;
paths = (
{
closed = 1;
nodes = (
"795 1132 LINE",
"897 1262 LINE",
"325 1243 LINE",
"236 1008 LINE",
"153 1018 LINE",
"191 1345 LINE",
"1040 1345 LINE",
"1079 1278 LINE",
"373 225 LINE",
"256 84 LINE",
"923 116 LINE",
"1013 400 LINE",
"1099 381 LINE",
"1057 0 LINE",
"119 0 LINE",
"77 70 LINE"
);
}
);
width = 1177;
}
);
note = Z;
unicode = 005A;
},
{
glyphname = Zacute;
layers = (
{
layerId = "73368993-97DB-45A8-8926-1DF7017D2006";
name = Light;
paths = (
{
closed = 1;
nodes = (
"795 1132 LINE",
"897 1262 LINE",
"325 1243 LINE",
"236 1008 LINE",
"153 1018 LINE",
"191 1345 LINE",
"1040 1345 LINE",
"1079 1278 LINE",
"373 225 LINE",
"256 84 LINE",
"923 116 LINE",
"1013 400 LINE",
"1099 381 LINE",
"1057 0 LINE",
"119 0 LINE",
"77 70 LINE"
);
},
{
closed = 1;
nodes = (
"800 1767 LINE",
"801 1767 LINE",
"901 1674 LINE",
"864 1626 OFFCURVE",
"767 1560 OFFCURVE",
"670 1508 CURVE SMOOTH",
"621 1481 OFFCURVE",
"582 1461 OFFCURVE",
"552 1448 CURVE",
"551 1448 LINE",
"501 1495 LINE"
);
}
);
width = 1177;
}
);
note = Zacute;
unicode = 0179;
},
{
glyphname = Zcaron;
layers = (
{
layerId = "73368993-97DB-45A8-8926-1DF7017D2006";
name = Light;
paths = (
{
closed = 1;
nodes = (
"402 1770 LINE",
"623 1590 LINE",
"848 1770 LINE",
"908 1733 LINE",
"692 1489 LINE",
"555 1489 LINE",
"337 1731 LINE"
);
},
{
closed = 1;
nodes = (
"796 1132 LINE",
"898 1262 LINE",
"326 1243 LINE",
"237 1008 LINE",
"154 1018 LINE",
"192 1345 LINE",
"1041 1345 LINE",
"1080 1278 LINE",
"374 225 LINE",
"257 84 LINE",
"924 116 LINE",
"1014 400 LINE",
"1100 381 LINE",
"1058 0 LINE",
"120 0 LINE",
"78 70 LINE"
);
}
);
width = 1179;
}
);
note = Zcaron;
unicode = 017D;
},
{
glyphname = Zdotaccent;
layers = (
{
layerId = "73368993-97DB-45A8-8926-1DF7017D2006";
name = Light;
paths = (
{
closed = 1;
nodes = (
"523 1675 OFFCURVE",
"560 1729 OFFCURVE",
"627 1729 CURVE SMOOTH",
"628 1729 LINE SMOOTH",
"687 1729 OFFCURVE",
"723 1680 OFFCURVE",
"723 1624 CURVE SMOOTH",
"723 1556 OFFCURVE",
"685 1507 OFFCURVE",
"614 1507 CURVE SMOOTH",
"613 1507 LINE SMOOTH",
"558 1507 OFFCURVE",
"523 1551 OFFCURVE",
"523 1610 CURVE SMOOTH"
);
},
{
closed = 1;
nodes = (
"796 1132 LINE",
"898 1262 LINE",
"326 1243 LINE",
"237 1008 LINE",
"154 1018 LINE",
"192 1345 LINE",
"1041 1345 LINE",
"1080 1278 LINE",
"374 225 LINE",
"257 84 LINE",
"924 116 LINE",
"1014 400 LINE",
"1100 381 LINE",
"1058 0 LINE",
"120 0 LINE",
"78 70 LINE"
);
}
);
width = 1179;
}
);
note = Zdotaccent;
unicode = 017B;
},
{
glyphname = uni0162;
layers = (
{
layerId = "73368993-97DB-45A8-8926-1DF7017D2006";
name = Light;
paths = (
{
closed = 1;
nodes = (
"1181 881 LINE",
"1084 881 LINE",
"1034 1248 LINE",
"687 1258 LINE",
"687 94 LINE",
"944 77 LINE",
"944 0 LINE",
"625 0 LINE",
"654 -27 OFFCURVE",
"694 -81 OFFCURVE",
"719 -148 CURVE SMOOTH",
"731 -181 OFFCURVE",
"737 -215 OFFCURVE",
"737 -248 CURVE SMOOTH",
"737 -373 OFFCURVE",
"664 -423 OFFCURVE",
"517 -423 CURVE SMOOTH",
"517 -423 LINE SMOOTH",
"476 -423 OFFCURVE",
"421 -413 OFFCURVE",
"390 -400 CURVE",
"391 -294 LINE",
"414 -302 OFFCURVE",
"453 -308 OFFCURVE",
"473 -308 CURVE SMOOTH",
"474 -308 LINE SMOOTH",
"539 -308 OFFCURVE",
"575 -298 OFFCURVE",
"596 -261 CURVE SMOOTH",
"606 -242 OFFCURVE",
"611 -215 OFFCURVE",
"611 -180 CURVE SMOOTH",
"611 -115 OFFCURVE",
"577 -41 OFFCURVE",
"550 0 CURVE",
"296 0 LINE",
"296 77 LINE",
"532 94 LINE",
"532 1258 LINE",
"189 1248 LINE",
"131 881 LINE",
"33 881 LINE",
"62 1339 LINE",
"1161 1339 LINE"
);
}
);
width = 1223;
}
);
note = uni0162;
unicode = 0162;
},
{
glyphname = uni01C4;
layers = (
{
layerId = "73368993-97DB-45A8-8926-1DF7017D2006";
name = Light;
paths = (
{
closed = 1;
nodes = (
"1766 1770 LINE",
"1987 1590 LINE",
"2212 1770 LINE",
"2272 1733 LINE",
"2056 1489 LINE",
"1919 1489 LINE",
"1701 1731 LINE"
);
},
{
closed = 1;
nodes = (
"2169 1132 LINE",
"2271 1262 LINE",
"1699 1243 LINE",
"1610 1008 LINE",
"1527 1018 LINE",
"1565 1345 LINE",
"2414 1345 LINE",
"2453 1278 LINE",
"1747 225 LINE",
"1630 84 LINE",
"2297 116 LINE",
"2387 400 LINE",
"2473 381 LINE",
"2431 0 LINE",
"1493 0 LINE",
"1451 70 LINE"
);
},
{
closed = 1;
nodes = (
"245 94 LINE",
"245 1242 LINE",
"100 1262 LINE",
"100 1339 LINE",
"319 1339 LINE SMOOTH",
"356 1339 OFFCURVE",
"410 1341 OFFCURVE",
"481 1346 CURVE SMOOTH",
"550 1351 OFFCURVE",
"602 1353 OFFCURVE",
"637 1353 CURVE SMOOTH",
"1089 1353 OFFCURVE",
"1298 1114 OFFCURVE",
"1298 709 CURVE SMOOTH",
"1298 424 OFFCURVE",
"1179 197 OFFCURVE",
"978 77 CURVE SMOOTH",
"877 16 OFFCURVE",
"763 -14 OFFCURVE",
"634 -14 CURVE SMOOTH",
"590 -14 OFFCURVE",
"518 -9 OFFCURVE",
"495 -8 CURVE SMOOTH",
"428 -3 OFFCURVE",
"370 0 OFFCURVE",
"321 0 CURVE SMOOTH",
"90 0 LINE",
"90 77 LINE"
);
},
{
closed = 1;
nodes = (
"393 88 LINE",
"451 77 OFFCURVE",
"514 72 OFFCURVE",
"583 72 CURVE SMOOTH",
"636 73 LINE SMOOTH",
"832 77 OFFCURVE",
"989 171 OFFCURVE",
"1075 352 CURVE SMOOTH",
"1118 443 OFFCURVE",
"1139 551 OFFCURVE",
"1139 678 CURVE SMOOTH",
"1139 1071 OFFCURVE",
"956 1267 OFFCURVE",
"591 1267 CURVE SMOOTH",
"556 1267 OFFCURVE",
"508 1264 OFFCURVE",
"445 1259 CURVE SMOOTH",
"393 1256 LINE"
);
}
);
width = 2552;
}
);
note = uni01C4;
unicode = 01C4;
},
{
glyphname = uni01C5;
layers = (
{
layerId = "73368993-97DB-45A8-8926-1DF7017D2006";
name = Light;
paths = (
{
closed = 1;
nodes = (
"1635 1581 LINE",
"1885 1309 LINE",
"2140 1581 LINE",
"2197 1544 LINE",
"1952 1192 LINE",
"1817 1192 LINE",
"1571 1544 LINE"
);
},
{
closed = 1;
nodes = (
"2113 907 LINE",
"1623 893 LINE",
"1597 724 LINE",
"1499 724 LINE",
"1499 1000 LINE",
"2249 1000 LINE",
"2280 933 LINE",
"1715 194 LINE",
"1600 92 LINE",
"2139 108 LINE",
"2196 305 LINE",
"2287 293 LINE",
"2261 0 LINE",
"1463 0 LINE",
"1430 68 LINE",
"2001 802 LINE"
);
},
{
closed = 1;
nodes = (
"245 94 LINE",
"245 1242 LINE",
"100 1262 LINE",
"100 1339 LINE",
"319 1339 LINE SMOOTH",
"356 1339 OFFCURVE",
"410 1341 OFFCURVE",
"481 1346 CURVE SMOOTH",
"550 1351 OFFCURVE",
"602 1353 OFFCURVE",
"637 1353 CURVE SMOOTH",
"1089 1353 OFFCURVE",
"1298 1114 OFFCURVE",
"1298 709 CURVE SMOOTH",
"1298 424 OFFCURVE",
"1179 197 OFFCURVE",
"978 77 CURVE SMOOTH",
"877 16 OFFCURVE",
"763 -14 OFFCURVE",
"634 -14 CURVE SMOOTH",
"590 -14 OFFCURVE",
"518 -9 OFFCURVE",
"495 -8 CURVE SMOOTH",
"428 -3 OFFCURVE",
"370 0 OFFCURVE",
"321 0 CURVE SMOOTH",
"90 0 LINE",
"90 77 LINE"
);
},
{
closed = 1;
nodes = (
"393 88 LINE",
"451 77 OFFCURVE",
"514 72 OFFCURVE",
"583 72 CURVE SMOOTH",
"636 73 LINE SMOOTH",
"832 77 OFFCURVE",
"989 171 OFFCURVE",
"1075 352 CURVE SMOOTH",
"1118 443 OFFCURVE",
"1139 551 OFFCURVE",
"1139 678 CURVE SMOOTH",
"1139 1071 OFFCURVE",
"956 1267 OFFCURVE",
"591 1267 CURVE SMOOTH",
"556 1267 OFFCURVE",
"508 1264 OFFCURVE",
"445 1259 CURVE SMOOTH",
"393 1256 LINE"
);
}
);
width = 2366;
}
);
note = uni01C5;
unicode = 01C5;
},
{
glyphname = uni01C7;
layers = (
{
layerId = "73368993-97DB-45A8-8926-1DF7017D2006";
name = Light;
paths = (
{
closed = 1;
nodes = (
"250 94 LINE",
"250 1242 LINE",
"99 1262 LINE",
"99 1339 LINE",
"578 1339 LINE",
"578 1262 LINE",
"399 1243 LINE",
"399 94 LINE",
"912 107 LINE",
"1013 390 LINE",
"1099 375 LINE",
"1033 0 LINE",
"96 0 LINE",
"96 77 LINE"
);
},
{
closed = 1;
nodes = (
"1135 -247 LINE",
"1247 -216 OFFCURVE",
"1339 -133 OFFCURVE",
"1376 -16 CURVE SMOOTH",
"1391 33 OFFCURVE",
"1401 89 OFFCURVE",
"1406 152 CURVE SMOOTH",
"1411 214 OFFCURVE",
"1413 315 OFFCURVE",
"1413 456 CURVE SMOOTH",
"1413 1241 LINE",
"1232 1262 LINE",
"1232 1339 LINE",
"1734 1339 LINE",
"1734 1262 LINE",
"1562 1241 LINE",
"1562 495 LINE",
"1562 385 LINE SMOOTH",
"1562 216 OFFCURVE",
"1559 119 OFFCURVE",
"1543 38 CURVE SMOOTH",
"1516 -94 OFFCURVE",
"1436 -193 OFFCURVE",
"1334 -252 CURVE SMOOTH",
"1283 -282 OFFCURVE",
"1230 -302 OFFCURVE",
"1175 -312 CURVE"
);
}
);
width = 1812;
}
);
note = uni01C7;
unicode = 01C7;
},
{
glyphname = uni01C8;
layers = (
{
layerId = "73368993-97DB-45A8-8926-1DF7017D2006";
name = Light;
paths = (
{
closed = 1;
nodes = (
"250 94 LINE",
"250 1242 LINE",
"99 1262 LINE",
"99 1339 LINE",
"578 1339 LINE",
"578 1262 LINE",
"399 1243 LINE",
"399 94 LINE",
"912 107 LINE",
"1013 390 LINE",
"1099 375 LINE",
"1033 0 LINE",
"96 0 LINE",
"96 77 LINE"
);
},
{
closed = 1;
nodes = (
"1217 906 LINE",
"1218 994 LINE",
"1467 1022 LINE",
"1472 1022 LINE",
"1506 994 LINE",
"1506 11 LINE SMOOTH",
"1506 -272 OFFCURVE",
"1414 -422 OFFCURVE",
"1230 -437 CURVE",
"1227 -438 OFFCURVE",
"1220 -438 OFFCURVE",
"1207 -438 CURVE SMOOTH",
"1175 -438 OFFCURVE",
"1135 -436 OFFCURVE",
"1127 -431 CURVE",
"1120 -356 LINE",
"1139 -359 OFFCURVE",
"1183 -351 OFFCURVE",
"1223 -339 CURVE SMOOTH",
"1327 -307 OFFCURVE",
"1362 -171 OFFCURVE",
"1362 45 CURVE",
"1360 875 LINE"
);
},
{
closed = 1;
nodes = (
"1332 1376 OFFCURVE",
"1370 1430 OFFCURVE",
"1437 1430 CURVE SMOOTH",
"1438 1430 LINE SMOOTH",
"1495 1430 OFFCURVE",
"1531 1382 OFFCURVE",
"1531 1326 CURVE SMOOTH",
"1531 1257 OFFCURVE",
"1494 1207 OFFCURVE",
"1423 1207 CURVE SMOOTH",
"1422 1207 LINE SMOOTH",
"1367 1207 OFFCURVE",
"1332 1252 OFFCURVE",
"1332 1309 CURVE SMOOTH"
);
}
);
width = 1692;
}
);
note = uni01C8;
unicode = 01C8;
},
{
glyphname = uni01CA;
layers = (
{
layerId = "73368993-97DB-45A8-8926-1DF7017D2006";
name = Light;
paths = (
{
closed = 1;
nodes = (
"245 95 LINE",
"245 1242 LINE",
"101 1262 LINE",
"101 1339 LINE",
"392 1339 LINE",
"1030 414 LINE",
"1132 234 LINE",
"1132 1242 LINE",
"973 1262 LINE",
"973 1339 LINE",
"1383 1339 LINE",
"1383 1262 LINE",
"1236 1242 LINE",
"1236 0 LINE",
"1143 0 LINE",
"498 928 LINE",
"349 1169 LINE",
"349 94 LINE",
"514 77 LINE",
"514 0 LINE",
"101 0 LINE",
"101 77 LINE"
);
},
{
closed = 1;
nodes = (
"1433 -247 LINE",
"1545 -216 OFFCURVE",
"1637 -133 OFFCURVE",
"1674 -16 CURVE SMOOTH",
"1689 33 OFFCURVE",
"1699 89 OFFCURVE",
"1704 152 CURVE SMOOTH",
"1709 214 OFFCURVE",
"1711 315 OFFCURVE",
"1711 456 CURVE SMOOTH",
"1711 1241 LINE",
"1530 1262 LINE",
"1530 1339 LINE",
"2032 1339 LINE",
"2032 1262 LINE",
"1860 1241 LINE",
"1860 495 LINE",
"1860 385 LINE SMOOTH",
"1860 216 OFFCURVE",
"1857 119 OFFCURVE",
"1841 38 CURVE SMOOTH",
"1814 -94 OFFCURVE",
"1734 -193 OFFCURVE",
"1632 -252 CURVE SMOOTH",
"1581 -282 OFFCURVE",
"1528 -302 OFFCURVE",
"1473 -312 CURVE"
);
}
);
width = 2111;
}
);
note = uni01CA;
unicode = 01CA;
},
{
glyphname = uni01CB;
layers = (
{
layerId = "73368993-97DB-45A8-8926-1DF7017D2006";
name = Light;
paths = (
{
closed = 1;
nodes = (
"245 95 LINE",
"245 1242 LINE",
"101 1262 LINE",
"101 1339 LINE",
"392 1339 LINE",
"1030 414 LINE",
"1132 234 LINE",
"1132 1242 LINE",
"973 1262 LINE",
"973 1339 LINE",
"1383 1339 LINE",
"1383 1262 LINE",
"1236 1242 LINE",
"1236 0 LINE",
"1143 0 LINE",
"498 928 LINE",
"349 1169 LINE",
"349 94 LINE",
"514 77 LINE",
"514 0 LINE",
"101 0 LINE",
"101 77 LINE"
);
},
{
closed = 1;
nodes = (
"1515 906 LINE",
"1516 994 LINE",
"1765 1022 LINE",
"1770 1022 LINE",
"1804 994 LINE",
"1804 11 LINE SMOOTH",
"1804 -272 OFFCURVE",
"1712 -422 OFFCURVE",
"1528 -437 CURVE",
"1525 -438 OFFCURVE",
"1518 -438 OFFCURVE",
"1505 -438 CURVE SMOOTH",
"1473 -438 OFFCURVE",
"1433 -436 OFFCURVE",
"1425 -431 CURVE",
"1418 -356 LINE",
"1437 -359 OFFCURVE",
"1481 -351 OFFCURVE",
"1521 -339 CURVE SMOOTH",
"1625 -307 OFFCURVE",
"1660 -171 OFFCURVE",
"1660 45 CURVE",
"1658 875 LINE"
);
},
{
closed = 1;
nodes = (
"1630 1376 OFFCURVE",
"1668 1430 OFFCURVE",
"1735 1430 CURVE SMOOTH",
"1736 1430 LINE SMOOTH",
"1793 1430 OFFCURVE",
"1829 1382 OFFCURVE",
"1829 1326 CURVE SMOOTH",
"1829 1257 OFFCURVE",
"1792 1207 OFFCURVE",
"1721 1207 CURVE SMOOTH",
"1720 1207 LINE SMOOTH",
"1665 1207 OFFCURVE",
"1630 1252 OFFCURVE",
"1630 1309 CURVE SMOOTH"
);
}
);
width = 1990;
}
);
note = uni01CB;
unicode = 01CB;
},
{
glyphname = uni01F1;
layers = (
{
layerId = "73368993-97DB-45A8-8926-1DF7017D2006";
name = Light;
paths = (
{
closed = 1;
nodes = (
"245 94 LINE",
"245 1242 LINE",
"100 1262 LINE",
"100 1339 LINE",
"319 1339 LINE SMOOTH",
"356 1339 OFFCURVE",
"410 1341 OFFCURVE",
"481 1346 CURVE SMOOTH",
"550 1351 OFFCURVE",
"602 1353 OFFCURVE",
"637 1353 CURVE SMOOTH",
"1089 1353 OFFCURVE",
"1298 1114 OFFCURVE",
"1298 709 CURVE SMOOTH",
"1298 424 OFFCURVE",
"1179 197 OFFCURVE",
"978 77 CURVE SMOOTH",
"877 16 OFFCURVE",
"763 -14 OFFCURVE",
"634 -14 CURVE SMOOTH",
"590 -14 OFFCURVE",
"518 -9 OFFCURVE",
"495 -8 CURVE SMOOTH",
"428 -3 OFFCURVE",
"370 0 OFFCURVE",
"321 0 CURVE SMOOTH",
"90 0 LINE",
"90 77 LINE"
);
},
{
closed = 1;
nodes = (
"393 88 LINE",
"451 77 OFFCURVE",
"514 72 OFFCURVE",
"583 72 CURVE SMOOTH",
"636 73 LINE SMOOTH",
"832 77 OFFCURVE",
"989 171 OFFCURVE",
"1075 352 CURVE SMOOTH",
"1118 443 OFFCURVE",
"1139 551 OFFCURVE",
"1139 678 CURVE SMOOTH",
"1139 1071 OFFCURVE",
"956 1267 OFFCURVE",
"591 1267 CURVE SMOOTH",
"556 1267 OFFCURVE",
"508 1264 OFFCURVE",
"445 1259 CURVE SMOOTH",
"393 1256 LINE"
);
},
{
closed = 1;
nodes = (
"2157 1132 LINE",
"2259 1262 LINE",
"1687 1243 LINE",
"1598 1008 LINE",
"1515 1018 LINE",
"1553 1345 LINE",
"2402 1345 LINE",
"2441 1278 LINE",
"1735 225 LINE",
"1618 84 LINE",
"2285 116 LINE",
"2375 400 LINE",
"2461 381 LINE",
"2419 0 LINE",
"1481 0 LINE",
"1439 70 LINE"
);
}
);
width = 2539;
}
);
note = uni01F1;
unicode = 01F1;
},
{
glyphname = uni01F2;
layers = (
{
layerId = "73368993-97DB-45A8-8926-1DF7017D2006";
name = Light;
paths = (
{
closed = 1;
nodes = (
"245 94 LINE",
"245 1242 LINE",
"100 1262 LINE",
"100 1339 LINE",
"319 1339 LINE SMOOTH",
"356 1339 OFFCURVE",
"410 1341 OFFCURVE",
"481 1346 CURVE SMOOTH",
"550 1351 OFFCURVE",
"602 1353 OFFCURVE",
"637 1353 CURVE SMOOTH",
"1089 1353 OFFCURVE",
"1298 1114 OFFCURVE",
"1298 709 CURVE SMOOTH",
"1298 424 OFFCURVE",
"1179 197 OFFCURVE",
"978 77 CURVE SMOOTH",
"877 16 OFFCURVE",
"763 -14 OFFCURVE",
"634 -14 CURVE SMOOTH",
"590 -14 OFFCURVE",
"518 -9 OFFCURVE",
"495 -8 CURVE SMOOTH",
"428 -3 OFFCURVE",
"370 0 OFFCURVE",
"321 0 CURVE SMOOTH",
"90 0 LINE",
"90 77 LINE"
);
},
{
closed = 1;
nodes = (
"393 88 LINE",
"451 77 OFFCURVE",
"514 72 OFFCURVE",
"583 72 CURVE SMOOTH",
"636 73 LINE SMOOTH",
"832 77 OFFCURVE",
"989 171 OFFCURVE",
"1075 352 CURVE SMOOTH",
"1118 443 OFFCURVE",
"1139 551 OFFCURVE",
"1139 678 CURVE SMOOTH",
"1139 1071 OFFCURVE",
"956 1267 OFFCURVE",
"591 1267 CURVE SMOOTH",
"556 1267 OFFCURVE",
"508 1264 OFFCURVE",
"445 1259 CURVE SMOOTH",
"393 1256 LINE"
);
},
{
closed = 1;
nodes = (
"2101 907 LINE",
"1611 893 LINE",
"1585 724 LINE",
"1487 724 LINE",
"1487 1000 LINE",
"2237 1000 LINE",
"2268 933 LINE",
"1703 194 LINE",
"1588 92 LINE",
"2127 108 LINE",
"2184 305 LINE",
"2275 293 LINE",
"2249 0 LINE",
"1451 0 LINE",
"1418 68 LINE",
"1989 802 LINE"
);
}
);
width = 2354;
}
);
note = uni01F2;
unicode = 01F2;
},
{
glyphname = uni021A;
layers = (
{
layerId = "73368993-97DB-45A8-8926-1DF7017D2006";
name = Light;
paths = (
{
closed = 1;
nodes = (
"609 -490 LINE",
"562 -457 LINE",
"562 -445 LINE",
"597 -426 OFFCURVE",
"623 -371 OFFCURVE",
"623 -316 CURVE SMOOTH",
"623 -283 OFFCURVE",
"608 -266 OFFCURVE",
"585 -251 CURVE",
"562 -234 OFFCURVE",
"550 -218 OFFCURVE",
"550 -183 CURVE SMOOTH",
"550 -143 OFFCURVE",
"572 -120 OFFCURVE",
"597 -111 CURVE",
"609 -106 OFFCURVE",
"620 -104 OFFCURVE",
"630 -104 CURVE SMOOTH",
"638 -104 LINE SMOOTH",
"705 -104 OFFCURVE",
"747 -157 OFFCURVE",
"747 -249 CURVE SMOOTH",
"747 -337 OFFCURVE",
"703 -410 OFFCURVE",
"659 -453 CURVE SMOOTH",
"637 -474 OFFCURVE",
"621 -487 OFFCURVE",
"611 -490 CURVE"
);
},
{
closed = 1;
nodes = (
"532 94 LINE",
"532 1258 LINE",
"189 1248 LINE",
"131 881 LINE",
"33 881 LINE",
"62 1339 LINE",
"1161 1339 LINE",
"1181 881 LINE",
"1084 881 LINE",
"1034 1248 LINE",
"687 1258 LINE",
"687 94 LINE",
"944 77 LINE",
"944 0 LINE",
"296 0 LINE",
"296 77 LINE"
);
}
);
width = 1223;
}
);
note = uni021A;
unicode = 021A;
},
{
glyphname = uni1E02;
layers = (
{
layerId = "73368993-97DB-45A8-8926-1DF7017D2006";
name = Light;
paths = (
{
closed = 1;
nodes = (
"550 1675 OFFCURVE",
"587 1729 OFFCURVE",
"654 1729 CURVE SMOOTH",
"655 1729 LINE SMOOTH",
"714 1729 OFFCURVE",
"750 1680 OFFCURVE",
"750 1624 CURVE SMOOTH",
"750 1556 OFFCURVE",
"712 1507 OFFCURVE",
"641 1507 CURVE SMOOTH",
"640 1507 LINE SMOOTH",
"585 1507 OFFCURVE",
"550 1551 OFFCURVE",
"550 1610 CURVE SMOOTH"
);
},
{
closed = 1;
nodes = (
"245 94 LINE",
"245 1242 LINE",
"94 1262 LINE",
"94 1339 LINE",
"319 1339 LINE SMOOTH",
"364 1339 OFFCURVE",
"416 1342 OFFCURVE",
"473 1347 CURVE",
"492 1348 OFFCURVE",
"555 1353 OFFCURVE",
"599 1353 CURVE SMOOTH",
"911 1353 OFFCURVE",
"1045 1248 OFFCURVE",
"1045 1051 CURVE SMOOTH",
"1045 940 OFFCURVE",
"1004 843 OFFCURVE",
"924 779 CURVE SMOOTH",
"884 746 OFFCURVE",
"836 724 OFFCURVE",
"779 713 CURVE",
"928 718 OFFCURVE",
"1040 665 OFFCURVE",
"1097 568 CURVE SMOOTH",
"1126 519 OFFCURVE",
"1140 463 OFFCURVE",
"1140 400 CURVE SMOOTH",
"1140 248 OFFCURVE",
"1078 121 OFFCURVE",
"917 46 CURVE SMOOTH",
"836 8 OFFCURVE",
"730 -11 OFFCURVE",
"598 -11 CURVE SMOOTH",
"566 -11 OFFCURVE",
"529 -9 OFFCURVE",
"488 -6 CURVE SMOOTH",
"415 -2 OFFCURVE",
"357 0 OFFCURVE",
"312 0 CURVE SMOOTH",
"91 0 LINE",
"91 77 LINE"
);
},
{
closed = 1;
nodes = (
"393 744 LINE",
"417 743 OFFCURVE",
"469 742 OFFCURVE",
"548 742 CURVE SMOOTH",
"615 742 LINE SMOOTH",
"798 742 OFFCURVE",
"896 840 OFFCURVE",
"896 1017 CURVE SMOOTH",
"896 1133 OFFCURVE",
"859 1205 OFFCURVE",
"767 1243 CURVE SMOOTH",
"721 1262 OFFCURVE",
"659 1271 OFFCURVE",
"581 1271 CURVE SMOOTH",
"542 1271 OFFCURVE",
"495 1268 OFFCURVE",
"441 1263 CURVE SMOOTH",
"415 1260 OFFCURVE",
"399 1259 OFFCURVE",
"393 1259 CURVE"
);
},
{
closed = 1;
nodes = (
"393 91 LINE",
"428 80 OFFCURVE",
"496 75 OFFCURVE",
"597 75 CURVE SMOOTH",
"865 75 OFFCURVE",
"979 181 OFFCURVE",
"979 372 CURVE SMOOTH",
"979 503 OFFCURVE",
"936 581 OFFCURVE",
"840 620 CURVE SMOOTH",
"791 639 OFFCURVE",
"728 649 OFFCURVE",
"651 649 CURVE SMOOTH",
"547 649 LINE SMOOTH",
"466 649 OFFCURVE",
"415 649 OFFCURVE",
"393 648 CURVE"
);
}
);
width = 1211;
}
);
note = uni1E02;
unicode = 1E02;
},
{
glyphname = uni1E0A;
layers = (
{
layerId = "73368993-97DB-45A8-8926-1DF7017D2006";
name = Light;
paths = (
{
closed = 1;
nodes = (
"600 1675 OFFCURVE",
"637 1729 OFFCURVE",
"704 1729 CURVE SMOOTH",
"705 1729 LINE SMOOTH",
"764 1729 OFFCURVE",
"800 1680 OFFCURVE",
"800 1624 CURVE SMOOTH",
"800 1556 OFFCURVE",
"762 1507 OFFCURVE",
"691 1507 CURVE SMOOTH",
"690 1507 LINE SMOOTH",
"635 1507 OFFCURVE",
"600 1551 OFFCURVE",
"600 1610 CURVE SMOOTH"
);
},
{
closed = 1;
nodes = (
"245 94 LINE",
"245 1242 LINE",
"100 1262 LINE",
"100 1339 LINE",
"319 1339 LINE SMOOTH",
"356 1339 OFFCURVE",
"410 1341 OFFCURVE",
"481 1346 CURVE SMOOTH",
"550 1351 OFFCURVE",
"602 1353 OFFCURVE",
"637 1353 CURVE SMOOTH",
"1089 1353 OFFCURVE",
"1298 1114 OFFCURVE",
"1298 709 CURVE SMOOTH",
"1298 424 OFFCURVE",
"1179 197 OFFCURVE",
"978 77 CURVE SMOOTH",
"877 16 OFFCURVE",
"763 -14 OFFCURVE",
"634 -14 CURVE SMOOTH",
"590 -14 OFFCURVE",
"518 -9 OFFCURVE",
"495 -8 CURVE SMOOTH",
"428 -3 OFFCURVE",
"370 0 OFFCURVE",
"321 0 CURVE SMOOTH",
"90 0 LINE",
"90 77 LINE"
);
},
{
closed = 1;
nodes = (
"393 88 LINE",
"451 77 OFFCURVE",
"514 72 OFFCURVE",
"583 72 CURVE SMOOTH",
"636 73 LINE SMOOTH",
"832 77 OFFCURVE",
"989 171 OFFCURVE",
"1075 352 CURVE SMOOTH",
"1118 443 OFFCURVE",
"1139 551 OFFCURVE",
"1139 678 CURVE SMOOTH",
"1139 1071 OFFCURVE",
"956 1267 OFFCURVE",
"591 1267 CURVE SMOOTH",
"556 1267 OFFCURVE",
"508 1264 OFFCURVE",
"445 1259 CURVE SMOOTH",
"393 1256 LINE"
);
}
);
width = 1362;
}
);
note = uni1E0A;
unicode = 1E0A;
},
{
glyphname = uni1E1E;
layers = (
{
layerId = "73368993-97DB-45A8-8926-1DF7017D2006";
name = Light;
paths = (
{
closed = 1;
nodes = (
"468 1675 OFFCURVE",
"505 1729 OFFCURVE",
"572 1729 CURVE SMOOTH",
"573 1729 LINE SMOOTH",
"632 1729 OFFCURVE",
"668 1680 OFFCURVE",
"668 1624 CURVE SMOOTH",
"668 1556 OFFCURVE",
"630 1507 OFFCURVE",
"559 1507 CURVE SMOOTH",
"558 1507 LINE SMOOTH",
"503 1507 OFFCURVE",
"468 1551 OFFCURVE",
"468 1610 CURVE SMOOTH"
);
},
{
closed = 1;
nodes = (
"245 93 LINE",
"245 1242 LINE",
"87 1262 LINE",
"87 1339 LINE",
"1030 1339 LINE",
"1049 1043 LINE",
"950 1043 LINE",
"901 1248 LINE",
"393 1256 LINE",
"393 722 LINE",
"753 728 LINE",
"783 875 LINE",
"867 875 LINE",
"867 476 LINE",
"783 476 LINE",
"753 628 LINE",
"393 635 LINE",
"393 94 LINE",
"675 77 LINE",
"675 0 LINE",
"98 0 LINE",
"98 77 LINE"
);
}
);
width = 1113;
}
);
note = uni1E1E;
unicode = 1E1E;
},
{
glyphname = uni1E40;
layers = (
{
layerId = "73368993-97DB-45A8-8926-1DF7017D2006";
name = Light;
paths = (
{
closed = 1;
nodes = (
"801 1675 OFFCURVE",
"838 1729 OFFCURVE",
"905 1729 CURVE SMOOTH",
"906 1729 LINE SMOOTH",
"965 1729 OFFCURVE",
"1001 1680 OFFCURVE",
"1001 1624 CURVE SMOOTH",
"1001 1556 OFFCURVE",
"963 1507 OFFCURVE",
"892 1507 CURVE SMOOTH",
"891 1507 LINE SMOOTH",
"836 1507 OFFCURVE",
"801 1551 OFFCURVE",
"801 1610 CURVE SMOOTH"
);
},
{
closed = 1;
nodes = (
"161 94 LINE",
"304 1243 LINE",
"99 1262 LINE",
"99 1339 LINE",
"521 1339 LINE",
"825 507 LINE",
"893 266 LINE",
"948 507 LINE",
"1209 1339 LINE",
"1628 1339 LINE",
"1628 1262 LINE",
"1421 1242 LINE",
"1614 95 LINE",
"1775 77 LINE",
"1775 0 LINE",
"1294 0 LINE",
"1294 77 LINE",
"1461 94 LINE",
"1331 915 LINE",
"1285 1277 LINE",
"1211 1027 LINE",
"914 65 LINE",
"851 65 LINE",
"513 927 LINE",
"400 1277 LINE",
"363 916 LINE",
"281 94 LINE",
"458 77 LINE",
"458 0 LINE",
"4 0 LINE",
"4 77 LINE"
);
}
);
width = 1778;
}
);
note = uni1E40;
unicode = 1E40;
},
{
glyphname = uni1E56;
layers = (
{
layerId = "73368993-97DB-45A8-8926-1DF7017D2006";
name = Light;
paths = (
{
closed = 1;
nodes = (
"497 1675 OFFCURVE",
"534 1729 OFFCURVE",
"601 1729 CURVE SMOOTH",
"602 1729 LINE SMOOTH",
"661 1729 OFFCURVE",
"697 1680 OFFCURVE",
"697 1624 CURVE SMOOTH",
"697 1556 OFFCURVE",
"659 1507 OFFCURVE",
"588 1507 CURVE SMOOTH",
"587 1507 LINE SMOOTH",
"532 1507 OFFCURVE",
"497 1551 OFFCURVE",
"497 1610 CURVE SMOOTH"
);
},
{
closed = 1;
nodes = (
"250 94 LINE",
"250 1242 LINE",
"106 1262 LINE",
"106 1339 LINE",
"325 1339 LINE SMOOTH",
"367 1339 OFFCURVE",
"411 1341 OFFCURVE",
"458 1346 CURVE SMOOTH",
"522 1351 OFFCURVE",
"583 1353 OFFCURVE",
"641 1353 CURVE SMOOTH",
"869 1353 OFFCURVE",
"1001 1292 OFFCURVE",
"1060 1181 CURVE SMOOTH",
"1089 1125 OFFCURVE",
"1104 1055 OFFCURVE",
"1104 972 CURVE SMOOTH",
"1104 784 OFFCURVE",
"1008 641 OFFCURVE",
"852 567 CURVE SMOOTH",
"773 530 OFFCURVE",
"686 511 OFFCURVE",
"590 511 CURVE SMOOTH",
"519 511 OFFCURVE",
"415 516 OFFCURVE",
"399 519 CURVE",
"399 95 LINE",
"649 77 LINE",
"649 0 LINE",
"96 0 LINE",
"96 77 LINE"
);
},
{
closed = 1;
nodes = (
"799 600 OFFCURVE",
"946 708 OFFCURVE",
"946 972 CURVE SMOOTH",
"946 1115 OFFCURVE",
"896 1197 OFFCURVE",
"793 1236 CURVE SMOOTH",
"742 1255 OFFCURVE",
"675 1265 OFFCURVE",
"594 1265 CURVE SMOOTH",
"557 1265 OFFCURVE",
"516 1263 OFFCURVE",
"469 1258 CURVE SMOOTH",
"440 1255 OFFCURVE",
"416 1254 OFFCURVE",
"399 1254 CURVE",
"399 608 LINE",
"428 603 OFFCURVE",
"492 600 OFFCURVE",
"592 600 CURVE SMOOTH"
);
}
);
width = 1157;
}
);
note = uni1E56;
unicode = 1E56;
},
{
glyphname = uni1E60;
layers = (
{
layerId = "73368993-97DB-45A8-8926-1DF7017D2006";
name = Light;
paths = (
{
closed = 1;
nodes = (
"464 1675 OFFCURVE",
"501 1729 OFFCURVE",
"568 1729 CURVE SMOOTH",
"569 1729 LINE SMOOTH",
"628 1729 OFFCURVE",
"664 1680 OFFCURVE",
"664 1624 CURVE SMOOTH",
"664 1556 OFFCURVE",
"626 1507 OFFCURVE",
"555 1507 CURVE SMOOTH",
"554 1507 LINE SMOOTH",
"499 1507 OFFCURVE",
"464 1551 OFFCURVE",
"464 1610 CURVE SMOOTH"
);
},
{
closed = 1;
nodes = (
"132 385 LINE",
"224 385 LINE",
"252 148 LINE",
"297 104 OFFCURVE",
"407 68 OFFCURVE",
"524 68 CURVE SMOOTH",
"720 68 OFFCURVE",
"826 163 OFFCURVE",
"826 319 CURVE SMOOTH",
"826 418 OFFCURVE",
"767 486 OFFCURVE",
"681 535 CURVE SMOOTH",
"638 560 OFFCURVE",
"578 588 OFFCURVE",
"502 620 CURVE SMOOTH",
"362 681 OFFCURVE",
"266 730 OFFCURVE",
"192 831 CURVE SMOOTH",
"155 881 OFFCURVE",
"136 942 OFFCURVE",
"136 1014 CURVE SMOOTH",
"136 1147 OFFCURVE",
"212 1254 OFFCURVE",
"340 1311 CURVE SMOOTH",
"404 1339 OFFCURVE",
"477 1353 OFFCURVE",
"560 1353 CURVE SMOOTH",
"663 1353 OFFCURVE",
"742 1334 OFFCURVE",
"842 1305 CURVE SMOOTH",
"866 1298 OFFCURVE",
"886 1292 OFFCURVE",
"901 1289 CURVE",
"890 993 LINE",
"801 993 LINE",
"767 1217 LINE",
"739 1242 OFFCURVE",
"645 1268 OFFCURVE",
"552 1268 CURVE SMOOTH",
"372 1268 OFFCURVE",
"277 1195 OFFCURVE",
"277 1051 CURVE SMOOTH",
"277 955 OFFCURVE",
"329 895 OFFCURVE",
"406 849 CURVE SMOOTH",
"444 826 OFFCURVE",
"501 796 OFFCURVE",
"576 760 CURVE SMOOTH",
"596 751 LINE",
"615 742 LINE SMOOTH",
"774 667 OFFCURVE",
"862 619 OFFCURVE",
"931 526 CURVE SMOOTH",
"965 479 OFFCURVE",
"982 424 OFFCURVE",
"982 359 CURVE SMOOTH",
"982 231 OFFCURVE",
"905 107 OFFCURVE",
"764 35 CURVE SMOOTH",
"693 -2 OFFCURVE",
"611 -20 OFFCURVE",
"516 -20 CURVE SMOOTH",
"392 -20 OFFCURVE",
"301 5 OFFCURVE",
"192 41 CURVE",
"183 45 OFFCURVE",
"137 61 OFFCURVE",
"117 62 CURVE"
);
}
);
width = 1059;
}
);
note = uni1E60;
unicode = 1E60;
},
{
glyphname = uni1E6A;
layers = (
{
layerId = "73368993-97DB-45A8-8926-1DF7017D2006";
name = Light;
paths = (
{
closed = 1;
nodes = (
"519 1675 OFFCURVE",
"556 1729 OFFCURVE",
"623 1729 CURVE SMOOTH",
"624 1729 LINE SMOOTH",
"683 1729 OFFCURVE",
"719 1680 OFFCURVE",
"719 1624 CURVE SMOOTH",
"719 1556 OFFCURVE",
"681 1507 OFFCURVE",
"610 1507 CURVE SMOOTH",
"609 1507 LINE SMOOTH",
"554 1507 OFFCURVE",
"519 1551 OFFCURVE",
"519 1610 CURVE SMOOTH"
);
},
{
closed = 1;
nodes = (
"532 94 LINE",
"532 1258 LINE",
"189 1248 LINE",
"131 881 LINE",
"33 881 LINE",
"62 1339 LINE",
"1161 1339 LINE",
"1181 881 LINE",
"1084 881 LINE",
"1034 1248 LINE",
"687 1258 LINE",
"687 94 LINE",
"944 77 LINE",
"944 0 LINE",
"296 0 LINE",
"296 77 LINE"
);
}
);
width = 1223;
}
);
note = uni1E6A;
unicode = 1E6A;
},
{
glyphname = I.uc;
layers = (
{
layerId = "73368993-97DB-45A8-8926-1DF7017D2006";
name = Light;
paths = (
{
closed = 1;
nodes = (
"283 94 LINE",
"283 1242 LINE",
"107 1262 LINE",
"107 1339 LINE",
"608 1339 LINE",
"608 1262 LINE",
"433 1243 LINE",
"433 94 LINE",
"608 77 LINE",
"608 0 LINE",
"107 0 LINE",
"107 77 LINE"
);
},
{
closed = 1;
nodes = (
"262 1675 OFFCURVE",
"299 1729 OFFCURVE",
"366 1729 CURVE SMOOTH",
"367 1729 LINE SMOOTH",
"426 1729 OFFCURVE",
"462 1680 OFFCURVE",
"462 1624 CURVE SMOOTH",
"462 1556 OFFCURVE",
"424 1507 OFFCURVE",
"353 1507 CURVE SMOOTH",
"352 1507 LINE SMOOTH",
"297 1507 OFFCURVE",
"262 1551 OFFCURVE",
"262 1610 CURVE SMOOTH"
);
}
);
width = 716;
}
);
note = I.uc;
},
{
glyphname = a;
layers = (
{
layerId = "73368993-97DB-45A8-8926-1DF7017D2006";
name = Light;
paths = (
{
closed = 1;
nodes = (
"696 656 LINE SMOOTH",
"696 780 OFFCURVE",
"674 846 OFFCURVE",
"612 879 CURVE SMOOTH",
"581 896 OFFCURVE",
"537 904 OFFCURVE",
"480 904 CURVE SMOOTH",
"379 904 OFFCURVE",
"273 872 OFFCURVE",
"163 807 CURVE",
"162 807 LINE",
"122 886 LINE",
"150 913 OFFCURVE",
"244 963 OFFCURVE",
"354 996 CURVE SMOOTH",
"409 1013 OFFCURVE",
"461 1021 OFFCURVE",
"511 1021 CURVE SMOOTH",
"675 1021 OFFCURVE",
"767 977 OFFCURVE",
"809 877 CURVE SMOOTH",
"830 826 OFFCURVE",
"840 758 OFFCURVE",
"840 672 CURVE SMOOTH",
"840 78 LINE",
"952 78 LINE",
"952 11 LINE",
"882 -8 OFFCURVE",
"826 -17 OFFCURVE",
"783 -17 CURVE SMOOTH",
"743 -17 OFFCURVE",
"726 -12 OFFCURVE",
"716 10 CURVE SMOOTH",
"711 21 OFFCURVE",
"708 37 OFFCURVE",
"708 60 CURVE SMOOTH",
"708 126 LINE",
"655 79 OFFCURVE",
"607 41 OFFCURVE",
"524 6 CURVE SMOOTH",
"482 -11 OFFCURVE",
"438 -20 OFFCURVE",
"392 -20 CURVE SMOOTH",
"281 -20 OFFCURVE",
"185 20 OFFCURVE",
"132 105 CURVE SMOOTH",
"105 148 OFFCURVE",
"92 200 OFFCURVE",
"92 263 CURVE SMOOTH",
"92 422 OFFCURVE",
"216 520 OFFCURVE",
"397 565 CURVE SMOOTH",
"488 587 OFFCURVE",
"587 599 OFFCURVE",
"696 600 CURVE"
);
},
{
closed = 1;
nodes = (
"696 516 LINE",
"501 515 OFFCURVE",
"366 474 OFFCURVE",
"301 403 CURVE SMOOTH",
"268 368 OFFCURVE",
"252 327 OFFCURVE",
"252 281 CURVE SMOOTH",
"252 146 OFFCURVE",
"327 87 OFFCURVE",
"446 87 CURVE SMOOTH",
"515 87 OFFCURVE",
"619 136 OFFCURVE",
"696 196 CURVE"
);
}
);
width = 1003;
}
);
note = a;
unicode = 0061;
},
{
glyphname = aacute;
layers = (
{
layerId = "73368993-97DB-45A8-8926-1DF7017D2006";
name = Light;
paths = (
{
closed = 1;
nodes = (
"696 656 LINE SMOOTH",
"696 780 OFFCURVE",
"674 846 OFFCURVE",
"612 879 CURVE SMOOTH",
"581 896 OFFCURVE",
"537 904 OFFCURVE",
"480 904 CURVE SMOOTH",
"379 904 OFFCURVE",
"273 872 OFFCURVE",
"163 807 CURVE",
"162 807 LINE",
"122 886 LINE",
"150 913 OFFCURVE",
"244 963 OFFCURVE",
"354 996 CURVE SMOOTH",
"409 1013 OFFCURVE",
"461 1021 OFFCURVE",
"511 1021 CURVE SMOOTH",
"675 1021 OFFCURVE",
"767 977 OFFCURVE",
"809 877 CURVE SMOOTH",
"830 826 OFFCURVE",
"840 758 OFFCURVE",
"840 672 CURVE SMOOTH",
"840 78 LINE",
"952 78 LINE",
"952 11 LINE",
"882 -8 OFFCURVE",
"826 -17 OFFCURVE",
"783 -17 CURVE SMOOTH",
"743 -17 OFFCURVE",
"726 -12 OFFCURVE",
"716 10 CURVE SMOOTH",
"711 21 OFFCURVE",
"708 37 OFFCURVE",
"708 60 CURVE SMOOTH",
"708 126 LINE",
"655 79 OFFCURVE",
"607 41 OFFCURVE",
"524 6 CURVE SMOOTH",
"482 -11 OFFCURVE",
"438 -20 OFFCURVE",
"392 -20 CURVE SMOOTH",
"281 -20 OFFCURVE",
"185 20 OFFCURVE",
"132 105 CURVE SMOOTH",
"105 148 OFFCURVE",
"92 200 OFFCURVE",
"92 263 CURVE SMOOTH",
"92 422 OFFCURVE",
"216 520 OFFCURVE",
"397 565 CURVE SMOOTH",
"488 587 OFFCURVE",
"587 599 OFFCURVE",
"696 600 CURVE"
);
},
{
closed = 1;
nodes = (
"696 516 LINE",
"501 515 OFFCURVE",
"366 474 OFFCURVE",
"301 403 CURVE SMOOTH",
"268 368 OFFCURVE",
"252 327 OFFCURVE",
"252 281 CURVE SMOOTH",
"252 146 OFFCURVE",
"327 87 OFFCURVE",
"446 87 CURVE SMOOTH",
"515 87 OFFCURVE",
"619 136 OFFCURVE",
"696 196 CURVE"
);
},
{
closed = 1;
nodes = (
"671 1583 LINE",
"672 1583 LINE",
"784 1485 LINE",
"755 1441 OFFCURVE",
"650 1343 OFFCURVE",
"552 1264 CURVE SMOOTH",
"503 1225 OFFCURVE",
"466 1199 OFFCURVE",
"442 1187 CURVE",
"440 1187 LINE",
"389 1236 LINE"
);
}
);
width = 1003;
}
);
note = aacute;
unicode = 00E1;
},
{
glyphname = abreve;
layers = (
{
layerId = "73368993-97DB-45A8-8926-1DF7017D2006";
name = Light;
paths = (
{
closed = 1;
nodes = (
"696 656 LINE SMOOTH",
"696 780 OFFCURVE",
"674 846 OFFCURVE",
"612 879 CURVE SMOOTH",
"581 896 OFFCURVE",
"537 904 OFFCURVE",
"480 904 CURVE SMOOTH",
"379 904 OFFCURVE",
"273 872 OFFCURVE",
"163 807 CURVE",
"162 807 LINE",
"122 886 LINE",
"150 913 OFFCURVE",
"244 963 OFFCURVE",
"354 996 CURVE SMOOTH",
"409 1013 OFFCURVE",
"461 1021 OFFCURVE",
"511 1021 CURVE SMOOTH",
"675 1021 OFFCURVE",
"767 977 OFFCURVE",
"809 877 CURVE SMOOTH",
"830 826 OFFCURVE",
"840 758 OFFCURVE",
"840 672 CURVE SMOOTH",
"840 78 LINE",
"952 78 LINE",
"952 11 LINE",
"882 -8 OFFCURVE",
"826 -17 OFFCURVE",
"783 -17 CURVE SMOOTH",
"743 -17 OFFCURVE",
"726 -12 OFFCURVE",
"716 10 CURVE SMOOTH",
"711 21 OFFCURVE",
"708 37 OFFCURVE",
"708 60 CURVE SMOOTH",
"708 126 LINE",
"655 79 OFFCURVE",
"607 41 OFFCURVE",
"524 6 CURVE SMOOTH",
"482 -11 OFFCURVE",
"438 -20 OFFCURVE",
"392 -20 CURVE SMOOTH",
"281 -20 OFFCURVE",
"185 20 OFFCURVE",
"132 105 CURVE SMOOTH",
"105 148 OFFCURVE",
"92 200 OFFCURVE",
"92 263 CURVE SMOOTH",
"92 422 OFFCURVE",
"216 520 OFFCURVE",
"397 565 CURVE SMOOTH",
"488 587 OFFCURVE",
"587 599 OFFCURVE",
"696 600 CURVE"
);
},
{
closed = 1;
nodes = (
"696 516 LINE",
"501 515 OFFCURVE",
"366 474 OFFCURVE",
"301 403 CURVE SMOOTH",
"268 368 OFFCURVE",
"252 327 OFFCURVE",
"252 281 CURVE SMOOTH",
"252 146 OFFCURVE",
"327 87 OFFCURVE",
"446 87 CURVE SMOOTH",
"515 87 OFFCURVE",
"619 136 OFFCURVE",
"696 196 CURVE"
);
},
{
closed = 1;
nodes = (
"195 1516 OFFCURVE",
"196 1529 OFFCURVE",
"198 1538 CURVE",
"279 1538 LINE",
"279 1527 OFFCURVE",
"280 1517 OFFCURVE",
"282 1508 CURVE",
"287 1452 OFFCURVE",
"313 1392 OFFCURVE",
"373 1354 CURVE SMOOTH",
"403 1335 OFFCURVE",
"441 1325 OFFCURVE",
"487 1325 CURVE SMOOTH",
"578 1325 OFFCURVE",
"635 1368 OFFCURVE",
"663 1424 CURVE SMOOTH",
"677 1451 OFFCURVE",
"685 1479 OFFCURVE",
"687 1508 CURVE",
"689 1523 OFFCURVE",
"690 1533 OFFCURVE",
"689 1538 CURVE",
"768 1538 LINE",
"769 1529 OFFCURVE",
"771 1516 OFFCURVE",
"771 1499 CURVE SMOOTH",
"771 1394 OFFCURVE",
"722 1297 OFFCURVE",
"636 1242 CURVE SMOOTH",
"593 1214 OFFCURVE",
"543 1200 OFFCURVE",
"486 1200 CURVE SMOOTH",
"367 1200 OFFCURVE",
"277 1260 OFFCURVE",
"230 1351 CURVE SMOOTH",
"207 1396 OFFCURVE",
"195 1445 OFFCURVE",
"195 1498 CURVE SMOOTH"
);
}
);
width = 1003;
}
);
note = abreve;
unicode = 0103;
},
{
glyphname = acircumflex;
layers = (
{
layerId = "73368993-97DB-45A8-8926-1DF7017D2006";
name = Light;
paths = (
{
closed = 1;
nodes = (
"696 656 LINE SMOOTH",
"696 780 OFFCURVE",
"674 846 OFFCURVE",
"612 879 CURVE SMOOTH",
"581 896 OFFCURVE",
"537 904 OFFCURVE",
"480 904 CURVE SMOOTH",
"379 904 OFFCURVE",
"273 872 OFFCURVE",
"163 807 CURVE",
"162 807 LINE",
"122 886 LINE",
"150 913 OFFCURVE",
"244 963 OFFCURVE",
"354 996 CURVE SMOOTH",
"409 1013 OFFCURVE",
"461 1021 OFFCURVE",
"511 1021 CURVE SMOOTH",
"675 1021 OFFCURVE",
"767 977 OFFCURVE",
"809 877 CURVE SMOOTH",
"830 826 OFFCURVE",
"840 758 OFFCURVE",
"840 672 CURVE SMOOTH",
"840 78 LINE",
"952 78 LINE",
"952 11 LINE",
"882 -8 OFFCURVE",
"826 -17 OFFCURVE",
"783 -17 CURVE SMOOTH",
"743 -17 OFFCURVE",
"726 -12 OFFCURVE",
"716 10 CURVE SMOOTH",
"711 21 OFFCURVE",
"708 37 OFFCURVE",
"708 60 CURVE SMOOTH",
"708 126 LINE",
"655 79 OFFCURVE",
"607 41 OFFCURVE",
"524 6 CURVE SMOOTH",
"482 -11 OFFCURVE",
"438 -20 OFFCURVE",
"392 -20 CURVE SMOOTH",
"281 -20 OFFCURVE",
"185 20 OFFCURVE",
"132 105 CURVE SMOOTH",
"105 148 OFFCURVE",
"92 200 OFFCURVE",
"92 263 CURVE SMOOTH",
"92 422 OFFCURVE",
"216 520 OFFCURVE",
"397 565 CURVE SMOOTH",
"488 587 OFFCURVE",
"587 599 OFFCURVE",
"696 600 CURVE"
);
},
{
closed = 1;
nodes = (
"696 516 LINE",
"501 515 OFFCURVE",
"366 474 OFFCURVE",
"301 403 CURVE SMOOTH",
"268 368 OFFCURVE",
"252 327 OFFCURVE",
"252 281 CURVE SMOOTH",
"252 146 OFFCURVE",
"327 87 OFFCURVE",
"446 87 CURVE SMOOTH",
"515 87 OFFCURVE",
"619 136 OFFCURVE",
"696 196 CURVE"
);
},
{
closed = 1;
nodes = (
"416 1563 LINE",
"552 1563 LINE",
"795 1211 LINE",
"731 1174 LINE",
"484 1446 LINE",
"223 1173 LINE",
"166 1210 LINE"
);
}
);
width = 1003;
}
);
note = acircumflex;
unicode = 00E2;
},
{
glyphname = adieresis;
layers = (
{
layerId = "73368993-97DB-45A8-8926-1DF7017D2006";
name = Light;
paths = (
{
closed = 1;
nodes = (
"696 656 LINE SMOOTH",
"696 780 OFFCURVE",
"674 846 OFFCURVE",
"612 879 CURVE SMOOTH",
"581 896 OFFCURVE",
"537 904 OFFCURVE",
"480 904 CURVE SMOOTH",
"379 904 OFFCURVE",
"273 872 OFFCURVE",
"163 807 CURVE",
"162 807 LINE",
"122 886 LINE",
"150 913 OFFCURVE",
"244 963 OFFCURVE",
"354 996 CURVE SMOOTH",
"409 1013 OFFCURVE",
"461 1021 OFFCURVE",
"511 1021 CURVE SMOOTH",
"675 1021 OFFCURVE",
"767 977 OFFCURVE",
"809 877 CURVE SMOOTH",
"830 826 OFFCURVE",
"840 758 OFFCURVE",
"840 672 CURVE SMOOTH",
"840 78 LINE",
"952 78 LINE",
"952 11 LINE",
"882 -8 OFFCURVE",
"826 -17 OFFCURVE",
"783 -17 CURVE SMOOTH",
"743 -17 OFFCURVE",
"726 -12 OFFCURVE",
"716 10 CURVE SMOOTH",
"711 21 OFFCURVE",
"708 37 OFFCURVE",
"708 60 CURVE SMOOTH",
"708 126 LINE",
"655 79 OFFCURVE",
"607 41 OFFCURVE",
"524 6 CURVE SMOOTH",
"482 -11 OFFCURVE",
"438 -20 OFFCURVE",
"392 -20 CURVE SMOOTH",
"281 -20 OFFCURVE",
"185 20 OFFCURVE",
"132 105 CURVE SMOOTH",
"105 148 OFFCURVE",
"92 200 OFFCURVE",
"92 263 CURVE SMOOTH",
"92 422 OFFCURVE",
"216 520 OFFCURVE",
"397 565 CURVE SMOOTH",
"488 587 OFFCURVE",
"587 599 OFFCURVE",
"696 600 CURVE"
);
},
{
closed = 1;
nodes = (
"696 516 LINE",
"501 515 OFFCURVE",
"366 474 OFFCURVE",
"301 403 CURVE SMOOTH",
"268 368 OFFCURVE",
"252 327 OFFCURVE",
"252 281 CURVE SMOOTH",
"252 146 OFFCURVE",
"327 87 OFFCURVE",
"446 87 CURVE SMOOTH",
"515 87 OFFCURVE",
"619 136 OFFCURVE",
"696 196 CURVE"
);
},
{
closed = 1;
nodes = (
"190 1376 OFFCURVE",
"228 1429 OFFCURVE",
"296 1429 CURVE",
"296 1429 LINE",
"355 1429 OFFCURVE",
"391 1381 OFFCURVE",
"391 1325 CURVE SMOOTH",
"391 1257 OFFCURVE",
"351 1207 OFFCURVE",
"282 1207 CURVE SMOOTH",
"281 1207 LINE SMOOTH",
"225 1207 OFFCURVE",
"190 1252 OFFCURVE",
"190 1309 CURVE SMOOTH"
);
},
{
closed = 1;
nodes = (
"584 1376 OFFCURVE",
"623 1429 OFFCURVE",
"690 1429 CURVE SMOOTH",
"691 1429 LINE SMOOTH",
"750 1429 OFFCURVE",
"785 1381 OFFCURVE",
"785 1325 CURVE SMOOTH",
"785 1257 OFFCURVE",
"747 1207 OFFCURVE",
"676 1207 CURVE SMOOTH",
"675 1207 LINE SMOOTH",
"620 1207 OFFCURVE",
"584 1252 OFFCURVE",
"584 1309 CURVE SMOOTH"
);
}
);
width = 1003;
}
);
note = adieresis;
unicode = 00E4;
},
{
glyphname = agrave;
layers = (
{
layerId = "73368993-97DB-45A8-8926-1DF7017D2006";
name = Light;
paths = (
{
closed = 1;
nodes = (
"696 656 LINE SMOOTH",
"696 780 OFFCURVE",
"674 846 OFFCURVE",
"612 879 CURVE SMOOTH",
"581 896 OFFCURVE",
"537 904 OFFCURVE",
"480 904 CURVE SMOOTH",
"379 904 OFFCURVE",
"273 872 OFFCURVE",
"163 807 CURVE",
"162 807 LINE",
"122 886 LINE",
"150 913 OFFCURVE",
"244 963 OFFCURVE",
"354 996 CURVE SMOOTH",
"409 1013 OFFCURVE",
"461 1021 OFFCURVE",
"511 1021 CURVE SMOOTH",
"675 1021 OFFCURVE",
"767 977 OFFCURVE",
"809 877 CURVE SMOOTH",
"830 826 OFFCURVE",
"840 758 OFFCURVE",
"840 672 CURVE SMOOTH",
"840 78 LINE",
"952 78 LINE",
"952 11 LINE",
"882 -8 OFFCURVE",
"826 -17 OFFCURVE",
"783 -17 CURVE SMOOTH",
"743 -17 OFFCURVE",
"726 -12 OFFCURVE",
"716 10 CURVE SMOOTH",
"711 21 OFFCURVE",
"708 37 OFFCURVE",
"708 60 CURVE SMOOTH",
"708 126 LINE",
"655 79 OFFCURVE",
"607 41 OFFCURVE",
"524 6 CURVE SMOOTH",
"482 -11 OFFCURVE",
"438 -20 OFFCURVE",
"392 -20 CURVE SMOOTH",
"281 -20 OFFCURVE",
"185 20 OFFCURVE",
"132 105 CURVE SMOOTH",
"105 148 OFFCURVE",
"92 200 OFFCURVE",
"92 263 CURVE SMOOTH",
"92 422 OFFCURVE",
"216 520 OFFCURVE",
"397 565 CURVE SMOOTH",
"488 587 OFFCURVE",
"587 599 OFFCURVE",
"696 600 CURVE"
);
},
{
closed = 1;
nodes = (
"696 516 LINE",
"501 515 OFFCURVE",
"366 474 OFFCURVE",
"301 403 CURVE SMOOTH",
"268 368 OFFCURVE",
"252 327 OFFCURVE",
"252 281 CURVE SMOOTH",
"252 146 OFFCURVE",
"327 87 OFFCURVE",
"446 87 CURVE SMOOTH",
"515 87 OFFCURVE",
"619 136 OFFCURVE",
"696 196 CURVE"
);
},
{
closed = 1;
nodes = (
"299 1583 LINE",
"300 1583 LINE",
"580 1236 LINE",
"528 1187 LINE",
"527 1187 LINE",
"486 1204 OFFCURVE",
"371 1296 OFFCURVE",
"278 1385 CURVE SMOOTH",
"231 1429 OFFCURVE",
"201 1462 OFFCURVE",
"186 1485 CURVE"
);
}
);
width = 1003;
}
);
note = agrave;
unicode = 00E0;
},
{
glyphname = amacron;
layers = (
{
layerId = "73368993-97DB-45A8-8926-1DF7017D2006";
name = Light;
paths = (
{
closed = 1;
nodes = (
"696 656 LINE SMOOTH",
"696 780 OFFCURVE",
"674 846 OFFCURVE",
"612 879 CURVE SMOOTH",
"581 896 OFFCURVE",
"537 904 OFFCURVE",
"480 904 CURVE SMOOTH",
"379 904 OFFCURVE",
"273 872 OFFCURVE",
"163 807 CURVE",
"162 807 LINE",
"122 886 LINE",
"150 913 OFFCURVE",
"244 963 OFFCURVE",
"354 996 CURVE SMOOTH",
"409 1013 OFFCURVE",
"461 1021 OFFCURVE",
"511 1021 CURVE SMOOTH",
"675 1021 OFFCURVE",
"767 977 OFFCURVE",
"809 877 CURVE SMOOTH",
"830 826 OFFCURVE",
"840 758 OFFCURVE",
"840 672 CURVE SMOOTH",
"840 78 LINE",
"952 78 LINE",
"952 11 LINE",
"882 -8 OFFCURVE",
"826 -17 OFFCURVE",
"783 -17 CURVE SMOOTH",
"743 -17 OFFCURVE",
"726 -12 OFFCURVE",
"716 10 CURVE SMOOTH",
"711 21 OFFCURVE",
"708 37 OFFCURVE",
"708 60 CURVE SMOOTH",
"708 126 LINE",
"655 79 OFFCURVE",
"607 41 OFFCURVE",
"524 6 CURVE SMOOTH",
"482 -11 OFFCURVE",
"438 -20 OFFCURVE",
"392 -20 CURVE SMOOTH",
"281 -20 OFFCURVE",
"185 20 OFFCURVE",
"132 105 CURVE SMOOTH",
"105 148 OFFCURVE",
"92 200 OFFCURVE",
"92 263 CURVE SMOOTH",
"92 422 OFFCURVE",
"216 520 OFFCURVE",
"397 565 CURVE SMOOTH",
"488 587 OFFCURVE",
"587 599 OFFCURVE",
"696 600 CURVE"
);
},
{
closed = 1;
nodes = (
"696 516 LINE",
"501 515 OFFCURVE",
"366 474 OFFCURVE",
"301 403 CURVE SMOOTH",
"268 368 OFFCURVE",
"252 327 OFFCURVE",
"252 281 CURVE SMOOTH",
"252 146 OFFCURVE",
"327 87 OFFCURVE",
"446 87 CURVE SMOOTH",
"515 87 OFFCURVE",
"619 136 OFFCURVE",
"696 196 CURVE"
);
},
{
closed = 1;
nodes = (
"720 1370 LINE",
"720 1259 LINE",
"249 1259 LINE",
"249 1370 LINE"
);
}
);
width = 1003;
}
);
note = amacron;
unicode = 0101;
},
{
glyphname = aogonek;
layers = (
{
layerId = "73368993-97DB-45A8-8926-1DF7017D2006";
name = Light;
paths = (
{
closed = 1;
nodes = (
"696 656 LINE SMOOTH",
"696 780 OFFCURVE",
"674 846 OFFCURVE",
"612 879 CURVE SMOOTH",
"581 896 OFFCURVE",
"537 904 OFFCURVE",
"480 904 CURVE SMOOTH",
"379 904 OFFCURVE",
"273 872 OFFCURVE",
"163 807 CURVE",
"162 807 LINE",
"122 886 LINE",
"150 913 OFFCURVE",
"244 963 OFFCURVE",
"354 996 CURVE SMOOTH",
"409 1013 OFFCURVE",
"461 1021 OFFCURVE",
"511 1021 CURVE SMOOTH",
"675 1021 OFFCURVE",
"767 977 OFFCURVE",
"809 877 CURVE SMOOTH",
"830 826 OFFCURVE",
"840 758 OFFCURVE",
"840 672 CURVE SMOOTH",
"840 78 LINE",
"952 78 LINE",
"952 11 LINE",
"929 5 OFFCURVE",
"900 -1 OFFCURVE",
"863 -8 CURVE",
"783 -41 OFFCURVE",
"713 -98 OFFCURVE",
"674 -154 CURVE SMOOTH",
"654 -182 OFFCURVE",
"644 -208 OFFCURVE",
"644 -232 CURVE SMOOTH",
"644 -312 OFFCURVE",
"702 -348 OFFCURVE",
"783 -348 CURVE SMOOTH",
"828 -348 OFFCURVE",
"880 -333 OFFCURVE",
"924 -312 CURVE",
"924 -387 LINE",
"873 -424 OFFCURVE",
"793 -449 OFFCURVE",
"720 -449 CURVE SMOOTH",
"596 -449 OFFCURVE",
"501 -399 OFFCURVE",
"501 -280 CURVE SMOOTH",
"501 -221 OFFCURVE",
"549 -150 OFFCURVE",
"624 -89 CURVE SMOOTH",
"661 -58 OFFCURVE",
"701 -33 OFFCURVE",
"743 -13 CURVE",
"718 -8 OFFCURVE",
"708 12 OFFCURVE",
"708 60 CURVE SMOOTH",
"708 126 LINE",
"655 79 OFFCURVE",
"607 41 OFFCURVE",
"524 6 CURVE SMOOTH",
"482 -11 OFFCURVE",
"438 -20 OFFCURVE",
"392 -20 CURVE SMOOTH",
"281 -20 OFFCURVE",
"185 20 OFFCURVE",
"132 105 CURVE SMOOTH",
"105 148 OFFCURVE",
"92 200 OFFCURVE",
"92 263 CURVE SMOOTH",
"92 422 OFFCURVE",
"216 520 OFFCURVE",
"397 565 CURVE SMOOTH",
"488 587 OFFCURVE",
"587 599 OFFCURVE",
"696 600 CURVE"
);
},
{
closed = 1;
nodes = (
"696 516 LINE",
"501 515 OFFCURVE",
"366 474 OFFCURVE",
"301 403 CURVE SMOOTH",
"268 368 OFFCURVE",
"252 327 OFFCURVE",
"252 281 CURVE SMOOTH",
"252 146 OFFCURVE",
"327 87 OFFCURVE",
"446 87 CURVE SMOOTH",
"515 87 OFFCURVE",
"619 136 OFFCURVE",
"696 196 CURVE"
);
}
);
width = 1003;
}
);
note = aogonek;
unicode = 0105;
},
{
glyphname = aring;
layers = (
{
layerId = "73368993-97DB-45A8-8926-1DF7017D2006";
name = Light;
paths = (
{
closed = 1;
nodes = (
"696 656 LINE SMOOTH",
"696 780 OFFCURVE",
"674 846 OFFCURVE",
"612 879 CURVE SMOOTH",
"581 896 OFFCURVE",
"537 904 OFFCURVE",
"480 904 CURVE SMOOTH",
"379 904 OFFCURVE",
"273 872 OFFCURVE",
"163 807 CURVE",
"162 807 LINE",
"122 886 LINE",
"150 913 OFFCURVE",
"244 963 OFFCURVE",
"354 996 CURVE SMOOTH",
"409 1013 OFFCURVE",
"461 1021 OFFCURVE",
"511 1021 CURVE SMOOTH",
"675 1021 OFFCURVE",
"767 977 OFFCURVE",
"809 877 CURVE SMOOTH",
"830 826 OFFCURVE",
"840 758 OFFCURVE",
"840 672 CURVE SMOOTH",
"840 78 LINE",
"952 78 LINE",
"952 11 LINE",
"882 -8 OFFCURVE",
"826 -17 OFFCURVE",
"783 -17 CURVE SMOOTH",
"743 -17 OFFCURVE",
"726 -12 OFFCURVE",
"716 10 CURVE SMOOTH",
"711 21 OFFCURVE",
"708 37 OFFCURVE",
"708 60 CURVE SMOOTH",
"708 126 LINE",
"655 79 OFFCURVE",
"607 41 OFFCURVE",
"524 6 CURVE SMOOTH",
"482 -11 OFFCURVE",
"438 -20 OFFCURVE",
"392 -20 CURVE SMOOTH",
"281 -20 OFFCURVE",
"185 20 OFFCURVE",
"132 105 CURVE SMOOTH",
"105 148 OFFCURVE",
"92 200 OFFCURVE",
"92 263 CURVE SMOOTH",
"92 422 OFFCURVE",
"216 520 OFFCURVE",
"397 565 CURVE SMOOTH",
"488 587 OFFCURVE",
"587 599 OFFCURVE",
"696 600 CURVE"
);
},
{
closed = 1;
nodes = (
"696 516 LINE",
"501 515 OFFCURVE",
"366 474 OFFCURVE",
"301 403 CURVE SMOOTH",
"268 368 OFFCURVE",
"252 327 OFFCURVE",
"252 281 CURVE SMOOTH",
"252 146 OFFCURVE",
"327 87 OFFCURVE",
"446 87 CURVE SMOOTH",
"515 87 OFFCURVE",
"619 136 OFFCURVE",
"696 196 CURVE"
);
},
{
closed = 1;
nodes = (
"202 1501 OFFCURVE",
"265 1575 OFFCURVE",
"354 1612 CURVE SMOOTH",
"399 1631 OFFCURVE",
"445 1640 OFFCURVE",
"494 1640 CURVE SMOOTH",
"495 1640 LINE SMOOTH",
"610 1640 OFFCURVE",
"694 1597 OFFCURVE",
"736 1526 CURVE SMOOTH",
"757 1490 OFFCURVE",
"767 1449 OFFCURVE",
"767 1404 CURVE SMOOTH",
"767 1304 OFFCURVE",
"711 1228 OFFCURVE",
"625 1189 CURVE SMOOTH",
"582 1170 OFFCURVE",
"534 1160 OFFCURVE",
"483 1160 CURVE SMOOTH",
"482 1160 LINE SMOOTH",
"361 1160 OFFCURVE",
"276 1205 OFFCURVE",
"234 1279 CURVE SMOOTH",
"213 1316 OFFCURVE",
"202 1357 OFFCURVE",
"202 1404 CURVE SMOOTH"
);
},
{
closed = 1;
nodes = (
"488 1231 LINE SMOOTH",
"601 1231 OFFCURVE",
"657 1289 OFFCURVE",
"658 1396 CURVE SMOOTH",
"658 1495 OFFCURVE",
"602 1567 OFFCURVE",
"489 1567 CURVE SMOOTH",
"488 1567 LINE SMOOTH",
"379 1567 OFFCURVE",
"312 1506 OFFCURVE",
"312 1407 CURVE SMOOTH",
"312 1343 OFFCURVE",
"337 1288 OFFCURVE",
"390 1256 CURVE",
"416 1239 OFFCURVE",
"448 1231 OFFCURVE",
"487 1231 CURVE SMOOTH"
);
}
);
width = 1003;
}
);
note = aring;
unicode = 00E5;
},
{
glyphname = atilde;
layers = (
{
layerId = "73368993-97DB-45A8-8926-1DF7017D2006";
name = Light;
paths = (
{
closed = 1;
nodes = (
"696 656 LINE SMOOTH",
"696 780 OFFCURVE",
"674 846 OFFCURVE",
"612 879 CURVE SMOOTH",
"581 896 OFFCURVE",
"537 904 OFFCURVE",
"480 904 CURVE SMOOTH",
"379 904 OFFCURVE",
"273 872 OFFCURVE",
"163 807 CURVE",
"162 807 LINE",
"122 886 LINE",
"150 913 OFFCURVE",
"244 963 OFFCURVE",
"354 996 CURVE SMOOTH",
"409 1013 OFFCURVE",
"461 1021 OFFCURVE",
"511 1021 CURVE SMOOTH",
"675 1021 OFFCURVE",
"767 977 OFFCURVE",
"809 877 CURVE SMOOTH",
"830 826 OFFCURVE",
"840 758 OFFCURVE",
"840 672 CURVE SMOOTH",
"840 78 LINE",
"952 78 LINE",
"952 11 LINE",
"882 -8 OFFCURVE",
"826 -17 OFFCURVE",
"783 -17 CURVE SMOOTH",
"743 -17 OFFCURVE",
"726 -12 OFFCURVE",
"716 10 CURVE SMOOTH",
"711 21 OFFCURVE",
"708 37 OFFCURVE",
"708 60 CURVE SMOOTH",
"708 126 LINE",
"655 79 OFFCURVE",
"607 41 OFFCURVE",
"524 6 CURVE SMOOTH",
"482 -11 OFFCURVE",
"438 -20 OFFCURVE",
"392 -20 CURVE SMOOTH",
"281 -20 OFFCURVE",
"185 20 OFFCURVE",
"132 105 CURVE SMOOTH",
"105 148 OFFCURVE",
"92 200 OFFCURVE",
"92 263 CURVE SMOOTH",
"92 422 OFFCURVE",
"216 520 OFFCURVE",
"397 565 CURVE SMOOTH",
"488 587 OFFCURVE",
"587 599 OFFCURVE",
"696 600 CURVE"
);
},
{
closed = 1;
nodes = (
"696 516 LINE",
"501 515 OFFCURVE",
"366 474 OFFCURVE",
"301 403 CURVE SMOOTH",
"268 368 OFFCURVE",
"252 327 OFFCURVE",
"252 281 CURVE SMOOTH",
"252 146 OFFCURVE",
"327 87 OFFCURVE",
"446 87 CURVE SMOOTH",
"515 87 OFFCURVE",
"619 136 OFFCURVE",
"696 196 CURVE"
);
},
{
closed = 1;
nodes = (
"131 1269 LINE",
"146 1324 OFFCURVE",
"191 1386 OFFCURVE",
"257 1423 CURVE SMOOTH",
"290 1441 OFFCURVE",
"326 1450 OFFCURVE",
"365 1450 CURVE SMOOTH",
"413 1450 OFFCURVE",
"451 1432 OFFCURVE",
"478 1409 CURVE SMOOTH",
"491 1398 OFFCURVE",
"507 1383 OFFCURVE",
"524 1364 CURVE",
"571 1317 OFFCURVE",
"594 1297 OFFCURVE",
"635 1297 CURVE SMOOTH",
"708 1297 OFFCURVE",
"742 1352 OFFCURVE",
"766 1413 CURVE",
"840 1371 LINE",
"808 1268 OFFCURVE",
"735 1190 OFFCURVE",
"624 1190 CURVE SMOOTH",
"576 1190 OFFCURVE",
"538 1208 OFFCURVE",
"511 1230 CURVE SMOOTH",
"498 1241 OFFCURVE",
"482 1255 OFFCURVE",
"464 1273 CURVE SMOOTH",
"416 1321 OFFCURVE",
"388 1342 OFFCURVE",
"343 1342 CURVE SMOOTH",
"291 1342 OFFCURVE",
"254 1310 OFFCURVE",
"235 1281 CURVE",
"226 1266 OFFCURVE",
"216 1249 OFFCURVE",
"205 1228 CURVE"
);
}
);
width = 1003;
}
);
note = atilde;
unicode = 00E3;
},
{
glyphname = ae;
layers = (
{
layerId = "73368993-97DB-45A8-8926-1DF7017D2006";
name = Light;
paths = (
{
closed = 1;
nodes = (
"682 75 OFFCURVE",
"556 -20 OFFCURVE",
"387 -20 CURVE SMOOTH",
"276 -20 OFFCURVE",
"181 20 OFFCURVE",
"126 105 CURVE SMOOTH",
"99 147 OFFCURVE",
"85 199 OFFCURVE",
"85 262 CURVE SMOOTH",
"85 419 OFFCURVE",
"209 519 OFFCURVE",
"388 564 CURVE SMOOTH",
"477 587 OFFCURVE",
"574 599 OFFCURVE",
"679 600 CURVE",
"679 663 LINE SMOOTH",
"679 790 OFFCURVE",
"661 854 OFFCURVE",
"602 885 CURVE SMOOTH",
"573 900 OFFCURVE",
"530 908 OFFCURVE",
"473 908 CURVE SMOOTH",
"352 908 OFFCURVE",
"242 862 OFFCURVE",
"137 806 CURVE",
"99 881 LINE",
"131 912 OFFCURVE",
"232 964 OFFCURVE",
"346 997 CURVE SMOOTH",
"403 1013 OFFCURVE",
"456 1021 OFFCURVE",
"506 1021 CURVE SMOOTH",
"670 1021 OFFCURVE",
"763 975 OFFCURVE",
"803 874 CURVE",
"887 973 OFFCURVE",
"1005 1028 OFFCURVE",
"1140 1028 CURVE SMOOTH",
"1356 1028 OFFCURVE",
"1478 903 OFFCURVE",
"1486 671 CURVE SMOOTH",
"1486 591 OFFCURVE",
"1485 548 OFFCURVE",
"1477 512 CURVE",
"835 512 LINE",
"835 502 OFFCURVE",
"835 495 OFFCURVE",
"836 490 CURVE",
"841 311 OFFCURVE",
"904 187 OFFCURVE",
"1000 128 CURVE SMOOTH",
"1047 98 OFFCURVE",
"1101 83 OFFCURVE",
"1160 83 CURVE SMOOTH",
"1260 83 OFFCURVE",
"1380 125 OFFCURVE",
"1437 174 CURVE",
"1466 108 LINE",
"1395 36 OFFCURVE",
"1248 -20 OFFCURVE",
"1115 -20 CURVE SMOOTH",
"951 -20 OFFCURVE",
"828 52 OFFCURVE",
"755 179 CURVE"
);
},
{
closed = 1;
nodes = (
"1325 597 LINE",
"1328 631 OFFCURVE",
"1329 658 OFFCURVE",
"1329 677 CURVE",
"1328 834 OFFCURVE",
"1257 935 OFFCURVE",
"1104 935 CURVE SMOOTH",
"940 935 OFFCURVE",
"851 822 OFFCURVE",
"837 597 CURVE"
);
},
{
closed = 1;
nodes = (
"693 324 OFFCURVE",
"679 409 OFFCURVE",
"679 505 CURVE SMOOTH",
"679 523 LINE",
"492 522 OFFCURVE",
"359 477 OFFCURVE",
"295 405 CURVE SMOOTH",
"262 368 OFFCURVE",
"246 327 OFFCURVE",
"246 281 CURVE SMOOTH",
"246 145 OFFCURVE",
"321 87 OFFCURVE",
"440 87 CURVE SMOOTH",
"520 87 OFFCURVE",
"598 124 OFFCURVE",
"655 174 CURVE SMOOTH",
"684 199 OFFCURVE",
"706 224 OFFCURVE",
"722 250 CURVE"
);
}
);
width = 1565;
}
);
note = ae;
unicode = 00E6;
},
{
glyphname = aeacute;
layers = (
{
layerId = "73368993-97DB-45A8-8926-1DF7017D2006";
name = Light;
paths = (
{
closed = 1;
nodes = (
"1002 1583 LINE",
"1003 1583 LINE",
"1115 1485 LINE",
"1086 1441 OFFCURVE",
"981 1343 OFFCURVE",
"883 1264 CURVE SMOOTH",
"834 1225 OFFCURVE",
"797 1199 OFFCURVE",
"773 1187 CURVE",
"771 1187 LINE",
"720 1236 LINE"
);
},
{
closed = 1;
nodes = (
"688 75 OFFCURVE",
"562 -20 OFFCURVE",
"393 -20 CURVE SMOOTH",
"282 -20 OFFCURVE",
"187 20 OFFCURVE",
"132 105 CURVE SMOOTH",
"105 147 OFFCURVE",
"91 199 OFFCURVE",
"91 262 CURVE SMOOTH",
"91 419 OFFCURVE",
"215 519 OFFCURVE",
"394 564 CURVE SMOOTH",
"483 587 OFFCURVE",
"580 599 OFFCURVE",
"685 600 CURVE",
"685 663 LINE SMOOTH",
"685 790 OFFCURVE",
"667 854 OFFCURVE",
"608 885 CURVE SMOOTH",
"579 900 OFFCURVE",
"536 908 OFFCURVE",
"479 908 CURVE SMOOTH",
"358 908 OFFCURVE",
"248 862 OFFCURVE",
"143 806 CURVE",
"105 881 LINE",
"137 912 OFFCURVE",
"238 964 OFFCURVE",
"352 997 CURVE SMOOTH",
"409 1013 OFFCURVE",
"462 1021 OFFCURVE",
"512 1021 CURVE SMOOTH",
"676 1021 OFFCURVE",
"769 975 OFFCURVE",
"809 874 CURVE",
"893 973 OFFCURVE",
"1011 1028 OFFCURVE",
"1146 1028 CURVE SMOOTH",
"1362 1028 OFFCURVE",
"1484 903 OFFCURVE",
"1492 671 CURVE SMOOTH",
"1492 591 OFFCURVE",
"1491 548 OFFCURVE",
"1483 512 CURVE",
"841 512 LINE",
"841 502 OFFCURVE",
"841 495 OFFCURVE",
"842 490 CURVE",
"847 311 OFFCURVE",
"910 187 OFFCURVE",
"1006 128 CURVE SMOOTH",
"1053 98 OFFCURVE",
"1107 83 OFFCURVE",
"1166 83 CURVE SMOOTH",
"1266 83 OFFCURVE",
"1386 125 OFFCURVE",
"1443 174 CURVE",
"1472 108 LINE",
"1401 36 OFFCURVE",
"1254 -20 OFFCURVE",
"1121 -20 CURVE SMOOTH",
"957 -20 OFFCURVE",
"834 52 OFFCURVE",
"761 179 CURVE"
);
},
{
closed = 1;
nodes = (
"1331 597 LINE",
"1334 631 OFFCURVE",
"1335 658 OFFCURVE",
"1335 677 CURVE",
"1334 834 OFFCURVE",
"1263 935 OFFCURVE",
"1110 935 CURVE SMOOTH",
"946 935 OFFCURVE",
"857 822 OFFCURVE",
"843 597 CURVE"
);
},
{
closed = 1;
nodes = (
"699 324 OFFCURVE",
"685 409 OFFCURVE",
"685 505 CURVE SMOOTH",
"685 523 LINE",
"498 522 OFFCURVE",
"365 477 OFFCURVE",
"301 405 CURVE SMOOTH",
"268 368 OFFCURVE",
"252 327 OFFCURVE",
"252 281 CURVE SMOOTH",
"252 145 OFFCURVE",
"327 87 OFFCURVE",
"446 87 CURVE SMOOTH",
"526 87 OFFCURVE",
"604 124 OFFCURVE",
"661 174 CURVE SMOOTH",
"690 199 OFFCURVE",
"712 224 OFFCURVE",
"728 250 CURVE"
);
}
);
width = 1568;
}
);
note = aeacute;
unicode = 01FD;
},
{
glyphname = b;
layers = (
{
layerId = "73368993-97DB-45A8-8926-1DF7017D2006";
name = Light;
paths = (
{
closed = 1;
nodes = (
"-5 1379 LINE",
"-5 1445 LINE",
"258 1476 LINE",
"261 1476 LINE",
"295 1450 LINE",
"295 903 LINE",
"371 975 OFFCURVE",
"476 1028 OFFCURVE",
"604 1028 CURVE SMOOTH",
"744 1028 OFFCURVE",
"871 959 OFFCURVE",
"944 812 CURVE SMOOTH",
"980 739 OFFCURVE",
"998 647 OFFCURVE",
"998 537 CURVE SMOOTH",
"998 332 OFFCURVE",
"911 153 OFFCURVE",
"755 54 CURVE SMOOTH",
"677 5 OFFCURVE",
"587 -20 OFFCURVE",
"484 -20 CURVE SMOOTH",
"381 -20 OFFCURVE",
"279 -1 OFFCURVE",
"212 20 CURVE SMOOTH",
"179 31 OFFCURVE",
"158 40 OFFCURVE",
"150 49 CURVE",
"150 1363 LINE"
);
},
{
closed = 1;
nodes = (
"295 136 LINE",
"314 96 OFFCURVE",
"401 71 OFFCURVE",
"497 71 CURVE SMOOTH",
"632 71 OFFCURVE",
"737 137 OFFCURVE",
"796 272 CURVE SMOOTH",
"825 339 OFFCURVE",
"840 423 OFFCURVE",
"840 522 CURVE SMOOTH",
"840 701 OFFCURVE",
"782 819 OFFCURVE",
"694 875 CURVE SMOOTH",
"649 903 OFFCURVE",
"599 917 OFFCURVE",
"544 917 CURVE SMOOTH",
"443 917 OFFCURVE",
"347 859 OFFCURVE",
"295 802 CURVE"
);
}
);
width = 1080;
}
);
note = b;
unicode = 0062;
},
{
glyphname = c;
layers = (
{
layerId = "73368993-97DB-45A8-8926-1DF7017D2006";
name = Light;
paths = (
{
closed = 1;
nodes = (
"656 1028 OFFCURVE",
"751 1001 OFFCURVE",
"815 973 CURVE",
"807 716 LINE",
"717 716 LINE",
"679 888 LINE SMOOTH",
"671 924 OFFCURVE",
"619 942 OFFCURVE",
"524 942 CURVE SMOOTH",
"400 942 OFFCURVE",
"305 876 OFFCURVE",
"254 754 CURVE SMOOTH",
"229 693 OFFCURVE",
"216 621 OFFCURVE",
"216 538 CURVE SMOOTH",
"216 338 OFFCURVE",
"277 202 OFFCURVE",
"374 135 CURVE SMOOTH",
"423 102 OFFCURVE",
"478 85 OFFCURVE",
"540 85 CURVE SMOOTH",
"643 85 OFFCURVE",
"745 124 OFFCURVE",
"805 168 CURVE",
"834 108 LINE",
"765 37 OFFCURVE",
"628 -20 OFFCURVE",
"509 -20 CURVE SMOOTH",
"318 -20 OFFCURVE",
"181 75 OFFCURVE",
"113 231 CURVE SMOOTH",
"78 308 OFFCURVE",
"61 395 OFFCURVE",
"61 492 CURVE SMOOTH",
"61 687 OFFCURVE",
"136 858 OFFCURVE",
"287 955 CURVE SMOOTH",
"362 1004 OFFCURVE",
"454 1028 OFFCURVE",
"561 1028 CURVE SMOOTH"
);
}
);
width = 917;
}
);
note = c;
unicode = 0063;
},
{
glyphname = cacute;
layers = (
{
layerId = "73368993-97DB-45A8-8926-1DF7017D2006";
name = Light;
paths = (
{
closed = 1;
nodes = (
"702 1583 LINE",
"703 1583 LINE",
"815 1485 LINE",
"786 1441 OFFCURVE",
"681 1343 OFFCURVE",
"583 1264 CURVE SMOOTH",
"534 1225 OFFCURVE",
"497 1199 OFFCURVE",
"473 1187 CURVE",
"471 1187 LINE",
"420 1236 LINE"
);
},
{
closed = 1;
nodes = (
"656 1028 OFFCURVE",
"751 1001 OFFCURVE",
"815 973 CURVE",
"807 716 LINE",
"717 716 LINE",
"679 888 LINE SMOOTH",
"671 924 OFFCURVE",
"619 942 OFFCURVE",
"524 942 CURVE SMOOTH",
"400 942 OFFCURVE",
"305 876 OFFCURVE",
"254 754 CURVE SMOOTH",
"229 693 OFFCURVE",
"216 621 OFFCURVE",
"216 538 CURVE SMOOTH",
"216 338 OFFCURVE",
"277 202 OFFCURVE",
"374 135 CURVE SMOOTH",
"423 102 OFFCURVE",
"478 85 OFFCURVE",
"540 85 CURVE SMOOTH",
"643 85 OFFCURVE",
"745 124 OFFCURVE",
"805 168 CURVE",
"834 108 LINE",
"765 37 OFFCURVE",
"628 -20 OFFCURVE",
"509 -20 CURVE SMOOTH",
"318 -20 OFFCURVE",
"181 75 OFFCURVE",
"113 231 CURVE SMOOTH",
"78 308 OFFCURVE",
"61 395 OFFCURVE",
"61 492 CURVE SMOOTH",
"61 687 OFFCURVE",
"136 858 OFFCURVE",
"287 955 CURVE SMOOTH",
"362 1004 OFFCURVE",
"454 1028 OFFCURVE",
"561 1028 CURVE SMOOTH"
);
}
);
width = 917;
}
);
note = cacute;
unicode = 0107;
},
{
glyphname = ccaron;
layers = (
{
layerId = "73368993-97DB-45A8-8926-1DF7017D2006";
name = Light;
paths = (
{
closed = 1;
nodes = (
"271 1581 LINE",
"521 1309 LINE",
"776 1581 LINE",
"833 1544 LINE",
"588 1192 LINE",
"453 1192 LINE",
"207 1544 LINE"
);
},
{
closed = 1;
nodes = (
"656 1028 OFFCURVE",
"751 1001 OFFCURVE",
"815 973 CURVE",
"807 716 LINE",
"717 716 LINE",
"679 888 LINE SMOOTH",
"671 924 OFFCURVE",
"619 942 OFFCURVE",
"524 942 CURVE SMOOTH",
"400 942 OFFCURVE",
"305 876 OFFCURVE",
"254 754 CURVE SMOOTH",
"229 693 OFFCURVE",
"216 621 OFFCURVE",
"216 538 CURVE SMOOTH",
"216 338 OFFCURVE",
"277 202 OFFCURVE",
"374 135 CURVE SMOOTH",
"423 102 OFFCURVE",
"478 85 OFFCURVE",
"540 85 CURVE SMOOTH",
"643 85 OFFCURVE",
"745 124 OFFCURVE",
"805 168 CURVE",
"834 108 LINE",
"765 37 OFFCURVE",
"628 -20 OFFCURVE",
"509 -20 CURVE SMOOTH",
"318 -20 OFFCURVE",
"181 75 OFFCURVE",
"113 231 CURVE SMOOTH",
"78 308 OFFCURVE",
"61 395 OFFCURVE",
"61 492 CURVE SMOOTH",
"61 687 OFFCURVE",
"136 858 OFFCURVE",
"287 955 CURVE SMOOTH",
"362 1004 OFFCURVE",
"454 1028 OFFCURVE",
"561 1028 CURVE SMOOTH"
);
}
);
width = 917;
}
);
note = ccaron;
unicode = 010D;
},
{
glyphname = ccedilla;
layers = (
{
layerId = "73368993-97DB-45A8-8926-1DF7017D2006";
name = Light;
paths = (
{
closed = 1;
nodes = (
"834 108 LINE",
"767 40 OFFCURVE",
"634 -17 OFFCURVE",
"517 -20 CURVE",
"565 -76 OFFCURVE",
"611 -165 OFFCURVE",
"611 -248 CURVE SMOOTH",
"611 -373 OFFCURVE",
"536 -423 OFFCURVE",
"391 -423 CURVE SMOOTH",
"390 -423 LINE SMOOTH",
"349 -423 OFFCURVE",
"294 -413 OFFCURVE",
"263 -400 CURVE",
"264 -294 LINE",
"288 -302 OFFCURVE",
"327 -308 OFFCURVE",
"347 -308 CURVE SMOOTH",
"348 -308 LINE SMOOTH",
"412 -308 OFFCURVE",
"448 -298 OFFCURVE",
"469 -261 CURVE SMOOTH",
"479 -242 OFFCURVE",
"484 -215 OFFCURVE",
"484 -180 CURVE SMOOTH",
"484 -123 OFFCURVE",
"459 -60 OFFCURVE",
"432 -15 CURVE",
"273 9 OFFCURVE",
"160 107 OFFCURVE",
"104 252 CURVE SMOOTH",
"75 325 OFFCURVE",
"61 405 OFFCURVE",
"61 492 CURVE SMOOTH",
"61 687 OFFCURVE",
"136 858 OFFCURVE",
"287 955 CURVE SMOOTH",
"362 1004 OFFCURVE",
"454 1028 OFFCURVE",
"561 1028 CURVE SMOOTH",
"656 1028 OFFCURVE",
"751 1001 OFFCURVE",
"815 973 CURVE",
"807 716 LINE",
"717 716 LINE",
"679 888 LINE SMOOTH",
"671 924 OFFCURVE",
"619 942 OFFCURVE",
"524 942 CURVE SMOOTH",
"400 942 OFFCURVE",
"305 876 OFFCURVE",
"254 754 CURVE SMOOTH",
"229 693 OFFCURVE",
"216 621 OFFCURVE",
"216 538 CURVE SMOOTH",
"216 338 OFFCURVE",
"277 202 OFFCURVE",
"374 135 CURVE SMOOTH",
"423 102 OFFCURVE",
"478 85 OFFCURVE",
"540 85 CURVE SMOOTH",
"643 85 OFFCURVE",
"745 124 OFFCURVE",
"805 168 CURVE"
);
}
);
width = 917;
}
);
note = ccedilla;
unicode = 00E7;
},
{
glyphname = ccircumflex;
layers = (
{
layerId = "73368993-97DB-45A8-8926-1DF7017D2006";
name = Light;
paths = (
{
closed = 1;
nodes = (
"450 1563 LINE",
"586 1563 LINE",
"829 1211 LINE",
"765 1174 LINE",
"518 1446 LINE",
"257 1173 LINE",
"200 1210 LINE"
);
},
{
closed = 1;
nodes = (
"656 1028 OFFCURVE",
"751 1001 OFFCURVE",
"815 973 CURVE",
"807 716 LINE",
"717 716 LINE",
"679 888 LINE SMOOTH",
"671 924 OFFCURVE",
"619 942 OFFCURVE",
"524 942 CURVE SMOOTH",
"400 942 OFFCURVE",
"305 876 OFFCURVE",
"254 754 CURVE SMOOTH",
"229 693 OFFCURVE",
"216 621 OFFCURVE",
"216 538 CURVE SMOOTH",
"216 338 OFFCURVE",
"277 202 OFFCURVE",
"374 135 CURVE SMOOTH",
"423 102 OFFCURVE",
"478 85 OFFCURVE",
"540 85 CURVE SMOOTH",
"643 85 OFFCURVE",
"745 124 OFFCURVE",
"805 168 CURVE",
"834 108 LINE",
"765 37 OFFCURVE",
"628 -20 OFFCURVE",
"509 -20 CURVE SMOOTH",
"318 -20 OFFCURVE",
"181 75 OFFCURVE",
"113 231 CURVE SMOOTH",
"78 308 OFFCURVE",
"61 395 OFFCURVE",
"61 492 CURVE SMOOTH",
"61 687 OFFCURVE",
"136 858 OFFCURVE",
"287 955 CURVE SMOOTH",
"362 1004 OFFCURVE",
"454 1028 OFFCURVE",
"561 1028 CURVE SMOOTH"
);
}
);
width = 917;
}
);
note = ccircumflex;
unicode = 0109;
},
